<svg width="29" height="29" viewBox="0 0 29 29" fill="none" xmlns="http://www.w3.org/2000/svg">
<g clip-path="url(#clip0)">
<path d="M18.2481 7.48047H9.86816C8.5306 7.48047 7.44238 8.56869 7.44238 9.90625V18.2862C7.44238 19.6238 8.5306 20.7123 9.86816 20.7123H18.2481C19.5857 20.7123 20.6742 19.6241 20.6742 18.2862V9.90625C20.6742 8.56869 19.586 7.48047 18.2481 7.48047ZM14.0581 18.4522C11.6565 18.4522 9.70246 16.4982 9.70246 14.0962C9.70246 11.6946 11.6565 9.74054 14.0581 9.74054C16.4601 9.74054 18.4141 11.6946 18.4141 14.0962C18.4141 16.4979 16.4598 18.4522 14.0581 18.4522ZM18.5542 10.6411C17.9856 10.6411 17.5233 10.1788 17.5233 9.61054C17.5233 9.04232 17.9856 8.57996 18.5542 8.57996C19.1224 8.57996 19.5848 9.04232 19.5848 9.61054C19.5848 10.1788 19.1224 10.6411 18.5542 10.6411Z" fill="white"/>
<path fill-rule="evenodd" clip-rule="evenodd" d="M14.0583 11.5811C12.6718 11.5811 11.5429 12.7094 11.5429 14.0958C11.5429 15.4829 12.6718 16.6115 14.0583 16.6115C15.4453 16.6115 16.5733 15.4829 16.5733 14.0958C16.5733 12.7097 15.445 11.5811 14.0583 11.5811Z" fill="white"/>
<path d="M14.0582 0C6.29437 0 0 6.29434 0 14.0581C0 21.8219 6.29437 28.1162 14.0582 28.1162C21.822 28.1162 28.1164 21.8219 28.1164 14.0581C28.1164 6.29434 21.822 0 14.0582 0ZM22.5146 18.286C22.5146 20.6388 20.601 22.5524 18.2482 22.5524H9.8682C7.51572 22.5524 5.60178 20.6388 5.60178 18.286V9.90606C5.60178 7.55359 7.51572 5.63966 9.8682 5.63966H18.2482C20.601 5.63966 22.5146 7.55359 22.5146 9.90606V18.286Z" fill="white"/>
</g>
<defs>
<clipPath id="clip0">
<rect width="28.1295" height="28.1294" fill="white"/>
</clipPath>
</defs>
</svg>
