<svg width="29" height="29" viewBox="0 0 29 29" fill="none" xmlns="http://www.w3.org/2000/svg">
<path fill-rule="evenodd" clip-rule="evenodd" d="M29 14.0582C29 21.8224 22.7059 28.1165 14.9417 28.1165C7.17757 28.1165 0.883484 21.8224 0.883484 14.0582C0.883484 6.29409 7.17757 0 14.9417 0C22.7059 0 29 6.29409 29 14.0582ZM6.74287 11.4219C6.74287 9.21274 8.53373 7.42188 10.7429 7.42188H19.9323C22.1415 7.42188 23.9323 9.21274 23.9323 11.4219V16.314C23.9323 18.5231 22.1415 20.314 19.9323 20.314H10.7429C8.53373 20.314 6.74287 18.5231 6.74287 16.314V11.4219ZM14.9752 15.749C14.0553 16.2696 13.1351 16.7903 12.2113 17.3132V10.2698C13.3337 10.9092 14.4522 11.5461 15.5732 12.1844C16.5173 12.7221 17.4631 13.2607 18.4143 13.8025C17.2642 14.4535 16.1199 15.1011 14.9752 15.749Z" fill="#F8F8F9"/>
</svg>
