<svg width="30" height="29" viewBox="0 0 30 29" fill="none" xmlns="http://www.w3.org/2000/svg">
<g clip-path="url(#clip0)">
<path fill-rule="evenodd" clip-rule="evenodd" d="M14.9998 28.1159C7.23575 28.1159 0.941772 21.8219 0.941772 14.0579C0.941772 6.29395 7.23575 0 14.9998 0C22.7638 0 29.0578 6.29395 29.0578 14.0579C29.0578 21.8219 22.7638 28.1159 14.9998 28.1159ZM18.5339 14.6082L18.866 11.3816H16.0257V9.4808C16.0257 8.76785 16.4968 8.60045 16.8319 8.60045H18.8745V5.4655L16.0593 5.45372C12.9348 5.45372 12.2249 7.79403 12.2249 9.28859V11.3786H10.4173V14.6082H12.2249V23.7981H16.0255V14.6082H18.5339Z" fill="white"/>
</g>
<defs>
<clipPath id="clip0">
<rect width="28.1295" height="28.1294" fill="white" transform="translate(0.941772)"/>
</clipPath>
</defs>
</svg>
