<svg width="176" height="115" viewBox="0 0 176 115" fill="none" xmlns="http://www.w3.org/2000/svg">
<g clip-path="url(#clip0_508:2416)">
<path d="M64.2574 103.141V114.326H61.1006V109.963H56.7953V114.326H53.6379V103.141H56.7953V107.343H61.1V103.141H64.2574Z" fill="#F8F8F9"/>
<path d="M65.6919 103.141H68.8492V114.326H65.6919V103.141Z" fill="#F8F8F9"/>
<path d="M70.2993 103.141H73.4567V111.817H78.7843V114.326H70.2993V103.141Z" fill="#F8F8F9"/>
<path d="M79.228 103.141H82.3848V111.817H87.7125V114.326H79.228V103.141Z" fill="#F8F8F9"/>
<path d="M19.3621 103.141L15.7444 114.326H12.3633L10.2266 107.519L7.99456 114.326H4.61457L0.995117 103.141H4.2478L6.49552 110.284L8.8554 103.141H11.757L14.0059 110.349L16.3489 103.141H19.3621Z" fill="#F8F8F9"/>
<path d="M19.697 103.141H22.8538V114.326H19.697V103.141Z" fill="#F8F8F9"/>
<path d="M34.9239 103.141V114.326H32.324L27.3973 108.368V114.326H24.3044V103.141H26.9043L31.831 109.098V103.141H34.9239Z" fill="#F8F8F9"/>
<path d="M36.3574 103.141H41.6346C42.8568 103.141 43.941 103.37 44.8873 103.827C45.8335 104.285 46.5669 104.935 47.0873 105.777C47.6085 106.619 47.8689 107.604 47.8685 108.733C47.8681 109.862 47.6077 110.848 47.0873 111.69C46.5665 112.531 45.8332 113.181 44.8873 113.639C43.9414 114.097 42.8572 114.326 41.6346 114.326H36.3574V103.141ZM41.5073 111.801C42.464 111.801 43.232 111.53 43.8111 110.986C44.3902 110.443 44.6803 109.692 44.6815 108.734C44.6815 107.776 44.3919 107.025 43.8128 106.482C43.2336 105.938 42.4657 105.666 41.509 105.667H39.5142V111.803L41.5073 111.801Z" fill="#F8F8F9"/>
<path d="M101.028 108.495H103.818V113.129C103.149 113.602 102.405 113.959 101.618 114.184C100.811 114.425 99.9732 114.549 99.1308 114.551C97.9614 114.551 96.9091 114.304 95.9741 113.808C95.0632 113.336 94.3013 112.62 93.7735 111.739C93.2418 110.854 92.9762 109.853 92.9766 108.734C92.9769 107.616 93.2426 106.615 93.7735 105.73C94.3048 104.847 95.0726 104.13 95.9898 103.661C96.936 103.164 98.0036 102.916 99.1925 102.916C100.234 102.916 101.169 103.092 101.997 103.443C102.8 103.775 103.511 104.296 104.072 104.961L102.063 106.782C101.308 105.952 100.404 105.536 99.3523 105.536C98.3956 105.536 97.6249 105.826 97.0401 106.407C96.4554 106.988 96.1634 107.764 96.1642 108.734C96.1642 109.353 96.2971 109.904 96.5629 110.389C96.8203 110.865 97.2073 111.258 97.6789 111.523C98.1571 111.795 98.7044 111.931 99.3209 111.93C99.9096 111.934 100.492 111.809 101.027 111.563L101.028 108.495Z" fill="#F8F8F9"/>
<path d="M109.908 111.355H108.187V114.326H105.03V103.141H110.133C111.143 103.141 112.02 103.309 112.764 103.646C113.508 103.984 114.082 104.463 114.486 105.085C114.89 105.708 115.092 106.441 115.092 107.282C115.092 108.092 114.903 108.797 114.526 109.399C114.149 110.001 113.609 110.472 112.907 110.813L115.315 114.329H111.935L109.908 111.355ZM111.407 106.066C111.078 105.778 110.589 105.634 109.94 105.634H108.187V108.91H109.94C110.589 108.91 111.077 108.769 111.407 108.487C111.736 108.205 111.901 107.803 111.901 107.28C111.901 106.759 111.736 106.354 111.407 106.066Z" fill="#F8F8F9"/>
<path d="M118.478 113.8C117.563 113.324 116.797 112.604 116.262 111.721C115.725 110.836 115.457 109.84 115.457 108.732C115.457 107.624 115.725 106.628 116.262 105.744C116.797 104.861 117.563 104.142 118.478 103.665C119.417 103.166 120.477 102.916 121.659 102.916C122.841 102.916 123.901 103.166 124.839 103.667C125.754 104.144 126.521 104.863 127.056 105.747C127.592 106.631 127.861 107.627 127.861 108.734C127.861 109.842 127.593 110.838 127.056 111.723C126.521 112.607 125.754 113.326 124.839 113.803C123.899 114.303 122.839 114.554 121.659 114.554C120.48 114.554 119.419 114.302 118.478 113.8ZM123.189 111.531C123.647 111.264 124.022 110.875 124.273 110.407C124.539 109.923 124.672 109.366 124.672 108.737C124.672 108.109 124.539 107.552 124.273 107.067C124.022 106.6 123.647 106.21 123.189 105.943C122.721 105.681 122.194 105.544 121.658 105.544C121.122 105.544 120.595 105.681 120.128 105.943C119.67 106.21 119.294 106.6 119.043 107.067C118.778 107.553 118.645 108.109 118.645 108.737C118.645 109.365 118.778 109.922 119.043 110.407C119.294 110.875 119.669 111.264 120.128 111.531C120.595 111.793 121.122 111.931 121.658 111.931C122.194 111.931 122.721 111.793 123.189 111.531Z" fill="#F8F8F9"/>
<path d="M145.846 103.141L142.227 114.326H138.847L136.711 107.52L134.478 114.326H131.098L127.479 103.141H130.732L132.98 110.283L135.339 103.141H138.241L140.489 110.347L142.833 103.141H145.846Z" fill="#F8F8F9"/>
<path d="M155.141 111.882V114.326H146.181V103.141H154.934V105.586H149.305V107.471H154.264V109.836H149.305V111.881L155.141 111.882Z" fill="#F8F8F9"/>
<path d="M160.975 111.355H159.255V114.326H156.098V103.141H161.201C162.211 103.141 163.088 103.309 163.832 103.646C164.576 103.984 165.15 104.463 165.554 105.085C165.958 105.708 166.16 106.441 166.16 107.282C166.16 108.092 165.971 108.797 165.594 109.399C165.217 110.001 164.677 110.472 163.975 110.813L166.383 114.329H163.003L160.975 111.355ZM162.475 106.066C162.145 105.778 161.656 105.634 161.007 105.634H159.255V108.91H161.009C161.657 108.91 162.146 108.769 162.476 108.487C162.805 108.205 162.97 107.803 162.97 107.28C162.969 106.759 162.804 106.354 162.475 106.066Z" fill="#F8F8F9"/>
<path d="M168.389 114.213C167.539 113.988 166.847 113.69 166.314 113.318L167.351 110.985C167.889 111.333 168.475 111.602 169.089 111.783C169.719 111.982 170.374 112.084 171.034 112.087C172.246 112.087 172.852 111.784 172.852 111.176C172.852 110.857 172.679 110.62 172.334 110.465C171.988 110.311 171.433 110.148 170.667 109.978C169.954 109.832 169.25 109.637 168.563 109.395C168.003 109.19 167.504 108.846 167.112 108.396C166.708 107.938 166.506 107.32 166.506 106.541C166.5 105.883 166.696 105.239 167.067 104.696C167.441 104.147 167.996 103.713 168.733 103.394C169.47 103.074 170.376 102.914 171.451 102.914C172.181 102.914 172.909 102.997 173.62 103.162C174.28 103.307 174.915 103.552 175.502 103.889L174.529 106.238C173.466 105.662 172.435 105.375 171.436 105.375C170.809 105.375 170.352 105.468 170.065 105.656C169.777 105.843 169.634 106.085 169.634 106.383C169.634 106.682 169.804 106.906 170.144 107.054C170.484 107.201 171.032 107.356 171.786 107.517C172.637 107.698 173.341 107.893 173.899 108.1C174.456 108.307 174.954 108.648 175.35 109.091C175.759 109.544 175.963 110.159 175.964 110.937C175.969 111.588 175.773 112.224 175.403 112.759C175.029 113.302 174.471 113.736 173.729 114.061C172.987 114.386 172.083 114.549 171.019 114.548C170.131 114.55 169.248 114.437 168.389 114.213Z" fill="#F8F8F9"/>
<path d="M75.5944 47.3524C75.5942 47.3515 75.5942 47.3505 75.5944 47.3496V47.3524Z" fill="#F8F8F9"/>
<path d="M119.52 78.2461C119.524 78.3872 119.523 78.3169 119.52 78.2461V78.2461Z" fill="#F8F8F9"/>
<path d="M119.52 78.2463L153.904 79.3092C156.157 79.2929 162.949 78.5628 165.201 78.2525C149.976 77.4859 134.727 77.7989 119.52 78.2463Z" fill="#F8F8F9"/>
<path d="M119.517 78.2464C119.517 78.1751 119.513 78.1038 119.517 78.2464V78.2464Z" fill="#F8F8F9"/>
<path d="M76.8109 0.39536C77.0778 0.345336 76.5434 0.444821 76.8109 0.39536V0.39536Z" fill="#F8F8F9"/>
<path d="M81.5829 46.0977C81.5173 46.1027 81.4533 46.11 81.5829 46.0977V46.0977Z" fill="#F8F8F9"/>
<path d="M81.5833 46.0961C80.2861 32.9219 80.5076 23.9306 78.3771 8.74199C78.0861 6.68315 77.3469 2.42946 76.8108 0.396484C76.8108 29.2415 79.5812 30.93 81.581 46.0967L81.5833 46.0961Z" fill="#F8F8F9"/>
<path d="M81.583 46.0946C81.7081 46.0817 81.6447 46.0907 81.583 46.0946V46.0946Z" fill="#F8F8F9"/>
<path d="M75.5935 47.3498C75.5932 47.3507 75.5932 47.3517 75.5935 47.3526C75.7242 47.3088 75.6585 47.3279 75.5935 47.3498Z" fill="#F8F8F9"/>
<path d="M75.5936 47.3524V47.3496C75.5263 47.371 75.4618 47.3923 75.5936 47.3524Z" fill="#F8F8F9"/>
<path d="M75.5928 47.3501C75.3926 46.5762 75.1806 45.8056 74.9355 45.0457C71.1607 33.3447 68.4761 25.4134 63.5051 12.5394C62.6937 10.4373 60.866 6.16952 59.8823 4.12305C65.1612 27.5779 70.4659 32.9091 75.5922 47.3496L75.5928 47.3501Z" fill="#F8F8F9"/>
<path d="M69.1533 50.0824C69.2458 50.0341 69.1982 50.0588 69.1533 50.0824V50.0824Z" fill="#F8F8F9"/>
<path d="M69.153 50.084C69.107 50.1087 69.0627 50.1374 69.153 50.084V50.084Z" fill="#F8F8F9"/>
<path d="M69.1527 50.0814C68.6171 49.0472 68.0737 48.0175 67.4938 47.0091C61.6182 36.7841 56.7437 27.5157 50.7672 17.348C49.5783 15.3245 45.3189 9.79441 43.5815 7.5293C44.4065 11.4536 62.1622 40.4774 69.1544 50.083L69.1527 50.0814Z" fill="#F8F8F9"/>
<path d="M120.421 20.2957C121.691 18.0559 123.842 12.3813 124.898 10.0195C122.033 12.2678 106.487 39.8302 101.823 50.0148L120.421 20.2957Z" fill="#F8F8F9"/>
<path d="M118.484 71.4141L150.412 64.8852C153.501 64.2107 159.88 62.4683 162.926 61.5977C151.974 61.5797 129.487 67.9366 118.484 71.4141Z" fill="#F8F8F9"/>
<path d="M162.926 61.5977C162.938 61.6376 162.95 61.6775 162.926 61.5977V61.5977Z" fill="#F8F8F9"/>
<path d="M109.6 3.51758L109.631 3.52657L109.6 3.51758Z" fill="#F8F8F9"/>
<path d="M109.599 3.51769L109.543 3.50195L109.599 3.51769Z" fill="#F8F8F9"/>
<path d="M95.3798 47.3123C95.3186 47.2916 95.2596 47.2725 95.3798 47.3123V47.3123Z" fill="#F8F8F9"/>
<path d="M96.0185 44.7342C95.7717 45.5829 95.5698 46.444 95.3774 47.309L107.491 12.5769C108.164 10.4411 109.184 5.73548 109.601 3.51758C108.717 5.51515 106.707 9.19441 106.084 11.274C102.554 23.0464 99.4461 32.9303 96.0185 44.7342Z" fill="#F8F8F9"/>
<path d="M95.3789 47.3086C95.4967 47.3468 95.435 47.3271 95.3789 47.3086V47.3086Z" fill="#F8F8F9"/>
<path d="M109.631 3.52734L109.652 3.53353L109.631 3.52734Z" fill="#F8F8F9"/>
<path d="M132.26 27.8387C133.765 26.1396 137.027 21.439 138.32 19.5488C134.748 21.398 115.408 43.2965 107.631 54.0252L132.26 27.8387Z" fill="#F8F8F9"/>
<path d="M52.2628 72.9586C39.6749 70.2084 36.9315 67.7359 14.6579 63.9858C12.6047 63.6402 10.4675 63.679 8.36841 63.5469C10.2051 64.1904 15.4211 66.2139 17.315 66.568C30.1238 68.964 39.4383 70.6328 52.2628 72.9586Z" fill="#F8F8F9"/>
<path d="M53.2358 64.547C42.0914 59.5413 31.2695 54.8475 20.0803 49.9441C18.0149 49.0391 15.4161 48.3062 13.2351 47.666C30.3117 57.8332 43.2843 61.3725 54.8347 65.3108C54.3064 65.0461 53.7742 64.7892 53.2358 64.547Z" fill="#F8F8F9"/>
<path d="M92.5786 0.0644531L92.6228 0.0678255L92.5786 0.0644531Z" fill="#F8F8F9"/>
<path d="M88.7922 46.0195C88.8795 46.0286 88.8359 46.024 88.7922 46.0195V46.0195Z" fill="#F8F8F9"/>
<path d="M92.8735 10.4924C93.1539 7.5056 92.5785 3.07767 92.5785 0.0644531C92.0917 3.51102 91.4389 6.94353 91.149 10.4064C90.2971 20.5797 89.5518 30.7649 88.8496 40.9511C88.7341 42.6373 88.7588 44.3274 88.7896 46.0209L92.8735 10.4924Z" fill="#F8F8F9"/>
<path d="M88.7917 46.0214C88.7486 46.0158 88.7049 46.0118 88.7917 46.0214V46.0214Z" fill="#F8F8F9"/>
<path d="M116.095 64.9415L150.387 49.5101C152.325 48.6282 155.959 47.2618 157.778 46.1191C147.545 47.8683 125.838 59.3237 116.095 64.9415Z" fill="#F8F8F9"/>
<path d="M116.093 64.9432C116.072 64.8937 116.047 64.8459 116.093 64.9432V64.9432Z" fill="#F8F8F9"/>
<path d="M116.095 64.9414C116.141 65.0381 116.118 64.9898 116.095 64.9414V64.9414Z" fill="#F8F8F9"/>
<path d="M40.226 27.8517C37.1774 24.263 31.1914 19.3213 29.4585 17.8555C41.6213 33.9164 52.3215 43.6227 62.7475 54.6706L40.226 27.8517Z" fill="#F8F8F9"/>
<path d="M21.0671 33.5125L21.084 33.4883L21.0671 33.5125Z" fill="#F8F8F9"/>
<path d="M21.0518 33.5348L21.0675 33.5117L21.0518 33.5348Z" fill="#F8F8F9"/>
<path d="M26.2131 38.613C40.5137 48.9454 51.3283 57.0863 57.9767 60.0017L27.6925 37.436C25.8419 36.1073 23.0816 34.6117 21.0671 33.5117C22.5185 34.9068 24.6053 37.4501 26.2131 38.613Z" fill="#F8F8F9"/>
<path d="M21.043 33.5464L21.048 33.5391L21.043 33.5464Z" fill="#F8F8F9"/>
<path d="M114.402 57.1486C113.682 57.7107 112.992 58.3059 112.31 58.9124L139.42 39.8303C141.631 38.1914 147.165 33.1266 149.239 31.3027C147.257 32.4589 145.128 33.4228 143.317 34.8044C133.632 42.1916 124.019 49.6737 114.402 57.1486Z" fill="#F8F8F9"/>
<path d="M6.78711 80.0401C14.0939 80.8101 21.4208 80.7708 28.7635 80.7528C36.3445 80.7343 43.9754 80.5842 51.5474 80.1717C47.6683 80.1604 6.90937 77.8639 6.78711 80.0401Z" fill="#F8F8F9"/>
<path d="M33.2846 92.6566C40.6312 90.7799 44.5568 90.5062 51.6651 87.8516C47.9581 88.9976 23.2288 92.8798 23.7604 94.9959" fill="#F8F8F9"/>
<path d="M91.4761 46.3801C92.8596 39.6539 95.672 33.1031 96.9754 26.3606C97.1795 25.3061 99.3526 13.1965 99.3526 12.1016C99.0756 12.0791 96.7101 22.3665 96.4431 23.0826C94.4439 30.7615 92.6857 38.5573 91.4761 46.3801Z" fill="#F8F8F9"/>
<path d="M91.4761 46.3809C91.6326 46.4112 91.554 46.3955 91.4761 46.3809V46.3809Z" fill="#F8F8F9"/>
<path d="M91.4759 46.3821C91.3974 46.3642 91.3212 46.3507 91.4759 46.3821V46.3821Z" fill="#F8F8F9"/>
<path d="M71.0212 49.151C71.0909 49.1195 71.0561 49.1352 71.0212 49.151V49.151Z" fill="#F8F8F9"/>
<path d="M71.0216 49.1523C70.9845 49.1675 70.952 49.1827 71.0216 49.1523V49.1523Z" fill="#F8F8F9"/>
<path d="M60.2417 28.3535C63.1579 35.6137 67.2294 42.3202 71.0204 49.1498C68.0078 41.9357 66.9562 37.36 60.2417 28.3535Z" fill="#F8F8F9"/>
<path d="M117.631 31.8398L104.445 51.6076C109.24 45.2956 113.662 38.7212 117.631 31.8398Z" fill="#F8F8F9"/>
<path d="M117.631 31.8398C111.038 38.7532 108.546 44.8117 104.445 51.6076L117.631 31.8398Z" fill="#F8F8F9"/>
<path d="M139.553 59.8477C134.813 59.8477 123.692 64.6814 117.219 67.5013C124.548 65.3761 137.748 61.3692 139.553 59.8477Z" fill="#F8F8F9"/>
<path d="M51.6774 76.4142C44.2596 75.4069 31.033 73.8523 29.3528 74.6307C40.5151 77.0403 44.2063 76.1567 51.6774 76.4142Z" fill="#F8F8F9"/>
<path d="M51.6233 84.3125C44.2571 85.6446 31.1107 87.7782 29.3979 87.0745C40.4447 84.177 44.1707 84.8976 51.6233 84.3125Z" fill="#F8F8F9"/>
<path d="M84.5624 45.8815C84.4879 45.8798 84.4133 45.882 84.5624 45.8815V45.8815Z" fill="#F8F8F9"/>
<path d="M84.5635 45.878C84.7104 45.8763 84.6375 45.8769 84.5635 45.878V45.878Z" fill="#F8F8F9"/>
<path d="M84.5638 45.8798C85.2508 28.7594 85.1807 20.7618 84.1897 18.957C83.0288 27.6752 83.8908 38.9243 84.5632 45.8798H84.5638Z" fill="#F8F8F9"/>
<path d="M148.498 72.9616C139.806 72.2068 126.735 73.8559 119.029 74.8041C126.596 74.8136 146.949 74.1189 148.498 72.9616Z" fill="#F8F8F9"/>
<path d="M134.113 48.9453C127.085 52.5425 120.586 56.9912 114.084 61.3989C120.626 58.0844 129.206 54.0264 134.113 48.9453Z" fill="#F8F8F9"/>
<path d="M19.2471 57.3027C33.6419 64.2054 45.8882 65.999 53.2382 67.7341C46.1092 65.2261 26.7557 58.5129 19.2471 57.3027Z" fill="#F8F8F9"/>
<path d="M60.3336 57.0852L42.3271 42.6543C47.8147 48.0703 54.1933 52.446 60.3336 57.0852Z" fill="#F8F8F9"/>
<path d="M60.3336 57.0852C54.8332 51.0819 50.571 47.2092 42.3271 42.6543L60.3336 57.0852Z" fill="#F8F8F9"/>
<path d="M98.6714 48.4949C102.079 41.3078 104.896 36.2605 107.155 26.2227C103.553 33.3322 101.268 40.9762 98.6714 48.4949Z" fill="#F8F8F9"/>
<path d="M98.6707 48.4956C98.6432 48.4838 98.6162 48.4731 98.6707 48.4956V48.4956Z" fill="#F8F8F9"/>
<path d="M98.6714 48.4961C98.7258 48.5185 98.6983 48.5084 98.6714 48.4961V48.4961Z" fill="#F8F8F9"/>
<path d="M27.8223 47.3321C38.2118 54.7642 48.9962 59.9605 55.8683 63.3087C49.3837 59.1742 29.8109 47.3118 27.8223 47.3321Z" fill="#F8F8F9"/>
<path d="M77.7546 46.7667C76.047 38.949 73.728 23.8689 71.1214 16.584C70.7849 19.07 73.4387 33.5482 77.7546 46.7667Z" fill="#F8F8F9"/>
<path d="M77.7559 46.7656C77.6965 46.7786 77.6376 46.7926 77.7559 46.7656V46.7656Z" fill="#F8F8F9"/>
<path d="M77.7549 46.7651C77.8726 46.7392 77.8137 46.7516 77.7549 46.7651V46.7651Z" fill="#F8F8F9"/>
<path d="M135.631 31.8398C127.748 37.3604 115.162 50.2564 109.708 55.9608C115.657 51.1754 135.125 33.9515 135.631 31.8398Z" fill="#F8F8F9"/>
<path d="M46.543 27.5781C50.9358 34.0289 60.8066 46.7394 65.7787 52.6855C57.9767 39.4376 48.3045 27.9064 46.543 27.5781Z" fill="#F8F8F9"/>
<path d="M65.7791 52.6875C65.7285 52.724 65.6797 52.7589 65.7791 52.6875V52.6875Z" fill="#F8F8F9"/>
<path d="M65.7786 52.6858C65.8766 52.6145 65.8273 52.6499 65.7786 52.6858V52.6858Z" fill="#F8F8F9"/>
<path d="M119.605 94.2713L120.657 95.8912H122.976L119.654 94.2539L119.605 94.2713Z" fill="#F8F8F9"/>
<path d="M156.869 93.8114C156.249 92.8514 155.579 91.9611 155.063 90.8577C154.941 90.5941 154.74 90.4002 154.562 90.2018C153.238 88.7365 151.726 87.6675 150.537 85.9026C150.065 85.2028 149.336 85.0365 148.676 84.7959C148.155 84.6059 147.685 84.7054 147.286 85.2354C146.635 86.1016 145.953 86.4866 145.069 85.9307C144.667 85.6778 144.177 85.7829 143.739 85.9925C142.585 86.5434 141.406 86.9632 140.314 87.8046C139.188 88.6725 137.982 89.1772 136.676 89.0412C136.003 88.9715 135.342 89.0754 134.669 89.307C133.822 89.5993 132.968 89.1266 132.148 88.8467C130.308 88.22 128.497 87.4101 126.67 86.6996C125.964 86.4248 125.286 86.0482 124.723 85.372C122.918 83.2047 120.813 83.1131 118.688 83.624C117.691 83.864 116.838 83.6628 115.94 83.1502C114.558 82.3633 113.227 81.3724 111.766 80.8783C111.002 80.6203 110.223 80.4753 109.493 80.8047C108.077 81.4426 106.726 80.6788 105.343 80.5956C105.063 80.5787 104.857 80.2584 104.68 79.956L104.597 79.739C104.466 79.395 104.411 79.1646 104.138 78.9252C103.854 78.6767 104.006 78.5755 103.858 78.2748C103.64 77.8376 103.338 77.4981 103.124 77.0799C103.073 76.9495 103.02 76.8217 102.965 76.6966C102.965 76.6943 102.965 76.6921 102.965 76.6898C102.758 76.021 102.741 75.4909 102.295 74.9272C102.152 74.7462 101.741 74.5652 101.727 74.373C101.705 74.092 101.641 73.7834 101.451 73.5575C101.049 73.0819 100.469 72.9729 100.469 72.2085C100.469 71.8151 99.7202 71.0394 99.4504 70.7185C99.266 70.5099 99.0591 70.3226 98.8335 70.1598C98.5677 69.7851 98.3011 69.4141 98.0338 69.0469C97.4438 68.2336 96.827 67.5147 95.9274 67.4428C95.2786 67.3911 94.8467 66.5232 94.3757 65.9494C93.6169 65.027 92.8794 64.0383 92.3136 62.8209L92.0842 62.5129L91.944 62.26L91.5795 62.0352L90.3064 63.342C87.9073 65.253 85.4779 67.0729 82.7737 67.8806C80.4951 68.5607 78.3668 69.8119 76.3176 71.3502C74.4625 72.7425 72.4184 73.4462 70.5856 74.9042C70.3204 75.1149 69.9766 75.129 69.6653 75.1942C68.2768 75.4842 66.9258 75.9344 65.6931 76.986C65.3869 77.248 65.0471 77.4391 64.6708 77.4655C63.534 77.5453 62.5773 78.0894 61.7165 78.8768C61.0996 79.1438 60.5489 79.5513 60.1832 80.1504C59.6129 81.0874 58.7879 81.9131 58.3942 82.94C58.2882 83.2154 58.5098 83.547 58.3976 83.7432C58.2798 83.9489 58.1082 84.1647 58.0505 84.3963C57.9114 84.9583 57.7527 85.5092 57.5833 86.0634C57.3326 86.8868 57.0887 88.2065 56.2626 88.6899C55.9323 88.8827 55.2195 89.4919 54.8516 89.4919C54.2347 89.4919 54.1899 89.9978 53.601 90.09C53.163 90.1597 52.4379 90.6127 52.125 90.9269C51.7722 91.281 51.1665 91.53 50.8648 91.8824C50.599 92.1921 50.733 92.3883 50.3388 92.5827C50.0718 92.7154 49.9373 92.8401 49.7247 93.0532C49.5469 93.2313 49.3652 93.4039 49.1835 93.5776C48.9665 93.7838 49.0394 94.0396 48.874 94.2318L48.8599 94.247C48.6435 94.4808 48.1129 94.6966 47.8785 94.8906C47.4775 95.2171 47.2162 95.4712 46.9111 95.8961C47.1024 95.8961 47.3104 95.9214 47.5 95.8961H59.8574L64.4896 89.0192L64.5362 89.0429C63.8834 90.6987 63.2301 92.354 62.5537 94.0677L64.0634 93.2718C63.9659 93.6967 63.8845 94.0587 63.801 94.4184C63.6862 94.9108 63.5707 95.4033 63.4544 95.8961H69.7394C69.8454 95.1272 69.9508 94.3667 70.0557 93.6062L70.1202 93.5883C70.4006 94.351 70.6866 95.1143 70.9765 95.8961H92.6719C92.248 94.9839 91.8167 94.0756 91.3961 93.1616C91.3452 93.0427 91.3274 92.9122 91.3445 92.7839C91.4757 91.8183 91.6154 90.854 91.7634 89.891C91.7799 89.8002 91.7771 89.707 91.7554 89.6174C91.7337 89.5277 91.6934 89.4436 91.6372 89.3705C89.9391 86.9462 88.2457 84.5184 86.5569 82.0873C86.4252 81.8969 86.3264 81.6856 86.2647 81.4623C85.9624 80.3416 85.6786 79.2141 85.3887 78.0899C85.3709 78.0305 85.3751 77.9666 85.4005 77.9101C85.4566 78.0225 85.5126 78.1298 85.5687 78.2389C86.0953 79.2629 86.6023 80.2977 87.1592 81.3049C87.3594 81.6675 87.6701 81.9715 87.9443 82.2897C89.7871 84.4255 91.6307 86.56 93.475 88.6932C93.5579 88.7906 93.6089 88.911 93.6214 89.0384C93.6713 89.8623 93.6971 90.6874 93.7515 91.5114C93.7641 91.6729 93.8286 91.826 93.9354 91.9476C95.1883 93.2688 96.4471 94.5844 97.7119 95.8944H112.772L111.53 95.0238C111.43 94.9563 111.323 94.8976 111.213 94.8484C110.06 94.3137 108.907 93.7795 107.754 93.246C107.647 93.203 107.552 93.1372 107.473 93.0532C106.806 92.187 106.148 91.3181 105.489 90.4497C105.473 90.43 105.463 90.4087 105.424 90.3451C105.994 90.5795 106.497 90.8027 107.024 90.9994C107.495 91.1753 107.865 91.4024 108.159 91.6986C108.562 92.1033 109 92.4928 109.44 92.8823C109.545 92.9687 109.666 93.0317 109.797 93.0672C111.23 93.4794 112.666 93.8863 114.105 94.288L114.299 94.3442C114.294 94.3583 114.289 94.3723 114.285 94.3869H112.74C113.203 94.8917 113.664 95.394 114.122 95.8938H119.948C119.383 95.2568 118.818 94.6198 118.255 93.9828C118.142 93.8572 118.054 93.7103 117.997 93.5506C117.513 92.1128 117.038 90.6738 116.57 89.2334C116.518 89.0726 116.42 88.9737 116.178 88.9018C115.627 88.7377 115.098 88.5432 114.551 88.3751C114.293 88.3012 114.053 88.176 113.844 88.007C113.431 87.6697 113.003 87.3325 112.61 86.9722L113.147 87.1408C114.453 87.5579 115.772 87.9586 116.994 88.4769C117.178 88.555 117.291 88.6404 117.356 88.7753C117.858 89.8069 118.366 90.8373 118.881 91.8667C118.939 91.9771 119.023 92.0715 119.126 92.1415C120.937 93.3942 122.75 94.6461 124.566 95.8972H130.429C130.467 95.737 130.505 95.5768 130.542 95.4172C130.572 95.2885 130.531 95.189 130.415 95.0833C128.717 93.5294 127.024 91.9731 125.335 90.4143C125.211 90.3025 125.111 90.166 125.043 90.0135C124.741 89.2952 124.457 88.5735 124.167 87.853C124.158 87.8344 124.155 87.8138 124.157 87.7934C124.159 87.773 124.166 87.7536 124.179 87.7372C124.235 87.808 124.291 87.8783 124.347 87.9485C124.874 88.605 125.38 89.2682 125.937 89.9157C126.138 90.1479 126.448 90.3429 126.722 90.5469C128.565 91.9157 130.409 93.2834 132.253 94.65C132.329 94.7016 132.382 94.7812 132.4 94.8714C132.432 95.2132 132.456 95.5549 132.48 95.8966H137.023C136.574 94.6562 136.138 93.4129 135.723 92.1623C136.384 92.8986 137.045 93.6355 137.714 94.3813L141.224 93.6062C141.046 93.726 140.919 93.8159 140.784 93.9002C140.144 94.297 139.498 94.6871 138.866 95.0912C138.826 95.1152 138.792 95.1487 138.768 95.1888C138.744 95.2289 138.73 95.2744 138.728 95.3211C138.743 95.5133 138.762 95.705 138.784 95.8966H157.887C157.649 95.0918 157.272 94.4297 156.869 93.8114ZM77.6271 94.6241C77.2316 94.1928 76.8362 93.7619 76.441 93.3314C75.2095 91.9824 73.978 90.6335 72.7464 89.2845C72.6501 89.1826 72.5438 89.0907 72.429 89.0102C71.2765 88.1761 70.1207 87.3471 68.9699 86.5108C68.8544 86.4338 68.7584 86.3308 68.6895 86.2101C68.0222 84.8611 67.3643 83.5037 66.7048 82.1491C66.6897 82.1188 66.6796 82.0856 66.6404 81.9861C67.2101 82.352 67.7132 82.7 68.2398 83.0069C68.7018 83.2715 69.0918 83.646 69.3754 84.0973C69.7781 84.729 70.2166 85.3338 70.6563 85.9436C70.7492 86.0686 70.8721 86.1679 71.0135 86.2325C72.4464 86.8733 73.8849 87.5034 75.3211 88.1362L75.5157 88.2222C75.5106 88.2442 75.5056 88.2666 75.5011 88.2886H73.9561L77.6641 94.5972L77.6271 94.6241ZM88.6246 93.7012C88.9412 94.0305 89.2407 94.3759 89.5219 94.736L80.8725 88.084L80.8237 88.1115C81.7584 90.3598 82.6931 92.608 83.6278 94.8563L83.5801 94.8787C83.4231 94.6033 83.2662 94.3279 83.1096 94.0525C81.896 91.9201 80.6835 89.787 79.4722 87.6534C79.353 87.4428 79.2661 87.2154 79.2142 86.979C78.7304 84.7363 78.2547 82.4918 77.787 80.2454C77.7348 79.9942 77.6367 79.8396 77.3944 79.7272C76.8437 79.4715 76.3148 79.1652 75.7681 78.906C75.4898 78.7741 75.2473 78.5771 75.0609 78.3316C74.6481 77.801 74.2197 77.2834 73.8271 76.7179C74.006 76.8056 74.1849 76.8927 74.3638 76.9815C75.6694 77.6324 76.9884 78.2574 78.2104 79.0657C78.3853 79.1697 78.5148 79.3358 78.5732 79.5311C79.0746 81.1397 79.5829 82.7461 80.0981 84.3502C80.1485 84.5088 80.232 84.6548 80.3431 84.7785C83.1008 87.7552 85.8618 90.7287 88.6263 93.699L88.6246 93.7012ZM92.8306 80.3719L92.0377 78.992C91.3613 77.8151 90.6883 76.6359 90.0053 75.4628C89.9191 75.3205 89.8045 75.1975 89.6688 75.1014C89.0979 74.6928 88.5163 74.2999 87.9415 73.8975C87.8596 73.8413 87.7643 73.7727 87.7267 73.6873C87.1659 72.4035 86.6096 71.1164 86.0533 69.8298L86.097 69.7939L88.278 71.7341C88.2847 71.7403 88.2926 71.7459 88.2987 71.7527C89.0059 72.5862 89.9172 73.0033 90.9906 73.1078C91.294 73.1376 91.5918 73.2275 91.9642 73.3045L90.7158 73.993C91.4348 76.1139 92.1536 78.2334 92.8721 80.3517L92.8306 80.3719ZM104.355 95.1176C103.434 94.2389 102.513 93.3602 101.592 92.4816C100.291 91.239 98.9911 89.9954 97.6923 88.7506C97.6041 88.671 97.5394 88.5687 97.505 88.4549C96.8471 85.6485 96.1972 82.8405 95.5949 80.0077L97.5852 83.4694L101.096 82.261C100.917 82.447 100.791 82.5876 100.656 82.7191C100.016 83.3373 99.3691 83.95 98.7376 84.5767C98.648 84.6745 98.5985 84.8025 98.5991 84.9353C98.6365 85.6285 98.6879 86.3204 98.7533 87.011C98.7723 87.1664 98.8301 87.3145 98.9216 87.4415C100.684 89.9124 102.45 92.3802 104.221 94.845C104.277 94.9271 104.337 95.0136 104.395 95.0935L104.355 95.1176Z" fill="#F8F8F9"/>
</g>
<defs>
<clipPath id="clip0_508:2416">
<rect width="174.968" height="114.493" fill="white" transform="translate(0.995117 0.0585938)"/>
</clipPath>
</defs>
</svg>
