<svg width="174" height="114" viewBox="0 0 174 114" fill="none" xmlns="http://www.w3.org/2000/svg">
<g clip-path="url(#clip0)">
<path d="M62.9123 102.283V113.382H59.7729V109.053H55.4914V113.382H52.3516V102.283H55.4914V106.453H59.7724V102.283H62.9123Z" fill="#F8F8F9"/>
<path d="M64.3398 102.283H67.4797V113.382H64.3398V102.283Z" fill="#F8F8F9"/>
<path d="M68.9219 102.283H72.0618V110.893H77.36V113.382H68.9219V102.283Z" fill="#F8F8F9"/>
<path d="M77.8008 102.283H80.9401V110.893H86.2383V113.382H77.8008V102.283Z" fill="#F8F8F9"/>
<path d="M18.2654 102.283L14.6677 113.382H11.3053L9.18041 106.627L6.96074 113.382H3.59944L0 102.283H3.2347L5.46999 109.372L7.81682 102.283H10.7024L12.9388 109.435L15.2689 102.283H18.2654Z" fill="#F8F8F9"/>
<path d="M18.5977 102.283H21.737V113.382H18.5977V102.283Z" fill="#F8F8F9"/>
<path d="M33.7404 102.283V113.382H31.1549L26.2554 107.47V113.382H23.1797V102.283H25.7652L30.6647 108.195V102.283H33.7404Z" fill="#F8F8F9"/>
<path d="M35.168 102.283H40.416C41.6314 102.283 42.7096 102.511 43.6507 102.965C44.5917 103.419 45.321 104.064 45.8385 104.9C46.3568 105.735 46.6158 106.712 46.6154 107.833C46.615 108.953 46.3561 109.931 45.8385 110.766C45.3206 111.601 44.5913 112.246 43.6507 112.7C42.71 113.155 41.6318 113.382 40.416 113.382H35.168V102.283ZM40.2894 110.877C41.2408 110.877 42.0045 110.608 42.5804 110.068C43.1563 109.529 43.4449 108.784 43.446 107.834C43.446 106.883 43.158 106.138 42.5821 105.598C42.0062 105.059 41.2425 104.789 40.291 104.79H38.3073V110.878L40.2894 110.877Z" fill="#F8F8F9"/>
<path d="M99.4796 107.596H102.254V112.195C101.589 112.664 100.849 113.018 100.066 113.241C99.2637 113.481 98.4306 113.604 97.5929 113.606C96.4299 113.606 95.3835 113.36 94.4536 112.868C93.5478 112.4 92.7901 111.689 92.2652 110.815C91.7364 109.937 91.4723 108.944 91.4727 107.834C91.473 106.724 91.7372 105.73 92.2652 104.853C92.7935 103.976 93.5571 103.265 94.4692 102.8C95.4102 102.307 96.4719 102.06 97.6542 102.06C98.6901 102.06 99.6196 102.235 100.443 102.584C101.241 102.913 101.949 103.429 102.506 104.089L100.509 105.897C99.7579 105.073 98.8594 104.66 97.8132 104.66C96.8617 104.66 96.0953 104.948 95.5138 105.524C94.9323 106.101 94.6419 106.87 94.6426 107.834C94.6426 108.447 94.7748 108.994 95.0392 109.475C95.2951 109.948 95.68 110.338 96.149 110.601C96.6245 110.871 97.1688 111.005 97.7819 111.005C98.3673 111.009 98.9464 110.884 99.4785 110.64L99.4796 107.596Z" fill="#F8F8F9"/>
<path d="M108.312 110.434H106.6V113.382H103.461V102.283H108.536C109.54 102.283 110.412 102.451 111.152 102.785C111.893 103.12 112.463 103.596 112.864 104.213C113.267 104.831 113.468 105.558 113.467 106.393C113.467 107.196 113.28 107.896 112.905 108.493C112.529 109.091 111.993 109.558 111.295 109.897L113.689 113.385H110.328L108.312 110.434ZM109.803 105.186C109.475 104.901 108.989 104.758 108.344 104.758H106.6V108.008H108.344C108.989 108.008 109.475 107.868 109.803 107.588C110.13 107.308 110.294 106.909 110.295 106.391C110.295 105.873 110.131 105.472 109.803 105.186Z" fill="#F8F8F9"/>
<path d="M116.833 112.86C115.923 112.387 115.161 111.674 114.629 110.797C114.095 109.919 113.828 108.931 113.828 107.832C113.828 106.732 114.095 105.744 114.629 104.867C115.161 103.99 115.923 103.276 116.833 102.803C117.767 102.308 118.821 102.06 119.996 102.06C121.172 102.06 122.226 102.309 123.159 102.806C124.069 103.279 124.831 103.992 125.363 104.869C125.897 105.747 126.164 106.735 126.164 107.834C126.164 108.933 125.897 109.921 125.363 110.799C124.831 111.676 124.069 112.39 123.159 112.863C122.224 113.359 121.169 113.608 119.996 113.608C118.823 113.608 117.769 113.359 116.833 112.86ZM121.518 110.609C121.973 110.344 122.346 109.958 122.596 109.494C122.86 109.013 122.992 108.46 122.992 107.837C122.992 107.213 122.86 106.66 122.596 106.18C122.346 105.715 121.973 105.329 121.518 105.064C121.053 104.804 120.528 104.668 119.996 104.668C119.463 104.668 118.938 104.804 118.473 105.064C118.018 105.329 117.645 105.715 117.395 106.18C117.131 106.661 116.999 107.213 116.999 107.837C116.999 108.46 117.131 109.012 117.395 109.494C117.645 109.958 118.018 110.344 118.473 110.609C118.939 110.869 119.463 111.005 119.996 111.005C120.528 111.005 121.052 110.869 121.518 110.609Z" fill="#F8F8F9"/>
<path d="M144.051 102.283L140.451 113.382H137.09L134.966 106.629L132.745 113.382H129.384L125.785 102.283H129.02L131.256 109.371L133.602 102.283H136.488L138.723 109.434L141.054 102.283H144.051Z" fill="#F8F8F9"/>
<path d="M153.293 110.957V113.382H144.383V102.283H153.087V104.709H147.49V106.58H152.422V108.927H147.49V110.956L153.293 110.957Z" fill="#F8F8F9"/>
<path d="M159.096 110.434H157.385V113.382H154.246V102.283H159.321C160.325 102.283 161.197 102.451 161.937 102.785C162.677 103.12 163.248 103.596 163.65 104.213C164.051 104.831 164.252 105.558 164.252 106.393C164.252 107.196 164.064 107.896 163.689 108.493C163.314 109.091 162.778 109.558 162.08 109.897L164.474 113.385H161.113L159.096 110.434ZM160.587 105.186C160.259 104.901 159.773 104.758 159.128 104.758H157.385V108.008H159.129C159.774 108.008 160.26 107.868 160.588 107.588C160.916 107.308 161.08 106.909 161.08 106.391C161.079 105.873 160.915 105.472 160.587 105.186Z" fill="#F8F8F9"/>
<path d="M166.47 113.27C165.624 113.047 164.936 112.751 164.406 112.382L165.437 110.067C165.972 110.413 166.554 110.68 167.166 110.86C167.792 111.056 168.444 111.158 169.1 111.161C170.305 111.161 170.907 110.86 170.907 110.257C170.907 109.941 170.736 109.705 170.392 109.552C170.049 109.398 169.496 109.237 168.735 109.068C168.025 108.924 167.326 108.73 166.643 108.489C166.086 108.286 165.59 107.945 165.2 107.498C164.798 107.044 164.597 106.431 164.597 105.658C164.591 105.005 164.786 104.366 165.155 103.827C165.527 103.283 166.079 102.852 166.812 102.535C167.544 102.218 168.446 102.059 169.515 102.059C170.241 102.059 170.964 102.141 171.672 102.305C172.328 102.449 172.959 102.692 173.543 103.026L172.575 105.357C171.518 104.786 170.493 104.501 169.499 104.501C168.876 104.501 168.421 104.594 168.136 104.78C167.85 104.966 167.707 105.206 167.707 105.501C167.707 105.798 167.876 106.02 168.215 106.167C168.553 106.313 169.098 106.466 169.848 106.627C170.694 106.806 171.394 106.999 171.949 107.205C172.503 107.411 172.998 107.748 173.392 108.188C173.798 108.638 174.002 109.248 174.002 110.02C174.008 110.665 173.813 111.297 173.444 111.827C173.073 112.366 172.518 112.797 171.78 113.12C171.042 113.442 170.143 113.603 169.084 113.603C168.202 113.605 167.323 113.493 166.47 113.27Z" fill="#F8F8F9"/>
<path d="M117.867 77.582C117.871 77.722 117.87 77.6523 117.867 77.582V77.582Z" fill="#F8F8F9"/>
<path d="M117.867 77.582L152.061 78.6366C154.302 78.6204 161.056 77.896 163.295 77.5881C148.155 76.8274 132.99 77.138 117.867 77.582Z" fill="#F8F8F9"/>
<path d="M117.865 77.582C117.865 77.5112 117.861 77.4404 117.865 77.582V77.582Z" fill="#F8F8F9"/>
<path d="M75.3972 0.33458C75.6626 0.284944 75.1312 0.383659 75.3972 0.33458V0.33458Z" fill="#F8F8F9"/>
<path d="M80.1411 45.6817C80.0758 45.6867 80.0122 45.6939 80.1411 45.6817V45.6817Z" fill="#F8F8F9"/>
<path d="M80.1406 45.6802C78.8506 32.6081 79.0709 23.6865 76.9522 8.61556C76.6628 6.57268 75.9277 2.35196 75.3945 0.334736C75.3945 28.9562 78.1496 30.6316 80.1384 45.6807L80.1406 45.6802Z" fill="#F8F8F9"/>
<path d="M80.1406 45.68C80.265 45.6672 80.202 45.6761 80.1406 45.68V45.68Z" fill="#F8F8F9"/>
<path d="M74.1838 46.925C74.1835 46.9259 74.1835 46.9268 74.1838 46.9278C74.3138 46.8843 74.2485 46.9032 74.1838 46.925Z" fill="#F8F8F9"/>
<path d="M74.1855 46.9277V46.9249C74.1186 46.9461 74.0544 46.9673 74.1855 46.9277Z" fill="#F8F8F9"/>
<path d="M74.1861 46.9248C73.987 46.1568 73.7762 45.3922 73.5325 44.6382C69.7785 33.0278 67.1088 25.158 62.1653 12.3838C61.3583 10.2979 59.5407 6.06328 58.5625 4.03267C63.8122 27.3058 69.0875 32.5956 74.1855 46.9242L74.1861 46.9248Z" fill="#F8F8F9"/>
<path d="M67.7812 49.636C67.8733 49.588 67.8259 49.6125 67.7812 49.636V49.636Z" fill="#F8F8F9"/>
<path d="M67.7826 49.6387C67.7368 49.6633 67.6928 49.6917 67.7826 49.6387V49.6387Z" fill="#F8F8F9"/>
<path d="M67.7813 49.6357C67.2487 48.6096 66.7083 47.5879 66.1316 46.5873C60.2885 36.4415 55.4409 27.2449 49.4975 17.156C48.3151 15.1483 44.0793 9.66101 42.3516 7.41345C43.1719 11.3074 60.8295 40.1062 67.783 49.6374L67.7813 49.6357Z" fill="#F8F8F9"/>
<path d="M118.764 20.0801C120.027 17.8576 122.166 12.227 123.216 9.88353C120.367 12.1144 104.907 39.4632 100.27 49.5688L118.764 20.0801Z" fill="#F8F8F9"/>
<path d="M116.84 70.8031L148.592 64.3248C151.664 63.6555 158.008 61.9266 161.036 61.0628C150.145 61.0449 127.782 67.3525 116.84 70.8031Z" fill="#F8F8F9"/>
<path d="M161.035 61.0625C161.047 61.1022 161.059 61.1418 161.035 61.0625V61.0625Z" fill="#F8F8F9"/>
<path d="M108.004 3.43286L108.035 3.44178L108.004 3.43286Z" fill="#F8F8F9"/>
<path d="M108.005 3.43272L107.949 3.41711L108.005 3.43272Z" fill="#F8F8F9"/>
<path d="M93.8623 46.8871C93.8014 46.8665 93.7428 46.8475 93.8623 46.8871V46.8871Z" fill="#F8F8F9"/>
<path d="M94.4968 44.33C94.2514 45.1722 94.0507 46.0266 93.8594 46.8849L105.906 12.422C106.575 10.3027 107.59 5.63357 108.004 3.43286C107.126 5.41495 105.126 9.06569 104.507 11.1292C100.996 22.8104 97.9056 32.6176 94.4968 44.33Z" fill="#F8F8F9"/>
<path d="M93.8633 46.8848C93.9805 46.9227 93.9191 46.9032 93.8633 46.8848V46.8848Z" fill="#F8F8F9"/>
<path d="M108.035 3.44164L108.056 3.44778L108.035 3.44164Z" fill="#F8F8F9"/>
<path d="M130.54 27.5657C132.036 25.8797 135.28 21.2156 136.566 19.3401C133.014 21.1749 113.781 42.9037 106.047 53.5492L130.54 27.5657Z" fill="#F8F8F9"/>
<path d="M50.9837 72.3345C38.4654 69.6057 35.7371 67.1523 13.5867 63.4313C11.5449 63.0883 9.41953 63.1268 7.33203 62.9957C9.15852 63.6343 14.3457 65.642 16.2291 65.9934C28.9671 68.3709 38.2301 70.0267 50.9837 72.3345Z" fill="#F8F8F9"/>
<path d="M51.9514 63.988C40.8686 59.021 30.1066 54.3636 18.9792 49.4982C16.9252 48.6003 14.3408 47.873 12.1719 47.2378C29.154 57.3262 42.0549 60.8381 53.5414 64.7459C53.016 64.4832 52.4868 64.2283 51.9514 63.988Z" fill="#F8F8F9"/>
<path d="M91.0781 0.00525856L91.1221 0.0086048L91.0781 0.00525856Z" fill="#F8F8F9"/>
<path d="M87.3125 45.6048C87.3992 45.6137 87.3559 45.6092 87.3125 45.6048V45.6048Z" fill="#F8F8F9"/>
<path d="M91.372 10.3524C91.6508 7.38874 91.0786 2.99512 91.0786 0.00525856C90.5945 3.42512 89.9454 6.83103 89.657 10.2671C88.8099 20.3615 88.0687 30.4677 87.3704 40.5751C87.2555 42.2482 87.2801 43.9252 87.3107 45.6056L91.372 10.3524Z" fill="#F8F8F9"/>
<path d="M87.3115 45.6059C87.2686 45.6003 87.2251 45.5963 87.3115 45.6059V45.6059Z" fill="#F8F8F9"/>
<path d="M114.461 64.3805L148.564 49.0686C150.49 48.1936 154.104 46.8378 155.914 45.704C145.737 47.4396 124.15 58.8062 114.461 64.3805Z" fill="#F8F8F9"/>
<path d="M114.463 64.3811C114.443 64.332 114.417 64.2845 114.463 64.3811V64.3811Z" fill="#F8F8F9"/>
<path d="M114.461 64.3806C114.507 64.4766 114.484 64.4286 114.461 64.3806V64.3806Z" fill="#F8F8F9"/>
<path d="M39.0126 27.5768C35.981 24.0158 30.028 19.1125 28.3047 17.658C40.4002 33.5944 51.0413 43.2255 61.4096 54.1878L39.0126 27.5768Z" fill="#F8F8F9"/>
<path d="M19.9609 33.1948L19.9777 33.1709L19.9609 33.1948Z" fill="#F8F8F9"/>
<path d="M19.9453 33.2175L19.9609 33.1946L19.9453 33.2175Z" fill="#F8F8F9"/>
<path d="M25.0785 38.2553C39.3 48.5076 50.0548 56.5854 56.6664 59.4783L26.5497 37.0875C24.7092 35.7691 21.9642 34.285 19.9609 33.1936C21.4043 34.5778 23.4795 37.1014 25.0785 38.2553Z" fill="#F8F8F9"/>
<path d="M19.9375 33.2286L19.9425 33.2214L19.9375 33.2286Z" fill="#F8F8F9"/>
<path d="M112.78 56.6467C112.064 57.2045 111.378 57.7951 110.699 58.3968L137.66 39.4627C139.859 37.8364 145.362 32.8109 147.425 31.0012C145.453 32.1484 143.336 33.1048 141.535 34.4757C131.904 41.8056 122.344 49.2298 112.78 56.6467Z" fill="#F8F8F9"/>
<path d="M5.75781 79.3616C13.0242 80.1256 20.3106 80.0866 27.6127 80.0687C35.1518 80.0503 42.7405 79.9014 50.2706 79.4921C46.413 79.4809 5.87939 77.2022 5.75781 79.3616Z" fill="#F8F8F9"/>
<path d="M32.1088 91.8811C39.4148 90.0189 43.3187 89.7473 50.3877 87.1133C46.7012 88.2504 22.1086 92.1025 22.6373 94.2023" fill="#F8F8F9"/>
<path d="M89.9805 45.9623C91.3563 39.2883 94.1532 32.7882 95.4493 26.098C95.6523 25.0517 97.8135 13.0359 97.8135 11.9495C97.538 11.9272 95.1855 22.1349 94.9201 22.8454C92.9319 30.4648 91.1834 38.2002 89.9805 45.9623Z" fill="#F8F8F9"/>
<path d="M89.9805 45.9623C90.1361 45.9925 90.058 45.9768 89.9805 45.9623V45.9623Z" fill="#F8F8F9"/>
<path d="M89.9798 45.9652C89.9018 45.9474 89.8259 45.934 89.9798 45.9652V45.9652Z" fill="#F8F8F9"/>
<path d="M69.6367 48.7123C69.706 48.6811 69.6713 48.6967 69.6367 48.7123V48.7123Z" fill="#F8F8F9"/>
<path d="M69.6383 48.7135C69.6015 48.7286 69.5691 48.7436 69.6383 48.7135V48.7135Z" fill="#F8F8F9"/>
<path d="M58.918 28.0756C61.818 35.2795 65.867 41.934 69.6371 48.7107C66.6411 41.5526 65.5954 37.0123 58.918 28.0756Z" fill="#F8F8F9"/>
<path d="M115.992 31.5345L102.879 51.1491C107.648 44.886 112.045 38.3625 115.992 31.5345Z" fill="#F8F8F9"/>
<path d="M115.992 31.5345C109.435 38.3943 106.957 44.4059 102.879 51.1491L115.992 31.5345Z" fill="#F8F8F9"/>
<path d="M137.792 59.3265C133.079 59.3265 122.019 64.1228 115.582 66.9208C122.871 64.8122 135.997 60.8363 137.792 59.3265Z" fill="#F8F8F9"/>
<path d="M50.4004 75.764C43.0236 74.7646 29.8701 73.222 28.1992 73.9944C39.2998 76.3853 42.9706 75.5086 50.4004 75.764Z" fill="#F8F8F9"/>
<path d="M50.3486 83.6002C43.0231 84.922 29.9493 87.0391 28.2461 86.3408C39.2318 83.4658 42.9372 84.1808 50.3486 83.6002Z" fill="#F8F8F9"/>
<path d="M83.1052 45.4682C83.031 45.4666 82.9568 45.4687 83.1052 45.4682V45.4682Z" fill="#F8F8F9"/>
<path d="M83.1055 45.4652C83.2516 45.4635 83.1791 45.4641 83.1055 45.4652V45.4652Z" fill="#F8F8F9"/>
<path d="M83.1074 45.4655C83.7906 28.4777 83.7208 20.5421 82.7354 18.7513C81.5809 27.4019 82.4381 38.5639 83.1068 45.4655H83.1074Z" fill="#F8F8F9"/>
<path d="M146.689 72.3371C138.044 71.5881 125.046 73.2245 117.383 74.1653C124.908 74.1748 145.148 73.4855 146.689 72.3371Z" fill="#F8F8F9"/>
<path d="M132.382 48.5075C125.393 52.0769 118.93 56.4911 112.465 60.8647C118.97 57.5759 127.503 53.5492 132.382 48.5075Z" fill="#F8F8F9"/>
<path d="M18.1523 56.8008C32.4676 63.65 44.6462 65.4297 51.9555 67.1513C44.8659 64.6628 25.6195 58.0016 18.1523 56.8008Z" fill="#F8F8F9"/>
<path d="M59.0084 56.5854L41.1016 42.2663C46.5587 47.6404 52.9021 51.9821 59.0084 56.5854Z" fill="#F8F8F9"/>
<path d="M59.0084 56.5854C53.5384 50.6286 49.2998 46.786 41.1016 42.2663L59.0084 56.5854Z" fill="#F8F8F9"/>
<path d="M97.1367 48.0615C100.525 40.9301 103.327 35.9219 105.574 25.9618C101.991 33.0163 99.7189 40.6011 97.1367 48.0615Z" fill="#F8F8F9"/>
<path d="M97.1368 48.0621C97.1095 48.0505 97.0827 48.0399 97.1368 48.0621V48.0621Z" fill="#F8F8F9"/>
<path d="M97.1367 48.0621C97.1908 48.0844 97.1635 48.0744 97.1367 48.0621V48.0621Z" fill="#F8F8F9"/>
<path d="M26.6797 46.9071C37.0118 54.2817 47.7365 59.4377 54.5706 62.7599C48.1219 58.6574 28.6573 46.887 26.6797 46.9071Z" fill="#F8F8F9"/>
<path d="M76.3359 46.3453C74.6377 38.5882 72.3316 23.6249 69.7394 16.3965C69.4048 18.8632 72.0438 33.2292 76.3359 46.3453Z" fill="#F8F8F9"/>
<path d="M76.3376 46.3454C76.2784 46.3582 76.2199 46.3721 76.3376 46.3454V46.3454Z" fill="#F8F8F9"/>
<path d="M76.3359 46.3453C76.453 46.3196 76.3944 46.3319 76.3359 46.3453V46.3453Z" fill="#F8F8F9"/>
<path d="M133.893 31.5345C126.054 37.0123 113.537 49.8084 108.113 55.4685C114.029 50.7202 133.39 33.6298 133.893 31.5345Z" fill="#F8F8F9"/>
<path d="M45.2969 27.3065C49.6654 33.7073 59.4816 46.3193 64.4262 52.2192C56.6674 39.0741 47.0486 27.6322 45.2969 27.3065Z" fill="#F8F8F9"/>
<path d="M64.4245 52.2208C64.3743 52.257 64.3257 52.2916 64.4245 52.2208V52.2208Z" fill="#F8F8F9"/>
<path d="M64.4258 52.2191C64.5233 52.1483 64.4743 52.1834 64.4258 52.2191V52.2191Z" fill="#F8F8F9"/>
<path d="M117.953 93.4835L118.999 95.0908H121.305L118.002 93.4662L117.953 93.4835Z" fill="#F8F8F9"/>
<path d="M155.014 93.0257C154.397 92.0731 153.731 91.1897 153.218 90.095C153.096 89.8334 152.897 89.641 152.72 89.4441C151.403 87.9902 149.899 86.9294 148.717 85.1782C148.248 84.4839 147.522 84.3188 146.866 84.0801C146.349 83.8916 145.881 83.9903 145.484 84.5162C144.836 85.3756 144.158 85.7577 143.279 85.2061C142.88 84.9551 142.392 85.0594 141.956 85.2674C140.809 85.814 139.636 86.2306 138.551 87.0655C137.43 87.9266 136.231 88.4274 134.932 88.2924C134.263 88.2233 133.605 88.3265 132.937 88.5562C132.095 88.8463 131.245 88.3772 130.43 88.0995C128.6 87.4776 126.799 86.674 124.982 85.969C124.28 85.6963 123.605 85.3227 123.045 84.6517C121.251 82.5012 119.157 82.4103 117.044 82.9173C116.052 83.1554 115.204 82.9557 114.312 82.4471C112.937 81.6663 111.613 80.6831 110.161 80.1929C109.401 79.9369 108.626 79.793 107.9 80.1198C106.492 80.7528 105.148 79.9949 103.773 79.9123C103.494 79.8956 103.29 79.5777 103.114 79.2777L103.031 79.0624C102.901 78.7211 102.846 78.4924 102.575 78.2548C102.292 78.0083 102.443 77.9079 102.296 77.6096C102.079 77.1757 101.779 76.8388 101.566 76.4239C101.516 76.2945 101.463 76.1677 101.408 76.0435C101.408 76.0413 101.408 76.0391 101.408 76.0368C101.202 75.3732 101.185 74.8472 100.742 74.2879C100.6 74.1083 100.191 73.9287 100.177 73.738C100.155 73.4591 100.091 73.1529 99.9022 72.9287C99.5028 72.4569 98.9262 72.3487 98.9262 71.5902C98.9262 71.1998 98.1811 70.4302 97.9128 70.1118C97.7295 69.9048 97.5237 69.7189 97.2993 69.5574C97.035 69.1856 96.7699 68.8175 96.504 68.4531C95.9173 67.6461 95.3039 66.9328 94.4093 66.8614C93.764 66.8101 93.3346 65.949 92.8661 65.3796C92.1115 64.4644 91.3782 63.4834 90.8154 62.2754L90.5873 61.9698L90.4479 61.7188L90.0854 61.4957L88.8194 62.7924C86.4335 64.6886 84.0175 66.4945 81.3283 67.2959C79.0623 67.9707 76.9458 69.2122 74.908 70.7386C73.0631 72.1201 71.0302 72.8183 69.2077 74.265C68.9439 74.4741 68.602 74.4881 68.2925 74.5528C66.9116 74.8406 65.5681 75.2873 64.3422 76.3307C64.0377 76.5906 63.6997 76.7803 63.3255 76.8065C62.195 76.8857 61.2436 77.4255 60.3875 78.2069C59.774 78.4718 59.2264 78.8761 58.8628 79.4706C58.2956 80.4003 57.4752 81.2196 57.0837 82.2385C56.9783 82.5118 57.1986 82.8409 57.087 83.0355C56.9699 83.2396 56.7992 83.4538 56.7418 83.6836C56.6035 84.2413 56.4456 84.7878 56.2772 85.3377C56.0279 86.1548 55.7853 87.4643 54.9638 87.9439C54.6353 88.1352 53.9265 88.7397 53.5606 88.7397C52.9472 88.7397 52.9025 89.2417 52.3169 89.3331C51.8814 89.4023 51.1603 89.8518 50.8491 90.1636C50.4983 90.5149 49.8959 90.762 49.5959 91.1117C49.3315 91.419 49.4648 91.6136 49.0728 91.8066C48.8073 91.9382 48.6734 92.062 48.4621 92.2734C48.2853 92.4502 48.1046 92.6214 47.9239 92.7937C47.7081 92.9984 47.7806 93.2521 47.616 93.4429L47.6021 93.4579C47.3868 93.6899 46.8592 93.9041 46.6261 94.0965C46.2273 94.4205 45.9675 94.6726 45.6641 95.0942C45.8542 95.0942 46.0611 95.1193 46.2497 95.0942H58.5387L63.1454 88.2707L63.1917 88.2941C62.5425 89.9371 61.8928 91.5796 61.2202 93.28L62.7215 92.4903C62.6245 92.9119 62.5436 93.2711 62.4605 93.628C62.3464 94.1166 62.2315 94.6053 62.1159 95.0942H68.3661C68.4715 94.3313 68.5763 93.5767 68.6806 92.8221L68.7448 92.8043C69.0236 93.5611 69.308 94.3185 69.5964 95.0942H91.1718C90.7502 94.1891 90.3213 93.2878 89.903 92.381C89.8524 92.263 89.8347 92.1335 89.8517 92.0062C89.9822 91.0481 90.1211 90.0912 90.2683 89.1357C90.2847 89.0456 90.282 88.9531 90.2603 88.8642C90.2387 88.7752 90.1987 88.6918 90.1428 88.6193C88.4541 86.2137 86.77 83.8048 85.0906 81.3925C84.9596 81.2035 84.8614 80.9939 84.8 80.7723C84.4994 79.6603 84.2172 78.5415 83.9289 77.4261C83.9111 77.3671 83.9153 77.3037 83.9406 77.2476C83.9964 77.3592 84.0521 77.4657 84.1079 77.5739C84.6316 78.59 85.1358 79.6168 85.6896 80.6162C85.8887 80.9759 86.1976 81.2776 86.4703 81.5933C88.303 83.7126 90.1363 85.8305 91.9704 87.9472C92.0528 88.0438 92.1036 88.1633 92.116 88.2897C92.1656 89.1073 92.1913 89.926 92.2454 90.7436C92.2579 90.9038 92.3221 91.0557 92.4283 91.1764C93.6742 92.4873 94.9261 93.7927 96.1839 95.0926H111.161L109.926 94.2287C109.826 94.1618 109.72 94.1035 109.61 94.0547C108.464 93.5241 107.317 92.9941 106.17 92.4647C106.064 92.422 105.969 92.3567 105.891 92.2734C105.228 91.4139 104.574 90.5517 103.918 89.6901C103.903 89.6705 103.893 89.6493 103.854 89.5863C104.42 89.8189 104.92 90.0403 105.444 90.2355C105.913 90.4101 106.281 90.6354 106.573 90.9293C106.974 91.3308 107.41 91.7173 107.847 92.1038C107.951 92.1895 108.072 92.2521 108.202 92.2873C109.628 92.6963 111.056 93.1001 112.486 93.4986L112.68 93.5544C112.675 93.5684 112.67 93.5823 112.665 93.5968H111.129C111.589 94.0976 112.048 94.596 112.503 95.092H118.297C117.735 94.4599 117.174 93.8279 116.614 93.1958C116.501 93.0711 116.414 92.9254 116.357 92.7669C115.876 91.3403 115.403 89.9124 114.938 88.4832C114.886 88.3237 114.788 88.2255 114.548 88.1541C114 87.9913 113.474 87.7983 112.93 87.6316C112.674 87.5582 112.434 87.434 112.227 87.2663C111.816 86.9316 111.39 86.597 111 86.2395L111.534 86.4068C112.832 86.8207 114.144 87.2183 115.359 87.7325C115.542 87.81 115.655 87.8948 115.72 88.0287C116.218 89.0522 116.724 90.0747 117.236 91.096C117.294 91.2056 117.377 91.2993 117.48 91.3688C119.281 92.6117 121.084 93.8539 122.89 95.0954H128.721C128.758 94.9364 128.795 94.7775 128.832 94.6191C128.863 94.4914 128.821 94.3927 128.707 94.2878C127.018 92.7459 125.334 91.2016 123.654 89.6549C123.531 89.544 123.432 89.4086 123.364 89.2573C123.063 88.5445 122.781 87.8284 122.493 87.1135C122.484 87.0951 122.48 87.0746 122.482 87.0544C122.485 87.0341 122.492 87.0148 122.504 86.9986C122.56 87.0688 122.616 87.1385 122.672 87.2083C123.195 87.8597 123.699 88.5178 124.253 89.1602C124.452 89.3906 124.761 89.5841 125.034 89.7866C126.867 91.1448 128.7 92.5018 130.534 93.8578C130.61 93.909 130.662 93.988 130.68 94.0775C130.712 94.4166 130.736 94.7557 130.76 95.0948H135.277C134.831 93.8639 134.397 92.6303 133.985 91.3894C134.642 92.12 135.299 92.8511 135.965 93.5912L139.455 92.8221C139.278 92.9409 139.152 93.0302 139.017 93.1138C138.381 93.5076 137.739 93.8946 137.11 94.2956C137.07 94.3194 137.037 94.3527 137.013 94.3925C136.989 94.4323 136.975 94.4773 136.973 94.5237C136.989 94.7144 137.007 94.9046 137.029 95.0948H156.026C155.789 94.2962 155.415 93.6392 155.014 93.0257ZM76.2102 93.8322C75.8168 93.4042 75.4237 92.9766 75.0307 92.5494C73.8059 91.2109 72.5812 89.8724 71.3565 88.5339C71.2607 88.4328 71.1549 88.3416 71.0408 88.2618C69.8947 87.4341 68.7453 86.6115 67.6009 85.7817C67.486 85.7053 67.3905 85.6031 67.322 85.4833C66.6584 84.1448 66.0042 82.7979 65.3483 81.4538C65.3333 81.4237 65.3232 81.3908 65.2842 81.2921C65.8508 81.6552 66.3511 82.0004 66.8748 82.3049C67.3342 82.5675 67.722 82.9391 68.0041 83.3869C68.4045 84.0137 68.8407 84.6138 69.2779 85.2189C69.3703 85.3429 69.4925 85.4415 69.6332 85.5056C71.0581 86.1414 72.4886 86.7666 73.9169 87.3945L74.1105 87.4799C74.1054 87.5016 74.1004 87.5239 74.096 87.5457H72.5595L76.247 93.8054L76.2102 93.8322ZM87.1468 92.9164C87.4617 93.2431 87.7596 93.5858 88.0392 93.9431L79.4377 87.3427L79.3891 87.37C80.3186 89.6008 81.2482 91.8317 82.1777 94.0625L82.1303 94.0848C81.9741 93.8115 81.8181 93.5382 81.6624 93.265C80.4555 91.149 79.2497 89.0325 78.0451 86.9155C77.9266 86.7065 77.8401 86.4809 77.7885 86.2462C77.3074 84.021 76.8343 81.7939 76.3692 79.5649C76.3173 79.3156 76.2197 79.1622 75.9788 79.0507C75.4311 78.7969 74.9052 78.493 74.3614 78.2359C74.0847 78.105 73.8435 77.9095 73.6581 77.6659C73.2477 77.1394 72.8216 76.6258 72.4312 76.0647C72.6091 76.1517 72.787 76.2382 72.9649 76.3263C74.2633 76.9721 75.575 77.5923 76.7902 78.3943C76.9642 78.4975 77.0929 78.6623 77.1511 78.856C77.6497 80.4522 78.1551 82.0461 78.6675 83.6378C78.7176 83.7952 78.8007 83.94 78.9112 84.0628C81.6536 87.0164 84.3994 89.9669 87.1485 92.9142L87.1468 92.9164ZM91.3296 79.6904L90.541 78.3212C89.8685 77.1534 89.1992 75.9833 88.5199 74.8194C88.4342 74.6781 88.3203 74.5561 88.1853 74.4608C87.6175 74.0553 87.0392 73.6655 86.4676 73.2661C86.3861 73.2104 86.2913 73.1423 86.254 73.0576C85.6962 71.7838 85.143 70.5066 84.5898 69.23L84.6333 69.1943L86.8022 71.1195C86.8089 71.1257 86.8167 71.1312 86.8228 71.1379C87.5261 71.965 88.4324 72.3788 89.4998 72.4826C89.8015 72.5121 90.0977 72.6014 90.468 72.6778L89.2265 73.361C89.9415 75.4654 90.6563 77.5685 91.3709 79.6703L91.3296 79.6904ZM102.791 94.3218C101.874 93.4499 100.958 92.5781 100.042 91.7062C98.7486 90.4733 97.456 89.2392 96.1644 88.0041C96.0768 87.9251 96.0124 87.8237 95.9781 87.7108C95.3239 84.9261 94.6776 82.1398 94.0786 79.329L96.0579 82.7639L99.5491 81.5648C99.3718 81.7494 99.2457 81.8889 99.1113 82.0194C98.475 82.6328 97.8319 83.2407 97.204 83.8626C97.1148 83.9596 97.0656 84.0867 97.0662 84.2184C97.1034 84.9062 97.1545 85.5928 97.2196 86.278C97.2384 86.4322 97.296 86.5792 97.3869 86.7052C99.1396 89.1569 100.896 91.6056 102.657 94.0513C102.712 94.1328 102.773 94.2187 102.83 94.2978L102.791 94.3218Z" fill="#F8F8F9"/>
</g>
<defs>
<clipPath id="clip0">
<rect width="174" height="113.605" fill="white"/>
</clipPath>
</defs>
</svg>
