<svg width="100" height="66" viewBox="0 0 100 66" fill="none" xmlns="http://www.w3.org/2000/svg">
<g clip-path="url(#clip0)">
<path d="M36.1568 58.7836V65.1619H34.3526V62.6741H31.8919V65.1619H30.0874V58.7836H31.8919V61.1801H34.3522V58.7836H36.1568Z" fill="#F8F8F9"/>
<path d="M36.9766 58.7836H38.7811V65.1619H36.9766V58.7836Z" fill="#F8F8F9"/>
<path d="M39.6099 58.7836H41.4144V63.7315H44.4593V65.1619H39.6099V58.7836Z" fill="#F8F8F9"/>
<path d="M44.7129 58.7836H46.5171V63.7315H49.5621V65.1619H44.7129V58.7836Z" fill="#F8F8F9"/>
<path d="M10.4974 58.7836L8.4297 65.1619H6.49728L5.2761 61.2801L4.00042 65.1619H2.06864L0 58.7836H1.85902L3.14367 62.8574L4.49242 58.7836H6.1508L7.43609 62.8939L8.77522 58.7836H10.4974Z" fill="#F8F8F9"/>
<path d="M10.6885 58.7836H12.4927V65.1619H10.6885V58.7836Z" fill="#F8F8F9"/>
<path d="M19.3916 58.7836V65.1619H17.9057L15.0899 61.7644V65.1619H13.3223V58.7836H14.8082L17.624 62.1811V58.7836H19.3916Z" fill="#F8F8F9"/>
<path d="M20.2109 58.7836H23.227C23.9255 58.7836 24.5452 58.9141 25.086 59.1752C25.6269 59.4364 26.046 59.807 26.3434 60.2871C26.6413 60.7671 26.7901 61.3289 26.7899 61.9728C26.7897 62.6166 26.6409 63.1786 26.3434 63.6587C26.0458 64.1384 25.6267 64.5089 25.086 64.7703C24.5454 65.0316 23.9258 65.1623 23.227 65.1623H20.2109V58.7836ZM23.1543 63.7225C23.7011 63.7225 24.14 63.5676 24.471 63.2577C24.802 62.9479 24.9678 62.5198 24.9684 61.9734C24.9684 61.427 24.8029 60.9988 24.4719 60.6887C24.1409 60.3787 23.702 60.2238 23.1552 60.224H22.0151V63.7231L23.1543 63.7225Z" fill="#F8F8F9"/>
<path d="M57.1725 61.8369H58.7671V64.4796C58.3847 64.7494 57.9596 64.9527 57.5097 65.0809C57.0484 65.2188 56.5696 65.2894 56.0882 65.2905C55.4198 65.2905 54.8184 65.1493 54.284 64.8668C53.7634 64.5977 53.3279 64.1891 53.0263 63.6866C52.7224 63.1824 52.5706 62.6113 52.5708 61.9735C52.571 61.3356 52.7228 60.7646 53.0263 60.2603C53.3299 59.7563 53.7688 59.3476 54.2929 59.0804C54.8338 58.7971 55.4439 58.6554 56.1234 58.6554C56.7187 58.6554 57.2529 58.7556 57.726 58.9561C58.185 59.1453 58.5917 59.4421 58.9119 59.8215L57.7638 60.8603C57.3324 60.3866 56.8161 60.1496 56.2148 60.1494C55.668 60.1494 55.2275 60.315 54.8933 60.6462C54.5591 60.9774 54.3922 61.4198 54.3926 61.9735C54.3926 62.326 54.4686 62.6405 54.6205 62.9168C54.7676 63.1884 54.9888 63.4127 55.2583 63.5636C55.5316 63.7187 55.8445 63.7962 56.1968 63.7959C56.5332 63.7982 56.8661 63.7266 57.1718 63.5863L57.1725 61.8369Z" fill="#F8F8F9"/>
<path d="M62.2477 63.468H61.2637V65.1619H59.4595V58.7836H62.3762C62.9531 58.7836 63.4543 58.8797 63.8798 59.072C64.3052 59.2644 64.6332 59.5378 64.8638 59.8923C65.095 60.2478 65.2105 60.6655 65.2103 61.1452C65.2103 61.6069 65.1025 62.0094 64.8869 62.3526C64.6712 62.6957 64.3629 62.9646 63.9618 63.159L65.3378 65.1639H63.406L62.2477 63.468ZM63.1041 60.4519C62.9161 60.2878 62.6367 60.2057 62.266 60.2057H61.2637V62.0737H62.266C62.6365 62.0737 62.9159 61.9933 63.1041 61.8324C63.2924 61.6715 63.3866 61.4421 63.3868 61.1442C63.3868 60.8468 63.2926 60.616 63.1041 60.4519V60.4519Z" fill="#F8F8F9"/>
<path d="M67.1454 64.8623C66.6226 64.5904 66.1845 64.1802 65.8787 63.6764C65.5719 63.1721 65.4185 62.604 65.4185 61.9722C65.4185 61.3403 65.5719 60.7724 65.8787 60.2683C66.1845 59.7645 66.6226 59.3543 67.1454 59.0824C67.682 58.7977 68.288 58.6554 68.9634 58.6554C69.6389 58.6554 70.2448 58.7982 70.7811 59.0836C71.304 59.3555 71.7422 59.7657 72.0478 60.2696C72.3544 60.7739 72.5079 61.3418 72.5081 61.9735C72.5083 62.6051 72.3549 63.1732 72.0478 63.6777C71.7422 64.1815 71.304 64.5918 70.7811 64.8636C70.2435 65.1491 69.6376 65.2918 68.9634 65.2918C68.2893 65.2918 67.6833 65.1487 67.1454 64.8623ZM69.8378 63.5684C70.0996 63.4161 70.3141 63.1942 70.4574 62.9273C70.6093 62.651 70.6853 62.3336 70.6853 61.9751C70.6853 61.6165 70.6093 61.2991 70.4574 61.0228C70.314 60.756 70.0996 60.5341 69.8378 60.3818C69.5704 60.2323 69.2692 60.1539 68.9629 60.1539C68.6566 60.1539 68.3555 60.2323 68.0881 60.3818C67.8263 60.5341 67.6119 60.756 67.4685 61.0228C67.3166 61.2995 67.2406 61.6169 67.2406 61.9751C67.2406 62.3332 67.3166 62.6506 67.4685 62.9273C67.6118 63.1942 67.8263 63.4161 68.0881 63.5684C68.3555 63.7177 68.6567 63.796 68.9629 63.796C69.2692 63.796 69.5704 63.7177 69.8378 63.5684V63.5684Z" fill="#F8F8F9"/>
<path d="M82.7869 58.7836L80.7183 65.1619H78.7865L77.566 61.2811L76.2897 65.1619H74.3579L72.2896 58.7836H74.1486L75.4335 62.8568L76.782 58.7836H78.4404L79.725 62.8933L81.0648 58.7836H82.7869Z" fill="#F8F8F9"/>
<path d="M88.0995 63.7686V65.1619H82.9785V58.7836H87.9812V60.1778H84.7645V61.2529H87.5985V62.6016H84.7645V63.768L88.0995 63.7686Z" fill="#F8F8F9"/>
<path d="M91.4345 63.468H90.4512V65.1619H88.647V58.7836H91.5637C92.1407 58.7836 92.6417 58.8797 93.067 59.072C93.4922 59.2644 93.8203 59.5378 94.0513 59.8923C94.2821 60.2478 94.3975 60.6655 94.3975 61.1452C94.3975 61.6069 94.2896 62.0094 94.074 62.3526C93.8584 62.6957 93.5501 62.9646 93.149 63.159L94.525 65.1639H92.5932L91.4345 63.468ZM92.2913 60.4519C92.1028 60.2878 91.8233 60.2057 91.4528 60.2057H90.4512V62.0737H91.4535C91.824 62.0737 92.1035 61.9933 92.2919 61.8324C92.4804 61.6715 92.5745 61.4421 92.5743 61.1442C92.5739 60.8468 92.4796 60.616 92.2913 60.4519V60.4519Z" fill="#F8F8F9"/>
<path d="M95.6718 65.0978C95.1854 64.9696 94.7901 64.7995 94.4858 64.5875L95.0782 63.257C95.3858 63.4558 95.7204 63.6092 96.0718 63.7125C96.4316 63.8255 96.8062 63.884 97.1833 63.8859C97.8759 63.8859 98.2221 63.7127 98.2221 63.3663C98.2221 63.1843 98.1234 63.0491 97.926 62.9609C97.7285 62.8726 97.4111 62.78 96.9737 62.683C96.5657 62.5999 96.1639 62.4887 95.7711 62.3503C95.4512 62.2333 95.1659 62.0374 94.9419 61.7807C94.7107 61.5198 94.5952 61.1672 94.5955 60.723C94.5919 60.3477 94.7038 59.9803 94.916 59.6707C95.1297 59.3579 95.4471 59.1104 95.8682 58.9281C96.2894 58.7458 96.8073 58.6547 97.4218 58.6547C97.839 58.6544 98.2548 58.7019 98.6613 58.796C99.0387 58.8788 99.4013 59.0185 99.7366 59.2105L99.1805 60.5499C98.5732 60.2219 97.984 60.0579 97.4128 60.0579C97.0545 60.0579 96.7933 60.1113 96.6292 60.2182C96.4651 60.325 96.383 60.4632 96.383 60.6326C96.383 60.8036 96.4802 60.9311 96.6747 61.0153C96.8691 61.0995 97.182 61.1876 97.6132 61.2797C98.0995 61.3829 98.502 61.4937 98.8206 61.6121C99.1389 61.7303 99.4236 61.9243 99.6501 62.1772C99.8836 62.4355 100.001 62.7864 100.001 63.2298C100.004 63.6009 99.8919 63.9638 99.6802 64.2686C99.4665 64.5782 99.1476 64.8258 98.7234 65.0112C98.2993 65.1967 97.7829 65.2893 97.1744 65.2891C96.6674 65.2902 96.1623 65.2259 95.6718 65.0978V65.0978Z" fill="#F8F8F9"/>
<path d="M55.8247 27.6224L55.8255 27.6216L55.8247 27.6224Z" fill="#F8F8F9"/>
<path d="M67.7407 44.5873C67.7432 44.6678 67.7423 44.6277 67.7407 44.5873V44.5873Z" fill="#F8F8F9"/>
<path d="M67.7407 44.5873L87.3922 45.1935C88.68 45.1842 92.5619 44.7678 93.8488 44.5909C85.1473 44.1537 76.432 44.3322 67.7407 44.5873Z" fill="#F8F8F9"/>
<path d="M67.7398 44.5873C67.7398 44.5467 67.7375 44.506 67.7398 44.5873V44.5873Z" fill="#F8F8F9"/>
<path d="M43.3313 0.192288C43.4838 0.163761 43.1784 0.220494 43.3313 0.192288V0.192288Z" fill="#F8F8F9"/>
<path d="M46.059 26.2539C46.0215 26.2567 45.985 26.2609 46.059 26.2539V26.2539Z" fill="#F8F8F9"/>
<path d="M46.0587 26.253C45.3173 18.7403 45.4439 13.6129 44.2263 4.95147C44.0599 3.7774 43.6375 1.3517 43.3311 0.192375C43.3311 16.6415 44.9144 17.6044 46.0574 26.2533L46.0587 26.253Z" fill="#F8F8F9"/>
<path d="M46.0591 26.2529C46.1306 26.2455 46.0943 26.2507 46.0591 26.2529V26.2529Z" fill="#F8F8F9"/>
<path d="M42.6354 26.9684C42.6352 26.9689 42.6352 26.9694 42.6354 26.97C42.7101 26.945 42.6726 26.9559 42.6354 26.9684Z" fill="#F8F8F9"/>
<path d="M42.6355 26.97V26.9684C42.5971 26.9805 42.5602 26.9927 42.6355 26.97Z" fill="#F8F8F9"/>
<path d="M42.6353 26.9683C42.5209 26.5269 42.3997 26.0875 42.2597 25.6541C40.1022 18.9815 38.5679 14.4586 35.7268 7.11711C35.263 5.91836 34.2184 3.48464 33.6562 2.31763C36.6733 15.693 39.7051 18.7331 42.635 26.9679L42.6353 26.9683Z" fill="#F8F8F9"/>
<path d="M38.9546 28.5264C39.0075 28.4988 38.9802 28.5129 38.9546 28.5264V28.5264Z" fill="#F8F8F9"/>
<path d="M38.9547 28.528C38.9285 28.5421 38.9031 28.5584 38.9547 28.528V28.528Z" fill="#F8F8F9"/>
<path d="M38.9546 28.5263C38.6485 27.9365 38.338 27.3493 38.0065 26.7743C34.6484 20.9434 31.8625 15.658 28.4467 9.85979C27.7672 8.70591 25.3328 5.5523 24.3398 4.2606C24.8113 6.49848 34.9593 23.0496 38.9556 28.5273L38.9546 28.5263Z" fill="#F8F8F9"/>
<path d="M68.2561 11.5403C68.9821 10.263 70.2113 7.02702 70.8148 5.68019C69.1773 6.96228 60.2924 22.68 57.627 28.4878L68.2561 11.5403Z" fill="#F8F8F9"/>
<path d="M67.1494 40.6914L85.3976 36.9683C87.1631 36.5836 90.809 35.59 92.5497 35.0935C86.2903 35.0833 73.438 38.7084 67.1494 40.6914Z" fill="#F8F8F9"/>
<path d="M92.5493 35.0934C92.5564 35.1162 92.5631 35.1389 92.5493 35.0934V35.0934Z" fill="#F8F8F9"/>
<path d="M62.0713 1.97291L62.089 1.97803L62.0713 1.97291Z" fill="#F8F8F9"/>
<path d="M62.0716 1.97283L62.0396 1.96385L62.0716 1.97283Z" fill="#F8F8F9"/>
<path d="M53.9437 26.9466C53.9087 26.9347 53.875 26.9239 53.9437 26.9466V26.9466Z" fill="#F8F8F9"/>
<path d="M54.3092 25.477C54.1682 25.961 54.0528 26.4521 53.9429 26.9453L60.8662 7.13906C61.2508 5.92108 61.8338 3.23768 62.072 1.97291C61.5671 3.11204 60.4181 5.21017 60.0623 6.3961C58.0443 13.1094 56.2683 18.7458 54.3092 25.477Z" fill="#F8F8F9"/>
<path d="M53.9438 26.9453C54.0112 26.9671 53.9759 26.9558 53.9438 26.9453V26.9453Z" fill="#F8F8F9"/>
<path d="M62.0889 1.97796L62.1007 1.98148L62.0889 1.97796Z" fill="#F8F8F9"/>
<path d="M75.0221 15.8423C75.8824 14.8734 77.7465 12.1929 78.4856 11.115C76.4442 12.1695 65.3908 24.6573 60.9458 30.7754L75.0221 15.8423Z" fill="#F8F8F9"/>
<path d="M29.301 41.5716C22.1066 40.0033 20.5386 38.5933 7.80851 36.4548C6.63508 36.2576 5.41358 36.2798 4.21387 36.2044C5.26357 36.5714 8.24474 37.7253 9.32714 37.9272C16.6478 39.2936 21.9714 40.2453 29.301 41.5716Z" fill="#F8F8F9"/>
<path d="M29.8569 36.7747C23.4875 33.9201 17.3024 31.2435 10.9074 28.4472C9.72692 27.9312 8.24162 27.5132 6.99512 27.1482C16.755 32.9461 24.1693 34.9644 30.7707 37.2103C30.4688 37.0593 30.1646 36.9128 29.8569 36.7747Z" fill="#F8F8F9"/>
<path d="M52.3433 0.00302315L52.3685 0.00494627L52.3433 0.00302315Z" fill="#F8F8F9"/>
<path d="M50.1792 26.2096C50.2291 26.2148 50.2041 26.2122 50.1792 26.2096V26.2096Z" fill="#F8F8F9"/>
<path d="M52.5118 5.94965C52.6721 4.2464 52.3432 1.72134 52.3432 0.00302315C52.065 1.96846 51.6919 3.92588 51.5262 5.90061C51.0393 11.702 50.6134 17.5102 50.2121 23.319C50.1461 24.2806 50.1602 25.2444 50.1778 26.2101L52.5118 5.94965Z" fill="#F8F8F9"/>
<path d="M50.179 26.2103C50.1543 26.207 50.1294 26.2048 50.179 26.2103V26.2103Z" fill="#F8F8F9"/>
<path d="M65.7832 37.0003L85.3824 28.2004C86.4898 27.6975 88.5668 26.9183 89.6066 26.2667C83.758 27.2641 71.3516 33.7967 65.7832 37.0003Z" fill="#F8F8F9"/>
<path d="M65.7822 37.0006C65.7707 36.9724 65.756 36.9451 65.7822 37.0006V37.0006Z" fill="#F8F8F9"/>
<path d="M65.7832 37.0004C65.8095 37.0555 65.7964 37.0279 65.7832 37.0004V37.0004Z" fill="#F8F8F9"/>
<path d="M22.4216 15.8487C20.6792 13.8022 17.258 10.9842 16.2676 10.1483C23.219 19.3071 29.3346 24.8422 35.2934 31.1424L22.4216 15.8487Z" fill="#F8F8F9"/>
<path d="M11.4717 19.0775L11.4813 19.0637L11.4717 19.0775Z" fill="#F8F8F9"/>
<path d="M11.4629 19.0905L11.4719 19.0774L11.4629 19.0905Z" fill="#F8F8F9"/>
<path d="M14.4128 21.9858C22.5861 27.8779 28.767 32.5204 32.5668 34.1829L15.2583 21.3146C14.2006 20.5569 12.623 19.704 11.4717 19.0768C12.3012 19.8723 13.4938 21.3227 14.4128 21.9858Z" fill="#F8F8F9"/>
<path d="M11.4585 19.0969L11.4614 19.0928L11.4585 19.0969Z" fill="#F8F8F9"/>
<path d="M64.816 32.5556C64.4044 32.8761 64.0102 33.2156 63.6201 33.5614L79.1147 22.6797C80.3785 21.7451 83.5414 18.8569 84.7267 17.8168C83.5937 18.4761 82.377 19.0258 81.3417 19.8136C75.8066 24.0262 70.3126 28.293 64.816 32.5556Z" fill="#F8F8F9"/>
<path d="M3.31006 45.6101C7.48613 46.0492 11.6737 46.0268 15.8703 46.0165C20.2031 46.0059 24.5645 45.9204 28.8921 45.6851C26.6751 45.6787 3.37993 44.3691 3.31006 45.6101Z" fill="#F8F8F9"/>
<path d="M18.4541 52.8052C22.6529 51.735 24.8966 51.5789 28.9592 50.0651C26.8405 50.7186 12.7068 52.9325 13.0107 54.1392" fill="#F8F8F9"/>
<path d="M51.7134 26.4151C52.5041 22.5795 54.1115 18.8438 54.8564 14.9988C54.9731 14.3975 56.2151 7.4919 56.2151 6.86753C56.0568 6.8547 54.7048 12.7212 54.5522 13.1295C53.4096 17.5085 52.4047 21.9541 51.7134 26.4151Z" fill="#F8F8F9"/>
<path d="M51.7134 26.4151C51.8028 26.4324 51.7579 26.4235 51.7134 26.4151V26.4151Z" fill="#F8F8F9"/>
<path d="M51.7129 26.4168C51.668 26.4065 51.6244 26.3989 51.7129 26.4168V26.4168Z" fill="#F8F8F9"/>
<path d="M40.022 27.9956C40.0618 27.9776 40.0419 27.9866 40.022 27.9956V27.9956Z" fill="#F8F8F9"/>
<path d="M40.0224 27.9963C40.0012 28.0049 39.9826 28.0136 40.0224 27.9963V27.9963Z" fill="#F8F8F9"/>
<path d="M33.8613 16.1354C35.528 20.2756 37.855 24.1 40.0217 27.9947C38.2999 23.8808 37.6989 21.2714 33.8613 16.1354Z" fill="#F8F8F9"/>
<path d="M66.6614 18.1233L59.125 29.396C61.8658 25.7966 64.3928 22.0474 66.6614 18.1233Z" fill="#F8F8F9"/>
<path d="M66.6614 18.1233C62.893 22.0657 61.469 25.5206 59.125 29.396L66.6614 18.1233Z" fill="#F8F8F9"/>
<path d="M79.1907 34.0957C76.482 34.0957 70.1257 36.8522 66.4263 38.4603C70.6152 37.2484 78.1593 34.9634 79.1907 34.0957Z" fill="#F8F8F9"/>
<path d="M28.9668 43.5425C24.7273 42.9681 17.1678 42.0816 16.2075 42.5255C22.5872 43.8996 24.6968 43.3957 28.9668 43.5425Z" fill="#F8F8F9"/>
<path d="M28.9355 48.0461C24.7254 48.8058 17.2118 50.0224 16.2329 49.6212C22.5465 47.9689 24.6761 48.3798 28.9355 48.0461Z" fill="#F8F8F9"/>
<path d="M47.7616 26.1311C47.719 26.1302 47.6764 26.1315 47.7616 26.1311V26.1311Z" fill="#F8F8F9"/>
<path d="M47.7622 26.1294C47.8462 26.1285 47.8045 26.1288 47.7622 26.1294V26.1294Z" fill="#F8F8F9"/>
<path d="M47.762 26.1296C48.1547 16.3665 48.1146 11.8058 47.5483 10.7766C46.8848 15.7482 47.3774 22.1631 47.7617 26.1296H47.762Z" fill="#F8F8F9"/>
<path d="M84.3029 41.5731C79.3348 41.1426 71.8647 42.083 67.4604 42.6237C71.7852 42.6292 83.4173 42.233 84.3029 41.5731Z" fill="#F8F8F9"/>
<path d="M76.081 27.8779C72.0643 29.9292 68.3501 32.4662 64.6343 34.9797C68.3728 33.0896 73.2768 30.7754 76.081 27.8779Z" fill="#F8F8F9"/>
<path d="M10.4316 32.6442C18.6588 36.5805 25.658 37.6033 29.8587 38.5927C25.7843 37.1626 14.7231 33.3342 10.4316 32.6442Z" fill="#F8F8F9"/>
<path d="M33.9138 32.5204L23.6226 24.291C26.7589 27.3795 30.4045 29.8748 33.9138 32.5204Z" fill="#F8F8F9"/>
<path d="M33.9138 32.5204C30.7702 29.0969 28.3342 26.8885 23.6226 24.291L33.9138 32.5204Z" fill="#F8F8F9"/>
<path d="M55.8252 27.6216C57.7727 23.5231 59.383 20.6448 60.674 14.9206C58.615 18.9749 57.3092 23.3339 55.8252 27.6216Z" fill="#F8F8F9"/>
<path d="M55.8252 27.6219C55.8094 27.6152 55.794 27.6091 55.8252 27.6219V27.6219Z" fill="#F8F8F9"/>
<path d="M55.8252 27.6219C55.8563 27.6347 55.8406 27.629 55.8252 27.6219V27.6219Z" fill="#F8F8F9"/>
<path d="M15.3325 26.9581C21.2705 31.1964 27.4341 34.1596 31.3618 36.0689C27.6556 33.7112 16.4691 26.9466 15.3325 26.9581Z" fill="#F8F8F9"/>
<path d="M43.8709 26.6353C42.895 22.1771 41.5696 13.5775 40.0798 9.42327C39.8875 10.8409 41.4042 19.0972 43.8709 26.6353Z" fill="#F8F8F9"/>
<path d="M43.8711 26.6353C43.8372 26.6426 43.8035 26.6507 43.8711 26.6353V26.6353Z" fill="#F8F8F9"/>
<path d="M43.8711 26.6352C43.9383 26.6205 43.9047 26.6275 43.8711 26.6352V26.6352Z" fill="#F8F8F9"/>
<path d="M76.9488 18.1233C72.4433 21.2715 65.2499 28.6255 62.1328 31.8785C65.5329 29.1495 76.6594 19.3275 76.9488 18.1233Z" fill="#F8F8F9"/>
<path d="M26.0322 15.6934C28.5429 19.372 34.1844 26.6203 37.0261 30.0111C32.567 22.4564 27.039 15.8806 26.0322 15.6934Z" fill="#F8F8F9"/>
<path d="M37.0266 30.0119C36.9977 30.0328 36.9698 30.0526 37.0266 30.0119V30.0119Z" fill="#F8F8F9"/>
<path d="M37.0259 30.011C37.0819 29.9703 37.0537 29.9905 37.0259 30.011V30.011Z" fill="#F8F8F9"/>
<path d="M67.79 53.7262L68.391 54.6499H69.7164L67.8179 53.7162L67.79 53.7262Z" fill="#F8F8F9"/>
<path d="M89.0876 53.4631C88.7331 52.9156 88.3504 52.4079 88.0555 51.7787C87.9853 51.6284 87.8709 51.5178 87.769 51.4047C87.0122 50.5691 86.1481 49.9594 85.4683 48.953C85.1987 48.554 84.782 48.4591 84.4048 48.3219C84.1073 48.2136 83.8387 48.2703 83.6105 48.5725C83.2381 49.0665 82.8486 49.286 82.3435 48.969C82.1137 48.8248 81.8332 48.8847 81.5829 49.0043C80.9236 49.3184 80.2495 49.5578 79.6258 50.0376C78.9819 50.5325 78.2927 50.8204 77.5462 50.7428C77.1616 50.703 76.7837 50.7623 76.3994 50.8944C75.9154 51.0611 75.427 50.7915 74.9587 50.6319C73.9071 50.2745 72.8721 49.8126 71.8278 49.4075C71.424 49.2508 71.0365 49.036 70.7147 48.6504C69.6832 47.4145 68.48 47.3623 67.2659 47.6536C66.6956 47.7905 66.2081 47.6757 65.6953 47.3834C64.9052 46.9347 64.1443 46.3696 63.3097 46.0879C62.8731 45.9407 62.4276 45.858 62.0106 46.0459C61.2013 46.4097 60.4288 45.9741 59.6387 45.9266C59.4785 45.917 59.3608 45.7343 59.2599 45.5619L59.2124 45.4382C59.1374 45.242 59.1057 45.1106 58.9499 44.974C58.7878 44.8324 58.8743 44.7747 58.7897 44.6032C58.665 44.3538 58.4929 44.1602 58.3704 43.9218C58.3414 43.8474 58.311 43.7745 58.2794 43.7032C58.2795 43.7019 58.2795 43.7006 58.2794 43.6993C58.1611 43.3179 58.1512 43.0157 57.8967 42.6942C57.815 42.591 57.58 42.4878 57.5717 42.3781C57.5595 42.2179 57.5227 42.0419 57.414 41.9131C57.1845 41.6419 56.8531 41.5797 56.8531 41.1438C56.8531 40.9195 56.4249 40.4771 56.2707 40.2941C56.1653 40.1752 56.0471 40.0683 55.9181 39.9755C55.7662 39.7618 55.6138 39.5503 55.4611 39.3409C55.1239 38.8771 54.7713 38.4671 54.2572 38.4261C53.8863 38.3966 53.6395 37.9017 53.3703 37.5745C52.9366 37.0485 52.5152 36.4847 52.1917 35.7905L52.0607 35.6148L51.9805 35.4706L51.7722 35.3424L51.0446 36.0876C49.6734 37.1774 48.2849 38.2152 46.7394 38.6758C45.4371 39.0636 44.2207 39.7771 43.0495 40.6544C41.9892 41.4483 40.8209 41.8496 39.7735 42.681C39.6219 42.8012 39.4254 42.8092 39.2475 42.8464C38.4539 43.0118 37.6818 43.2686 36.9773 43.8682C36.8022 44.0176 36.608 44.1266 36.3929 44.1417C35.7432 44.1872 35.1964 44.4974 34.7044 44.9465C34.3519 45.0987 34.0371 45.3311 33.8281 45.6728C33.5022 46.2071 33.0307 46.6779 32.8057 47.2635C32.7451 47.4206 32.8717 47.6097 32.8076 47.7216C32.7403 47.8389 32.6422 47.9619 32.6092 48.094C32.5297 48.4145 32.439 48.7286 32.3422 49.0447C32.1989 49.5142 32.0595 50.2668 31.5874 50.5425C31.3986 50.6524 30.9912 50.9998 30.7809 50.9998C30.4284 50.9998 30.4027 51.2883 30.0662 51.3409C29.8158 51.3806 29.4014 51.639 29.2226 51.8181C29.021 52.0201 28.6748 52.1621 28.5023 52.363C28.3504 52.5396 28.427 52.6515 28.2017 52.7624C28.0491 52.838 27.9722 52.9092 27.8507 53.0307C27.7491 53.1323 27.6453 53.2307 27.5414 53.3297C27.4174 53.4473 27.4591 53.5932 27.3645 53.7028L27.3565 53.7115C27.2328 53.8448 26.9296 53.9679 26.7956 54.0785C26.5664 54.2647 26.417 54.4096 26.2427 54.6519C26.352 54.6519 26.4709 54.6663 26.5792 54.6519H33.6419L36.2894 50.7303L36.316 50.7438C35.9429 51.688 35.5695 52.6319 35.183 53.6092L36.0458 53.1554C35.99 53.3977 35.9436 53.6041 35.8958 53.8092C35.8302 54.09 35.7642 54.3709 35.6977 54.6519H39.2898C39.3504 54.2134 39.4106 53.7797 39.4706 53.3461L39.5074 53.3358C39.6677 53.7708 39.8312 54.206 39.9969 54.6519H52.3966C52.1542 54.1317 51.9078 53.6137 51.6674 53.0925C51.6383 53.0247 51.6281 52.9503 51.6379 52.8771C51.7129 52.3265 51.7927 51.7766 51.8773 51.2274C51.8867 51.1757 51.8851 51.1225 51.8727 51.0714C51.8603 51.0202 51.8373 50.9723 51.8052 50.9306C50.8347 49.5481 49.8668 48.1637 48.9016 46.7773C48.8263 46.6687 48.7699 46.5482 48.7346 46.4209C48.5618 45.7818 48.3997 45.1388 48.234 44.4978C48.2238 44.4639 48.2262 44.4274 48.2407 44.3952C48.2727 44.4593 48.3048 44.5205 48.3368 44.5827C48.6378 45.1667 48.9276 45.7568 49.2458 46.3311C49.3603 46.5379 49.5378 46.7113 49.6946 46.8927C50.7478 48.1107 51.8015 49.3279 52.8555 50.5444C52.9029 50.5999 52.9321 50.6686 52.9392 50.7412C52.9677 51.2111 52.9825 51.6816 53.0136 52.1515C53.0208 52.2436 53.0576 52.3309 53.1187 52.4002C53.8347 53.1536 54.5542 53.9039 55.2771 54.6509H63.8844L63.1747 54.1544C63.1172 54.116 63.0565 54.0825 62.9933 54.0544C62.3345 53.7495 61.6755 53.4449 61.0163 53.1406C60.9555 53.1161 60.9008 53.0786 60.8561 53.0307C60.4747 52.5367 60.0987 52.0412 59.7218 51.546C59.7131 51.5348 59.7073 51.5226 59.6849 51.4864C60.0105 51.6201 60.298 51.7473 60.599 51.8595C60.8686 51.9598 61.0798 52.0893 61.2481 52.2582C61.4782 52.489 61.7289 52.7111 61.9801 52.9332C62.0399 52.9825 62.1095 53.0184 62.1843 53.0387C63.0034 53.2737 63.824 53.5058 64.6462 53.7349L64.7575 53.7669C64.7546 53.7749 64.7517 53.7829 64.7491 53.7913H63.8661C64.1308 54.0791 64.3941 54.3655 64.6559 54.6506H67.9858C67.6627 54.2873 67.3402 53.9241 67.0184 53.5608C66.9535 53.4892 66.9034 53.4054 66.871 53.3143C66.5943 52.4944 66.3224 51.6738 66.0553 50.8524C66.0254 50.7607 65.9694 50.7043 65.8309 50.6633C65.5161 50.5697 65.2139 50.4588 64.9014 50.363C64.7539 50.3208 64.6165 50.2494 64.4972 50.153C64.2613 49.9607 64.0164 49.7684 63.792 49.5629L64.0988 49.6591C64.845 49.8969 65.5988 50.1255 66.2972 50.421C66.4024 50.4655 66.4671 50.5143 66.5046 50.5912C66.7912 51.1794 67.0817 51.7671 67.3761 52.3541C67.4092 52.417 67.4573 52.4709 67.5162 52.5108C68.551 53.2251 69.5874 53.939 70.6252 54.6525H73.9763C73.9978 54.5612 74.0192 54.4698 74.0404 54.3788C74.058 54.3054 74.0343 54.2487 73.9683 54.1884C72.9977 53.3023 72.0299 52.4147 71.0647 51.5258C70.9937 51.4621 70.9368 51.3843 70.8977 51.2973C70.7249 50.8877 70.5627 50.4761 70.397 50.0652C70.392 50.0546 70.39 50.0429 70.3912 50.0313C70.3924 50.0196 70.3967 50.0085 70.4038 49.9992C70.4358 50.0396 70.4679 50.0796 70.4999 50.1197C70.8009 50.4941 71.0906 50.8723 71.4089 51.2415C71.5233 51.3739 71.7006 51.4851 71.8576 51.6015C72.9109 52.382 73.9645 53.162 75.0186 53.9413C75.0621 53.9707 75.0921 54.0161 75.1023 54.0676C75.1209 54.2624 75.1343 54.4573 75.1484 54.6522H77.7447C77.4882 53.9448 77.2389 53.2358 77.0017 52.5226C77.3796 52.9425 77.7572 53.3627 78.1395 53.7881L80.1457 53.3461C80.0438 53.4143 79.9716 53.4656 79.8941 53.5137C79.5284 53.74 79.1591 53.9624 78.7979 54.1929C78.775 54.2066 78.7558 54.2257 78.742 54.2485C78.7283 54.2714 78.7204 54.2973 78.719 54.324C78.728 54.4336 78.7389 54.5429 78.7511 54.6522H89.669C89.5331 54.1932 89.3177 53.8156 89.0876 53.4631ZM43.7979 53.9265C43.5719 53.6806 43.3459 53.4348 43.12 53.1893C42.4162 52.4201 41.7123 51.6508 41.0084 50.8816C40.9534 50.8235 40.8926 50.7711 40.827 50.7252C40.1684 50.2495 39.5078 49.7767 38.8501 49.2998C38.784 49.2559 38.7291 49.1972 38.6898 49.1283C38.3084 48.3591 37.9324 47.585 37.5555 46.8126C37.5468 46.7952 37.541 46.7763 37.5186 46.7196C37.8443 46.9283 38.1318 47.1267 38.4327 47.3017C38.6968 47.4526 38.9197 47.6661 39.0818 47.9235C39.3119 48.2838 39.5626 48.6286 39.8139 48.9764C39.867 49.0476 39.9372 49.1043 40.018 49.1411C40.837 49.5065 41.6591 49.8658 42.48 50.2268L42.5912 50.2758C42.5883 50.2883 42.5854 50.3011 42.5828 50.3136H41.6998L43.8191 53.9111L43.7979 53.9265ZM50.0834 53.4002C50.2643 53.588 50.4355 53.7849 50.5962 53.9903L45.6528 50.1969L45.6249 50.2126C46.1591 51.4947 46.6933 52.7768 47.2275 54.0589L47.2003 54.0717C47.1105 53.9147 47.0209 53.7576 46.9314 53.6006C46.2377 52.3845 45.5448 51.1681 44.8525 49.9514C44.7844 49.8313 44.7347 49.7017 44.705 49.5668C44.4285 48.2879 44.1566 47.008 43.8893 45.727C43.8595 45.5837 43.8034 45.4955 43.6649 45.4314C43.3502 45.2856 43.0479 45.1109 42.7354 44.9632C42.5764 44.8879 42.4378 44.7756 42.3312 44.6356C42.0953 44.333 41.8505 44.0378 41.6261 43.7154C41.7283 43.7654 41.8306 43.815 41.9328 43.8657C42.679 44.2368 43.4329 44.5933 44.1313 45.0542C44.2312 45.1135 44.3053 45.2082 44.3387 45.3196C44.6252 46.2369 44.9157 47.153 45.2102 48.0677C45.239 48.1581 45.2867 48.2414 45.3502 48.312C46.9263 50.0094 48.5044 51.7051 50.0843 53.399L50.0834 53.4002ZM52.4873 45.7991L52.0341 45.0122C51.6475 44.341 51.2629 43.6686 50.8725 42.9996C50.8232 42.9185 50.7577 42.8483 50.6802 42.7935C50.3539 42.5605 50.0215 42.3365 49.693 42.107C49.6462 42.0749 49.5917 42.0358 49.5702 41.9871C49.2497 41.255 48.9317 40.521 48.6138 39.7874L48.6388 39.7669L49.8853 40.8733C49.8891 40.8768 49.8936 40.88 49.8971 40.8839C50.3013 41.3592 50.8222 41.597 51.4356 41.6567C51.609 41.6736 51.7792 41.7249 51.9921 41.7688L51.2786 42.1615C51.6895 43.3709 52.1003 44.5796 52.511 45.7875L52.4873 45.7991ZM59.074 54.2079C58.5475 53.7069 58.021 53.2058 57.4945 52.7047C56.7511 51.9961 56.0082 51.2869 55.2659 50.5771C55.2155 50.5317 55.1785 50.4734 55.1588 50.4085C54.7828 48.8081 54.4114 47.2068 54.0671 45.5914L55.2046 47.5655L57.2111 46.8763C57.1092 46.9824 57.0367 47.0626 56.9595 47.1376C56.5938 47.4901 56.2242 47.8395 55.8633 48.1969C55.8121 48.2526 55.7838 48.3257 55.7841 48.4014C55.8055 48.7967 55.8349 49.1913 55.8723 49.5851C55.8831 49.6737 55.9162 49.7582 55.9684 49.8306C56.9757 51.2396 57.9853 52.6469 58.9971 54.0525C59.0291 54.0993 59.0637 54.1487 59.0967 54.1942L59.074 54.2079Z" fill="#F8F8F9"/>
</g>
<defs>
<clipPath id="clip0">
<rect width="100" height="65.2905" fill="white"/>
</clipPath>
</defs>
</svg>
