<?xml version="1.0" encoding="UTF-8"?>
<svg id="Layer_1" xmlns="http://www.w3.org/2000/svg" viewBox="0 0 182 112">
  <defs>
    <style>
      .cls-1 {
        fill: #bd9a64;
      }
    </style>
  </defs>
  <path class="cls-1" d="M132.87,89.02l23.59.21c1.59,0,6.3-1.57,7.17-2.79-10.71-.48-21.25.59-30.76,2.58Z"/>
  <path class="cls-1" d="M81.28,1.02c.3-.06-.3.06,0,0h0Z"/>
  <path class="cls-1" d="M87.21,53.8c1.06-10.82,1.57-17.67-.2-29.97-.24-1.67-2.06-5.27-3.76-7.02,0,23.35,2.3,24.71,3.95,36.99h0Z"/>
  <path class="cls-1" d="M79.94,55.25s0,0,0,0c.15-.05.07-.03,0,0Z"/>
  <path class="cls-1" d="M79.93,55.26h0c-.08.02-.15.04,0,0Z"/>
  <path class="cls-1" d="M79.91,55.25c-.23-.89-.06-3.04-.15-3.96-1.32-13.74-4.35-22.67-10.1-37.54-.94-2.43-4.81-5.68-7.93-8.42,6.11,27.09,18.19,49.93,18.19,49.93Z"/>
  <path class="cls-1" d="M72.49,58.41c.11-.06.05-.03,0,0h0Z"/>
  <path class="cls-1" d="M72.46,58.41c-.05.03-.1.06,0,0h0Z"/>
  <path class="cls-1" d="M72.44,58.41s-.59-1.43-.83-2.14c-3.17-9.31-4.99-13.33-9.01-19.86-.8-1.3-5.4-4.14-7.34-5.32.55,2.52,12.48,21.16,17.18,27.32h0Z"/>
  <path class="cls-1" d="M133.16,27.13c1.47-2.59,2.82-10.06,3.81-15-3.32,2.6-22.84,32.45-26.71,46.19l22.9-31.2Z"/>
  <path class="cls-1" d="M130.18,82.8l39.6-5.64c3.57-.78,7.2-2.21,11.26-5.46-12.68-.02-37.78,5.81-50.86,11.09h0Z"/>
  <path class="cls-1" d="M119.3,4.61h-.06s.06,0,.06,0Z"/>
  <path class="cls-1" d="M102.81,55.2c-.07-.02-.14-.05,0,0h0Z"/>
  <path class="cls-1" d="M103,52.04c-.19.68-.1,2.35-.19,3.16l11.36-26.52c.51-1.71-.32-6.2-.55-8.45-.67,1.59-2.2,4.53-2.67,6.19-2.68,9.4-5.34,16.18-7.95,25.61h0Z"/>
  <path class="cls-1" d="M102.82,55.2c.13.04.06.02,0,0h0Z"/>
  <path class="cls-1" d="M138.88,42.95c1.22-1.38,2.37-5.06,2.99-7.92-2.89,1.5-18.36,17.18-24.88,27.93l21.89-20.02Z"/>
  <path class="cls-1" d="M51.17,85.64c-9.77-3.09-11.11-4.12-29.06-6.92-1.65-.26-3.38-.23-5.07-.33,1.48.48,5.87,4.64,7.39,4.9,10.32,1.8,24.11,4.83,26.73,2.35Z"/>
  <path class="cls-1" d="M54.01,75.11c-9.44-8.36-24.37-13.61-37.32-19.27-2.39-1.05-6.45.51-8.98-.23,6.41,9.24,46.81,19.95,46.3,19.5Z"/>
  <path class="cls-1" d="M103.65,12.6c.32-3.45-2.1-8.26-4.08-11.97-.56,3.98-1.32,7.94-1.65,11.94-.99,11.75-2.15,23.51-2.97,35.28-.13,1.95.2,3.9.24,5.86l8.47-41.11h0Z"/>
  <path class="cls-1" d="M127.58,75.34l27.3-8.71c1.46-.64,2.66-2.59,3.69-4.81-7.73,1.27-23.43,8.53-30.99,13.53Z"/>
  <path class="cls-1" d="M126.8,75.56c-.02-.06-.05-.11,0,0h0Z"/>
  <path class="cls-1" d="M126.77,75.57c.05.11.03.06,0,0h0Z"/>
  <path class="cls-1" d="M42.56,31.08c-3.53-4.14-14-8.2-16-9.9,9.74,15.62,23.6,29.94,37.5,41.85l-21.49-31.95Z"/>
  <path class="cls-1" d="M16.77,39.27l.02-.03-.02.03Z"/>
  <path class="cls-1" d="M37.18,55.29c7.6,6.09,15.16,11.84,21.23,14.09l-17.92-16.97c-1.27-.89-3.07-.98-6.85-.54,1,.94,2.49,2.58,3.54,3.43h0Z"/>
  <path class="cls-1" d="M126.02,63.97c-.83.65-2.85,3.93-3.64,4.63l34.66-19.06c2.56-1.89,7.06-9.57,8.09-12.83-2.29,1.34-4.76,2.45-6.86,4.04-11.21,8.53-21.12,14.58-32.25,23.21h0Z"/>
  <path class="cls-1" d="M.26,93.01c6.44,3.42,17.88,4.03,26.38,4.01,8.78-.02,16.37-.52,23.31-3.48-4.93-.61-49.55-3.04-49.69-.53H.26Z"/>
  <path class="cls-1" d="M30.94,108.54c3.56-.91,9.54-2.09,13.09-3.01,11.47-2.99,5.39-2.46,1.38-2.14-6.3.5-17.2,2.33-21.01,3.35-1.08.29-1.6.64-2.6,1.15-.43.22-2,1.93-1.89,2.4"/>
  <path class="cls-1" d="M68.52,61.41c-.06.04-.11.08,0,0h0Z"/>
  <path class="cls-1" d="M68.54,61.41c.11-.08.06-.04,0,0h0Z"/>
  <path class="cls-1" d="M113.61,92.91l-.1-.25c-.41-1.07-1.19-2.07-1.71-3.07-1-2.56-2.66-6.33-4.97-7.99-2.34-3.29-5.71-4.52-7.55-8.48l-.27-.36-.16-.29-.42-.26-1.47,1.51c-6.57,5.22-15.53,9.15-22.83,13.35-2.7,1.56-7.83,2.36-10.27,4.59-4.51,1.95-3.66,8.01-6.31,11.33-.88,1.1-3.61,1.81-4.79,2.58-1.6,1.04-2.59,2.45-3.76,3.82l-.02.02c-1.03,1.12-1.3.58-2.26,1.9.22,0,.46.03.68,0h127.78c-.4-1.36-2.74-5-3.27-5.82-1.4-2.18-3.33-3.98-5.24-5.72-2.4-2.2-2.58-.49-4.94.25-1.54.48-1.49-.71-2.92-.14-3.42,1.34-6.56,4-10.5,3.83-6.27-.27-9.59-5.19-14.87-6.71-3.39-.98-3.52.9-6.81-.4-1.7-.67-3.11-2-4.83-2.62-2.21-.8-6.69,1.53-8.2-1.07h0Z"/>
</svg>