<svg width="150" height="108" viewBox="0 0 150 108" fill="none" xmlns="http://www.w3.org/2000/svg">
<path d="M108.246 74.9213C108.246 75.054 108.246 74.988 108.246 74.9213V74.9213Z" fill="white"/>
<path d="M110.033 73.3364L129.604 73.514C130.919 73.5058 134.833 72.2115 135.556 71.1998C126.672 70.8041 117.922 71.6864 110.033 73.3364Z" fill="white"/>
<path d="M108.246 74.9257C108.246 74.8584 108.246 74.791 108.246 74.9257V74.9257Z" fill="white"/>
<path d="M67.2243 0.320286C67.4762 0.272965 66.9716 0.366941 67.2243 0.320286V0.320286Z" fill="white"/>
<path d="M71.8386 44.1189C71.776 44.119 71.716 44.1191 71.8386 44.1189V44.1189Z" fill="white"/>
<path d="M72.1443 44.1125C73.0205 35.1311 73.4447 29.4471 71.9803 19.2461C71.7804 17.8637 70.2747 14.8733 68.8639 13.4191C68.8639 32.7926 70.7687 33.9263 72.143 44.1125H72.1443V44.1125Z" fill="white"/>
<path d="M71.8418 44.1099C71.9598 44.1097 71.8998 44.1098 71.8418 44.1099V44.1099Z" fill="white"/>
<path d="M66.1096 45.3133C66.109 45.3139 66.109 45.3146 66.1096 45.3159C66.233 45.2746 66.171 45.2926 66.1096 45.3133Z" fill="white"/>
<path d="M66.1066 45.3231V45.3204C66.0432 45.3404 65.9826 45.3604 66.1066 45.3231Z" fill="white"/>
<path d="M66.0861 45.3171C65.8936 44.5751 66.0339 42.7943 65.9607 42.0319C64.8684 30.6287 62.353 23.2174 57.5784 10.8798C56.7991 8.86516 53.5871 6.16885 50.9965 3.89065C56.0666 26.3684 66.0861 45.3171 66.0861 45.3171Z" fill="white"/>
<path d="M59.9304 47.9331C60.0177 47.8872 59.973 47.9105 59.9304 47.9331V47.9331Z" fill="white"/>
<path d="M59.9052 47.9342C59.8619 47.9576 59.8198 47.9843 59.9052 47.9342V47.9342Z" fill="white"/>
<path d="M59.8933 47.9381C59.8933 47.9381 59.4034 46.7488 59.2028 46.1593C56.5743 38.4302 55.0618 35.0976 51.7299 29.6799C51.0672 28.6025 47.2521 26.247 45.6366 25.2658C46.0967 27.3563 55.9956 42.8199 59.8933 47.9381V47.9381Z" fill="white"/>
<path d="M110.274 21.982C111.495 19.836 112.61 13.6377 113.435 9.53798C110.683 11.6929 94.4847 36.4604 91.272 47.867L110.274 21.982Z" fill="white"/>
<path d="M107.8 68.1761L140.655 63.4998C143.622 62.8533 146.629 61.6701 150 58.9711C139.481 58.9542 118.652 63.7898 107.8 68.1761V68.1761Z" fill="white"/>
<path d="M149.937 58.9711C149.937 59.0091 149.937 59.0464 149.937 58.9711V58.9711Z" fill="white"/>
<path d="M98.7172 3.31241L98.743 3.31255L98.7172 3.31241Z" fill="white"/>
<path d="M98.7705 3.29386L98.7172 3.29362L98.7705 3.29386Z" fill="white"/>
<path d="M85.0851 45.2764C85.0271 45.2565 84.971 45.2385 85.0851 45.2764V45.2764Z" fill="white"/>
<path d="M85.2478 42.6528C85.0926 43.2152 85.1604 44.6043 85.0933 45.2779L94.5165 23.2752C94.9407 21.8596 94.2542 18.1299 94.0597 16.2664C93.5027 17.5898 92.2356 20.0273 91.8432 21.4049C89.6172 29.2038 87.4088 34.8329 85.2478 42.6528V42.6528Z" fill="white"/>
<path d="M85.0933 45.2726C85.2047 45.3086 85.1467 45.2899 85.0933 45.2726V45.2726Z" fill="white"/>
<path d="M98.7914 3.32304L98.8114 3.32313L98.7914 3.32304Z" fill="white"/>
<path d="M115.018 35.1091C116.031 33.9666 116.983 30.9139 117.498 28.5415C115.096 29.7843 102.264 42.7996 96.8558 51.7172L115.018 35.1091Z" fill="white"/>
<path d="M42.237 70.535C34.1285 67.9674 33.0165 67.1204 18.1268 64.79C16.7539 64.5745 15.3255 64.5989 13.9221 64.5169C15.15 64.9167 18.7909 68.3632 20.0567 68.5834C28.62 70.0728 40.0652 72.5882 42.237 70.535Z" fill="white"/>
<path d="M44.5993 61.7961C36.7645 54.8591 24.376 50.5067 13.6294 45.8073C11.6453 44.9399 8.27407 46.2315 6.1795 45.6182C11.5003 53.2843 45.0235 62.1715 44.5993 61.7961Z" fill="white"/>
<path d="M82.4129 0L82.4549 4.44196e-05L82.4129 0Z" fill="white"/>
<path d="M78.7653 44.0454C78.8479 44.0455 78.8066 44.0455 78.7653 44.0454V44.0454Z" fill="white"/>
<path d="M85.7882 9.93004C86.0579 7.06772 84.0487 3.07713 82.4028 0C81.9352 3.30279 81.3084 6.59202 81.0299 9.91107C80.2113 19.6602 79.2423 29.4208 78.568 39.1828C78.4569 40.799 78.734 42.4185 78.7639 44.0414L85.7882 9.93004V9.93004Z" fill="white"/>
<path d="M78.7381 44.0368C78.6974 44.0367 78.6561 44.0366 78.7381 44.0368V44.0368Z" fill="white"/>
<path d="M105.641 61.9868L128.29 54.7578C129.504 54.2266 130.501 52.607 131.352 50.7632C124.938 51.8176 111.912 57.8451 105.641 61.9868Z" fill="white"/>
<path d="M104.995 62.1711C104.976 62.1245 104.952 62.0791 104.995 62.1711V62.1711Z" fill="white"/>
<path d="M104.971 62.1729C105.014 62.2641 104.992 62.2188 104.971 62.1729V62.1729Z" fill="white"/>
<path d="M35.093 25.2614C32.1649 21.8224 23.4777 18.4539 21.8134 17.0492C29.8989 30.0096 41.3916 41.8946 52.9256 51.7731L35.093 25.2614Z" fill="white"/>
<path d="M13.6984 32.0541L13.7144 32.0314L13.6984 32.0541Z" fill="white"/>
<path d="M13.6984 32.081L13.6986 32.059L13.6984 32.081Z" fill="white"/>
<path d="M30.6359 45.3502C36.9406 50.4033 43.2121 55.1779 48.2476 57.0387L33.3803 42.9554C32.3225 42.2141 30.8358 42.1463 27.6949 42.5062C28.5244 43.2834 29.7597 44.6475 30.6359 45.3502V45.3502Z" fill="white"/>
<path d="M13.6984 32.0774L13.6984 32.0774L13.6984 32.0774Z" fill="white"/>
<path d="M104.346 52.5533C103.654 53.0921 101.979 55.8155 101.323 56.3969L130.085 40.5789C132.209 39.0081 135.941 32.635 136.793 29.9374C134.889 31.0453 132.844 31.9689 131.105 33.293C121.803 40.3722 113.583 45.3901 104.346 52.5533V52.5533Z" fill="white"/>
<path d="M0.000366211 76.6482C5.34554 79.4868 14.8338 79.9944 21.8859 79.9767C29.1677 79.9591 35.4724 79.5431 41.2282 77.086C37.1394 76.5818 0.117597 74.5624 0.000366211 76.6482V76.6482Z" fill="white"/>
<path d="M25.4567 89.5316C28.4091 88.7794 33.3742 87.7996 36.3219 87.0311C45.8365 84.549 40.7929 84.9935 37.4644 85.2578C32.2344 85.6725 23.1948 87.189 20.0275 88.0347C19.1337 88.2733 18.6987 88.5673 17.874 88.9875C17.5189 89.1691 16.2117 90.5901 16.3093 90.9763" fill="white"/>
<path d="M56.6347 50.4291C56.5867 50.4638 56.5406 50.4965 56.6347 50.4291V50.4291Z" fill="white"/>
<path d="M56.6545 50.429C56.7472 50.3616 56.7005 50.395 56.6545 50.429V50.429Z" fill="white"/>
<path d="M94.0505 76.5638L93.9705 76.3557C93.6317 75.4707 92.9819 74.64 92.5557 73.8078C91.7296 71.6862 90.3472 68.5521 88.4343 67.1758C86.4908 64.4443 83.6997 63.4217 82.1723 60.1434L81.952 59.8479L81.8172 59.6053L81.4669 59.3898L80.2444 60.6421C74.7908 64.9762 67.3612 68.2302 61.3025 71.7228C59.0595 73.0164 54.8067 73.6831 52.784 75.5297C49.0401 77.1486 49.7468 82.178 47.5459 84.9339C46.8167 85.8467 44.5494 86.4389 43.5716 87.0779C42.2468 87.9439 41.4255 89.1122 40.449 90.2452L40.4355 90.2594C39.5769 91.1857 39.356 90.7412 38.5638 91.8396C38.7475 91.8396 38.9474 91.864 39.1297 91.8396L145.154 91.8403C144.819 90.7121 142.879 87.6939 142.442 87.0115C141.284 85.2043 139.676 83.7128 138.094 82.2627C136.101 80.4364 135.951 81.8547 133.992 82.468C132.709 82.8691 132.751 81.8825 131.565 82.3487C128.727 83.4648 126.12 85.6657 122.854 85.5255C117.655 85.3032 114.898 81.2205 110.518 79.9546C107.706 79.1422 107.594 80.7055 104.866 79.6253C103.451 79.0656 102.286 77.9671 100.856 77.4481C99.025 76.784 95.3075 78.7159 94.0505 76.5638V76.5638Z" fill="white"/>
<path d="M54.2351 98.2333V107.801H51.5288V104.069H47.8379V107.801H45.1311V98.2333H47.8379V101.828H51.5284V98.2333H54.2351Z" fill="#F8F8F9"/>
<path d="M55.4648 98.2333H58.1716V107.801H55.4648V98.2333Z" fill="#F8F8F9"/>
<path d="M59.415 98.2333H62.1218V105.655H66.6893V107.801H59.415V98.2333Z" fill="#F8F8F9"/>
<path d="M67.0691 98.2333H69.7754V105.655H74.3428V107.801H67.0691V98.2333Z" fill="#F8F8F9"/>
<path d="M15.7461 98.2333L12.6446 107.801H9.74592L7.91414 101.978L6.00063 107.801H3.10296L0 98.2333H2.78853L4.71551 104.344L6.73863 98.2333H9.2262L11.1541 104.399L13.1628 98.2333H15.7461Z" fill="#F8F8F9"/>
<path d="M16.0332 98.2333H18.7395V107.801H16.0332V98.2333Z" fill="#F8F8F9"/>
<path d="M29.0872 98.2333V107.801H26.8583L22.6347 102.705V107.801H19.9832V98.2333H22.2121L26.4357 103.33V98.2333H29.0872Z" fill="#F8F8F9"/>
<path d="M30.3167 98.2333H34.8408C35.8886 98.2333 36.8181 98.4292 37.6293 98.8208C38.4405 99.2125 39.0692 99.7685 39.5154 100.489C39.9622 101.209 40.1855 102.051 40.1851 103.017C40.1848 103.983 39.9616 104.826 39.5154 105.546C39.0689 106.266 38.4402 106.821 37.6293 107.213C36.8184 107.605 35.8889 107.801 34.8408 107.801H30.3167V98.2333ZM34.7317 105.642C35.5519 105.642 36.2102 105.409 36.7067 104.945C37.2032 104.48 37.4519 103.838 37.4529 103.018C37.4529 102.198 37.2046 101.556 36.7081 101.091C36.2116 100.626 35.5533 100.394 34.7331 100.394H33.023V105.643L34.7317 105.642Z" fill="#F8F8F9"/>
<path d="M85.7585 102.813H88.1504V106.777C87.5769 107.182 86.9392 107.487 86.2643 107.679C85.5723 107.886 84.8542 107.992 84.132 107.994C83.1294 107.994 82.2273 107.782 81.4257 107.358C80.6448 106.955 79.9916 106.342 79.5391 105.588C79.0834 104.832 78.8556 103.975 78.856 103.018C78.8563 102.061 79.084 101.205 79.5391 100.448C79.9947 99.6925 80.6529 99.0794 81.4392 98.6786C82.2504 98.2536 83.1656 98.0411 84.1849 98.0411C85.0779 98.0411 85.8792 98.1914 86.5888 98.4921C87.2773 98.7759 87.8874 99.2211 88.3677 99.7902L86.6455 101.348C85.9984 100.638 85.2239 100.282 84.3219 100.282C83.5017 100.282 82.841 100.53 82.3397 101.027C81.8384 101.524 81.5881 102.188 81.5887 103.018C81.5887 103.547 81.7026 104.019 81.9305 104.433C82.1512 104.841 82.4829 105.177 82.8873 105.403C83.2972 105.636 83.7665 105.752 84.295 105.752C84.7996 105.755 85.2989 105.648 85.7575 105.437L85.7585 102.813Z" fill="#F8F8F9"/>
<path d="M93.3715 105.26H91.8955V107.801H89.1892V98.2333H93.5643C94.4297 98.2333 95.1815 98.3776 95.8197 98.666C96.4578 98.9545 96.9498 99.3646 97.2957 99.8964C97.6425 100.43 97.8157 101.056 97.8154 101.776C97.8154 102.468 97.6537 103.072 97.3303 103.587C97.0069 104.102 96.5444 104.505 95.9428 104.796L98.0067 107.804H95.1091L93.3715 105.26ZM94.6562 100.736C94.3741 100.49 93.955 100.367 93.3989 100.367H91.8955V103.169H93.3989C93.9547 103.169 94.3738 103.048 94.6562 102.807C94.9386 102.565 95.0799 102.221 95.0802 101.774C95.0802 101.328 94.9389 100.982 94.6562 100.736V100.736Z" fill="#F8F8F9"/>
<path d="M100.718 107.351C99.9341 106.944 99.2769 106.328 98.8183 105.573C98.3581 104.816 98.1279 103.964 98.1279 103.016C98.1279 102.068 98.3581 101.217 98.8183 100.46C99.2769 99.7047 99.9341 99.0894 100.718 98.6815C101.523 98.2546 102.432 98.0411 103.445 98.0411C104.459 98.0411 105.367 98.2552 106.172 98.6834C106.956 99.0912 107.613 99.7065 108.072 100.462C108.532 101.219 108.762 102.071 108.762 103.018C108.763 103.966 108.533 104.818 108.072 105.574C107.613 106.33 106.956 106.946 106.172 107.353C105.365 107.782 104.457 107.996 103.445 107.996C102.434 107.996 101.525 107.781 100.718 107.351ZM104.757 105.411C105.15 105.182 105.471 104.849 105.686 104.449C105.914 104.035 106.028 103.558 106.028 103.021C106.028 102.483 105.914 102.007 105.686 101.592C105.471 101.192 105.15 100.859 104.757 100.631C104.356 100.406 103.904 100.289 103.445 100.289C102.985 100.289 102.533 100.406 102.132 100.631C101.74 100.859 101.418 101.192 101.203 101.592C100.975 102.007 100.861 102.483 100.861 103.021C100.861 103.558 100.975 104.034 101.203 104.449C101.418 104.849 101.74 105.182 102.132 105.411C102.533 105.634 102.985 105.752 103.445 105.752C103.904 105.752 104.356 105.634 104.757 105.411V105.411Z" fill="#F8F8F9"/>
<path d="M124.181 98.2333L121.078 107.801H118.18L116.349 101.98L114.435 107.801H111.537L108.435 98.2333H111.223L113.151 104.343L115.173 98.2333H117.661L119.588 104.398L121.597 98.2333H124.181Z" fill="#F8F8F9"/>
<path d="M132.149 105.711V107.801H124.468V98.2333H131.972V100.325H127.146V101.937H131.398V103.96H127.146V105.71L132.149 105.711Z" fill="#F8F8F9"/>
<path d="M137.152 105.26H135.677V107.801H132.97V98.2333H137.345C138.211 98.2333 138.962 98.3776 139.6 98.666C140.238 98.9545 140.73 99.3646 141.077 99.8964C141.423 100.43 141.596 101.056 141.596 101.776C141.596 102.468 141.434 103.072 141.111 103.587C140.787 104.102 140.325 104.505 139.723 104.796L141.787 107.804H138.89L137.152 105.26ZM138.437 100.736C138.154 100.49 137.735 100.367 137.179 100.367H135.677V103.169H137.18C137.736 103.169 138.155 103.048 138.438 102.807C138.72 102.565 138.862 102.221 138.861 101.774C138.861 101.328 138.719 100.982 138.437 100.736V100.736Z" fill="#F8F8F9"/>
<path d="M143.507 107.705C142.778 107.512 142.185 107.257 141.729 106.939L142.617 104.944C143.078 105.242 143.58 105.472 144.107 105.627C144.647 105.796 145.209 105.884 145.775 105.887C146.814 105.887 147.333 105.627 147.333 105.107C147.333 104.834 147.185 104.632 146.889 104.499C146.593 104.367 146.116 104.228 145.46 104.082C144.848 103.958 144.246 103.791 143.656 103.583C143.176 103.408 142.749 103.114 142.413 102.729C142.066 102.338 141.893 101.809 141.893 101.142C141.888 100.58 142.055 100.028 142.374 99.5641C142.694 99.0948 143.17 98.7235 143.802 98.4501C144.434 98.1767 145.211 98.04 146.132 98.04C146.758 98.0397 147.382 98.1108 147.992 98.252C148.558 98.3761 149.102 98.5857 149.605 98.8737L148.771 100.883C147.86 100.391 146.976 100.145 146.119 100.145C145.581 100.145 145.19 100.225 144.944 100.385C144.697 100.546 144.574 100.753 144.574 101.007C144.574 101.263 144.72 101.455 145.012 101.581C145.303 101.707 145.773 101.839 146.419 101.978C147.149 102.132 147.753 102.299 148.231 102.476C148.708 102.653 149.135 102.944 149.475 103.324C149.825 103.711 150.001 104.238 150.001 104.903C150.006 105.459 149.838 106.004 149.52 106.461C149.2 106.925 148.721 107.297 148.085 107.575C147.449 107.853 146.674 107.992 145.761 107.992C145.001 107.993 144.243 107.897 143.507 107.705V107.705Z" fill="#F8F8F9"/>
</svg>
