<svg width="360" height="405" viewBox="0 0 360 405" fill="none" xmlns="http://www.w3.org/2000/svg">
<rect width="360" height="405" fill="#E5E5E5"/>
<g clip-path="url(#clip0_2_51)">
<rect width="360" height="568" transform="translate(0 -162)" fill="white"/>
<path d="M0 0H360V406H0V0Z" fill="white"/>
<path d="M53.2509 48L46.8389 28.4H51.5429L57.1149 45.76H54.7629L60.5869 28.4H64.7869L70.3869 45.76H68.1189L73.8309 28.4H78.1709L71.7589 48H66.8869L61.9309 32.768H63.2189L58.1229 48H53.2509ZM89.4013 32.712C90.596 32.712 91.66 32.9547 92.5933 33.44C93.5453 33.9067 94.292 34.6347 94.8333 35.624C95.3746 36.5947 95.6453 37.8453 95.6453 39.376V48H91.2773V40.048C91.2773 38.8347 91.0066 37.9387 90.4653 37.36C89.9426 36.7813 89.196 36.492 88.2253 36.492C87.5346 36.492 86.9093 36.6413 86.3493 36.94C85.808 37.22 85.3786 37.6587 85.0613 38.256C84.7626 38.8533 84.6133 39.6187 84.6133 40.552V48H80.2453V27.224H84.6133V37.108L83.6333 35.848C84.1746 34.84 84.9493 34.0653 85.9573 33.524C86.9653 32.9827 88.1133 32.712 89.4013 32.712ZM108.285 48V45.06L108.005 44.416V39.152C108.005 38.2187 107.715 37.4907 107.137 36.968C106.577 36.4453 105.709 36.184 104.533 36.184C103.73 36.184 102.937 36.3147 102.153 36.576C101.387 36.8187 100.734 37.1547 100.193 37.584L98.6247 34.532C99.446 33.9533 100.435 33.5053 101.593 33.188C102.75 32.8707 103.926 32.712 105.121 32.712C107.417 32.712 109.199 33.2533 110.469 34.336C111.738 35.4187 112.373 37.108 112.373 39.404V48H108.285ZM103.693 48.224C102.517 48.224 101.509 48.028 100.669 47.636C99.8287 47.2253 99.1847 46.6747 98.7367 45.984C98.2887 45.2933 98.0647 44.5187 98.0647 43.66C98.0647 42.764 98.2793 41.98 98.7087 41.308C99.1567 40.636 99.8567 40.1133 100.809 39.74C101.761 39.348 103.002 39.152 104.533 39.152H108.537V41.7H105.009C103.982 41.7 103.273 41.868 102.881 42.204C102.507 42.54 102.321 42.96 102.321 43.464C102.321 44.024 102.535 44.472 102.965 44.808C103.413 45.1253 104.019 45.284 104.785 45.284C105.513 45.284 106.166 45.116 106.745 44.78C107.323 44.4253 107.743 43.912 108.005 43.24L108.677 45.256C108.359 46.2267 107.781 46.964 106.941 47.468C106.101 47.972 105.018 48.224 103.693 48.224ZM121.926 48.224C120.153 48.224 118.771 47.776 117.782 46.88C116.793 45.9653 116.298 44.612 116.298 42.82V29.604H120.666V42.764C120.666 43.3987 120.834 43.8933 121.17 44.248C121.506 44.584 121.963 44.752 122.542 44.752C123.233 44.752 123.821 44.5653 124.306 44.192L125.482 47.272C125.034 47.5893 124.493 47.832 123.858 48C123.242 48.1493 122.598 48.224 121.926 48.224ZM113.974 36.632V33.272H124.418V36.632H113.974ZM141.212 48.224C139.793 48.224 138.514 47.9067 137.376 47.272C136.237 46.6187 135.332 45.7133 134.66 44.556C134.006 43.3987 133.68 42.036 133.68 40.468C133.68 38.8813 134.006 37.5093 134.66 36.352C135.332 35.1947 136.237 34.2987 137.376 33.664C138.514 33.0293 139.793 32.712 141.212 32.712C142.481 32.712 143.592 32.992 144.544 33.552C145.496 34.112 146.233 34.9613 146.756 36.1C147.278 37.2387 147.54 38.6947 147.54 40.468C147.54 42.2227 147.288 43.6787 146.784 44.836C146.28 45.9747 145.552 46.824 144.6 47.384C143.666 47.944 142.537 48.224 141.212 48.224ZM141.968 44.64C142.677 44.64 143.321 44.472 143.9 44.136C144.478 43.8 144.936 43.324 145.272 42.708C145.626 42.0733 145.804 41.3267 145.804 40.468C145.804 39.5907 145.626 38.844 145.272 38.228C144.936 37.612 144.478 37.136 143.9 36.8C143.321 36.464 142.677 36.296 141.968 36.296C141.24 36.296 140.586 36.464 140.008 36.8C139.429 37.136 138.962 37.612 138.608 38.228C138.272 38.844 138.104 39.5907 138.104 40.468C138.104 41.3267 138.272 42.0733 138.608 42.708C138.962 43.324 139.429 43.8 140.008 44.136C140.586 44.472 141.24 44.64 141.968 44.64ZM145.916 48V44.92L146 40.44L145.72 35.988V27.224H150.088V48H145.916ZM160.738 48.224C159.133 48.224 157.705 47.888 156.454 47.216C155.222 46.544 154.242 45.6293 153.514 44.472C152.805 43.296 152.45 41.9613 152.45 40.468C152.45 38.956 152.805 37.6213 153.514 36.464C154.242 35.288 155.222 34.3733 156.454 33.72C157.705 33.048 159.133 32.712 160.738 32.712C162.325 32.712 163.744 33.048 164.994 33.72C166.245 34.3733 167.225 35.2787 167.934 36.436C168.644 37.5933 168.998 38.9373 168.998 40.468C168.998 41.9613 168.644 43.296 167.934 44.472C167.225 45.6293 166.245 46.544 164.994 47.216C163.744 47.888 162.325 48.224 160.738 48.224ZM160.738 44.64C161.466 44.64 162.12 44.472 162.698 44.136C163.277 43.8 163.734 43.324 164.07 42.708C164.406 42.0733 164.574 41.3267 164.574 40.468C164.574 39.5907 164.406 38.844 164.07 38.228C163.734 37.612 163.277 37.136 162.698 36.8C162.12 36.464 161.466 36.296 160.738 36.296C160.01 36.296 159.357 36.464 158.778 36.8C158.2 37.136 157.733 37.612 157.378 38.228C157.042 38.844 156.874 39.5907 156.874 40.468C156.874 41.3267 157.042 42.0733 157.378 42.708C157.733 43.324 158.2 43.8 158.778 44.136C159.357 44.472 160.01 44.64 160.738 44.64ZM180.632 53.656C179.848 53.656 179.073 53.5347 178.308 53.292C177.542 53.0493 176.917 52.7133 176.432 52.284L178.028 49.176C178.364 49.4747 178.746 49.708 179.176 49.876C179.624 50.044 180.062 50.128 180.492 50.128C181.108 50.128 181.593 49.9787 181.948 49.68C182.321 49.4 182.657 48.924 182.956 48.252L183.74 46.404L184.076 45.928L189.48 32.936H193.68L186.876 48.924C186.39 50.1373 185.83 51.0893 185.196 51.78C184.58 52.4707 183.889 52.956 183.124 53.236C182.377 53.516 181.546 53.656 180.632 53.656ZM183.208 48.588L176.488 32.936H180.996L186.204 45.536L183.208 48.588ZM201.66 48.224C200.055 48.224 198.627 47.888 197.376 47.216C196.144 46.544 195.164 45.6293 194.436 44.472C193.727 43.296 193.372 41.9613 193.372 40.468C193.372 38.956 193.727 37.6213 194.436 36.464C195.164 35.288 196.144 34.3733 197.376 33.72C198.627 33.048 200.055 32.712 201.66 32.712C203.247 32.712 204.665 33.048 205.916 33.72C207.167 34.3733 208.147 35.2787 208.856 36.436C209.565 37.5933 209.92 38.9373 209.92 40.468C209.92 41.9613 209.565 43.296 208.856 44.472C208.147 45.6293 207.167 46.544 205.916 47.216C204.665 47.888 203.247 48.224 201.66 48.224ZM201.66 44.64C202.388 44.64 203.041 44.472 203.62 44.136C204.199 43.8 204.656 43.324 204.992 42.708C205.328 42.0733 205.496 41.3267 205.496 40.468C205.496 39.5907 205.328 38.844 204.992 38.228C204.656 37.612 204.199 37.136 203.62 36.8C203.041 36.464 202.388 36.296 201.66 36.296C200.932 36.296 200.279 36.464 199.7 36.8C199.121 37.136 198.655 37.612 198.3 38.228C197.964 38.844 197.796 39.5907 197.796 40.468C197.796 41.3267 197.964 42.0733 198.3 42.708C198.655 43.324 199.121 43.8 199.7 44.136C200.279 44.472 200.932 44.64 201.66 44.64ZM218.636 48.224C217.385 48.224 216.265 47.9813 215.276 47.496C214.305 47.0107 213.549 46.2733 213.008 45.284C212.466 44.276 212.196 42.9973 212.196 41.448V32.936H216.564V40.804C216.564 42.0547 216.825 42.9787 217.348 43.576C217.889 44.1547 218.645 44.444 219.616 44.444C220.288 44.444 220.885 44.304 221.408 44.024C221.93 43.7253 222.341 43.2773 222.64 42.68C222.938 42.064 223.088 41.2987 223.088 40.384V32.936H227.456V48H223.312V43.856L224.068 45.06C223.564 46.1053 222.817 46.8987 221.828 47.44C220.857 47.9627 219.793 48.224 218.636 48.224ZM245.788 48.224C244.071 48.224 242.559 47.888 241.252 47.216C239.964 46.544 238.965 45.6293 238.256 44.472C237.547 43.296 237.192 41.9613 237.192 40.468C237.192 38.956 237.537 37.6213 238.228 36.464C238.937 35.288 239.899 34.3733 241.112 33.72C242.325 33.048 243.697 32.712 245.228 32.712C246.703 32.712 248.028 33.0293 249.204 33.664C250.399 34.28 251.341 35.176 252.032 36.352C252.723 37.5093 253.068 38.9 253.068 40.524C253.068 40.692 253.059 40.888 253.04 41.112C253.021 41.3173 253.003 41.5133 252.984 41.7H240.748V39.152H250.688L249.008 39.908C249.008 39.124 248.849 38.4427 248.532 37.864C248.215 37.2853 247.776 36.8373 247.216 36.52C246.656 36.184 246.003 36.016 245.256 36.016C244.509 36.016 243.847 36.184 243.268 36.52C242.708 36.8373 242.269 37.2947 241.952 37.892C241.635 38.4707 241.476 39.1613 241.476 39.964V40.636C241.476 41.4573 241.653 42.1853 242.008 42.82C242.381 43.436 242.895 43.912 243.548 44.248C244.22 44.5653 245.004 44.724 245.9 44.724C246.703 44.724 247.403 44.6027 248 44.36C248.616 44.1173 249.176 43.7533 249.68 43.268L252.004 45.788C251.313 46.572 250.445 47.1787 249.4 47.608C248.355 48.0187 247.151 48.224 245.788 48.224ZM264.572 32.712C265.767 32.712 266.831 32.9547 267.764 33.44C268.716 33.9067 269.463 34.6347 270.004 35.624C270.545 36.5947 270.816 37.8453 270.816 39.376V48H266.448V40.048C266.448 38.8347 266.177 37.9387 265.636 37.36C265.113 36.7813 264.367 36.492 263.396 36.492C262.705 36.492 262.08 36.6413 261.52 36.94C260.979 37.22 260.549 37.6587 260.232 38.256C259.933 38.8533 259.784 39.6187 259.784 40.552V48H255.416V32.936H259.588V37.108L258.804 35.848C259.345 34.84 260.12 34.0653 261.128 33.524C262.136 32.9827 263.284 32.712 264.572 32.712ZM273.095 53.656C272.423 53.656 271.779 53.5813 271.163 53.432C270.547 53.3013 270.025 53.096 269.595 52.816L270.771 49.652C271.275 50.0067 271.891 50.184 272.619 50.184C273.161 50.184 273.59 49.9973 273.907 49.624C274.243 49.2693 274.411 48.728 274.411 48V32.936H278.779V47.972C278.779 49.708 278.285 51.0893 277.295 52.116C276.306 53.1427 274.906 53.656 273.095 53.656ZM276.595 30.836C275.793 30.836 275.139 30.6027 274.635 30.136C274.131 29.6693 273.879 29.0907 273.879 28.4C273.879 27.7093 274.131 27.1307 274.635 26.664C275.139 26.1973 275.793 25.964 276.595 25.964C277.398 25.964 278.051 26.188 278.555 26.636C279.059 27.0653 279.311 27.6253 279.311 28.316C279.311 29.044 279.059 29.6507 278.555 30.136C278.07 30.6027 277.417 30.836 276.595 30.836ZM289.409 48.224C287.804 48.224 286.376 47.888 285.125 47.216C283.893 46.544 282.913 45.6293 282.185 44.472C281.476 43.296 281.121 41.9613 281.121 40.468C281.121 38.956 281.476 37.6213 282.185 36.464C282.913 35.288 283.893 34.3733 285.125 33.72C286.376 33.048 287.804 32.712 289.409 32.712C290.996 32.712 292.415 33.048 293.665 33.72C294.916 34.3733 295.896 35.2787 296.605 36.436C297.315 37.5933 297.669 38.9373 297.669 40.468C297.669 41.9613 297.315 43.296 296.605 44.472C295.896 45.6293 294.916 46.544 293.665 47.216C292.415 47.888 290.996 48.224 289.409 48.224ZM289.409 44.64C290.137 44.64 290.791 44.472 291.369 44.136C291.948 43.8 292.405 43.324 292.741 42.708C293.077 42.0733 293.245 41.3267 293.245 40.468C293.245 39.5907 293.077 38.844 292.741 38.228C292.405 37.612 291.948 37.136 291.369 36.8C290.791 36.464 290.137 36.296 289.409 36.296C288.681 36.296 288.028 36.464 287.449 36.8C286.871 37.136 286.404 37.612 286.049 38.228C285.713 38.844 285.545 39.5907 285.545 40.468C285.545 41.3267 285.713 42.0733 286.049 42.708C286.404 43.324 286.871 43.8 287.449 44.136C288.028 44.472 288.681 44.64 289.409 44.64ZM301.523 53.656C300.739 53.656 299.964 53.5347 299.199 53.292C298.433 53.0493 297.808 52.7133 297.323 52.284L298.919 49.176C299.255 49.4747 299.637 49.708 300.067 49.876C300.515 50.044 300.953 50.128 301.383 50.128C301.999 50.128 302.484 49.9787 302.839 49.68C303.212 49.4 303.548 48.924 303.847 48.252L304.631 46.404L304.967 45.928L310.371 32.936H314.571L307.767 48.924C307.281 50.1373 306.721 51.0893 306.087 51.78C305.471 52.4707 304.78 52.956 304.015 53.236C303.268 53.516 302.437 53.656 301.523 53.656ZM304.099 48.588L297.379 32.936H301.887L307.095 45.536L304.099 48.588ZM103.347 84.224C101.928 84.224 100.649 83.9067 99.5105 83.272C98.3718 82.6187 97.4665 81.7133 96.7945 80.556C96.1412 79.3987 95.8145 78.036 95.8145 76.468C95.8145 74.8813 96.1412 73.5093 96.7945 72.352C97.4665 71.1947 98.3718 70.2987 99.5105 69.664C100.649 69.0293 101.928 68.712 103.347 68.712C104.616 68.712 105.727 68.992 106.679 69.552C107.631 70.112 108.368 70.9613 108.891 72.1C109.413 73.2387 109.675 74.6947 109.675 76.468C109.675 78.2227 109.423 79.6787 108.919 80.836C108.415 81.9747 107.687 82.824 106.735 83.384C105.801 83.944 104.672 84.224 103.347 84.224ZM104.103 80.64C104.812 80.64 105.456 80.472 106.035 80.136C106.613 79.8 107.071 79.324 107.407 78.708C107.761 78.0733 107.939 77.3267 107.939 76.468C107.939 75.5907 107.761 74.844 107.407 74.228C107.071 73.612 106.613 73.136 106.035 72.8C105.456 72.464 104.812 72.296 104.103 72.296C103.375 72.296 102.721 72.464 102.143 72.8C101.564 73.136 101.097 73.612 100.743 74.228C100.407 74.844 100.239 75.5907 100.239 76.468C100.239 77.3267 100.407 78.0733 100.743 78.708C101.097 79.324 101.564 79.8 102.143 80.136C102.721 80.472 103.375 80.64 104.103 80.64ZM108.051 84V80.92L108.135 76.44L107.855 71.988V63.224H112.223V84H108.051ZM122.873 84.224C121.268 84.224 119.84 83.888 118.589 83.216C117.357 82.544 116.377 81.6293 115.649 80.472C114.94 79.296 114.585 77.9613 114.585 76.468C114.585 74.956 114.94 73.6213 115.649 72.464C116.377 71.288 117.357 70.3733 118.589 69.72C119.84 69.048 121.268 68.712 122.873 68.712C124.46 68.712 125.879 69.048 127.129 69.72C128.38 70.3733 129.36 71.2787 130.069 72.436C130.779 73.5933 131.133 74.9373 131.133 76.468C131.133 77.9613 130.779 79.296 130.069 80.472C129.36 81.6293 128.38 82.544 127.129 83.216C125.879 83.888 124.46 84.224 122.873 84.224ZM122.873 80.64C123.601 80.64 124.255 80.472 124.833 80.136C125.412 79.8 125.869 79.324 126.205 78.708C126.541 78.0733 126.709 77.3267 126.709 76.468C126.709 75.5907 126.541 74.844 126.205 74.228C125.869 73.612 125.412 73.136 124.833 72.8C124.255 72.464 123.601 72.296 122.873 72.296C122.145 72.296 121.492 72.464 120.913 72.8C120.335 73.136 119.868 73.612 119.513 74.228C119.177 74.844 119.009 75.5907 119.009 76.468C119.009 77.3267 119.177 78.0733 119.513 78.708C119.868 79.324 120.335 79.8 120.913 80.136C121.492 80.472 122.145 80.64 122.873 80.64ZM133.493 84V68.936H137.861V84H133.493ZM135.677 66.836C134.874 66.836 134.221 66.6027 133.717 66.136C133.213 65.6693 132.961 65.0907 132.961 64.4C132.961 63.7093 133.213 63.1307 133.717 62.664C134.221 62.1973 134.874 61.964 135.677 61.964C136.48 61.964 137.133 62.188 137.637 62.636C138.141 63.0653 138.393 63.6253 138.393 64.316C138.393 65.044 138.141 65.6507 137.637 66.136C137.152 66.6027 136.498 66.836 135.677 66.836ZM150.511 68.712C151.705 68.712 152.769 68.9547 153.703 69.44C154.655 69.9067 155.401 70.6347 155.943 71.624C156.484 72.5947 156.755 73.8453 156.755 75.376V84H152.387V76.048C152.387 74.8347 152.116 73.9387 151.575 73.36C151.052 72.7813 150.305 72.492 149.335 72.492C148.644 72.492 148.019 72.6413 147.459 72.94C146.917 73.22 146.488 73.6587 146.171 74.256C145.872 74.8533 145.723 75.6187 145.723 76.552V84H141.355V68.936H145.527V73.108L144.743 71.848C145.284 70.84 146.059 70.0653 147.067 69.524C148.075 68.9827 149.223 68.712 150.511 68.712ZM167.347 89.656C165.929 89.656 164.557 89.4787 163.231 89.124C161.925 88.788 160.833 88.2747 159.955 87.584L161.691 84.448C162.326 84.9707 163.129 85.3813 164.099 85.68C165.089 85.9973 166.059 86.156 167.011 86.156C168.561 86.156 169.681 85.8107 170.371 85.12C171.081 84.4293 171.435 83.4027 171.435 82.04V79.772L171.715 75.992L171.659 72.184V68.936H175.803V81.48C175.803 84.28 175.075 86.3427 173.619 87.668C172.163 88.9933 170.073 89.656 167.347 89.656ZM166.675 83.272C165.275 83.272 164.006 82.9733 162.867 82.376C161.747 81.76 160.842 80.9107 160.151 79.828C159.479 78.7267 159.143 77.448 159.143 75.992C159.143 74.5173 159.479 73.2387 160.151 72.156C160.842 71.0547 161.747 70.2053 162.867 69.608C164.006 69.0107 165.275 68.712 166.675 68.712C167.945 68.712 169.065 68.9733 170.035 69.496C171.006 70 171.762 70.7933 172.303 71.876C172.845 72.94 173.115 74.312 173.115 75.992C173.115 77.6533 172.845 79.0253 172.303 80.108C171.762 81.172 171.006 81.9653 170.035 82.488C169.065 83.0107 167.945 83.272 166.675 83.272ZM167.543 79.688C168.309 79.688 168.99 79.5387 169.587 79.24C170.185 78.9227 170.651 78.484 170.987 77.924C171.323 77.364 171.491 76.72 171.491 75.992C171.491 75.2453 171.323 74.6013 170.987 74.06C170.651 73.5 170.185 73.0707 169.587 72.772C168.99 72.4547 168.309 72.296 167.543 72.296C166.778 72.296 166.097 72.4547 165.499 72.772C164.902 73.0707 164.426 73.5 164.071 74.06C163.735 74.6013 163.567 75.2453 163.567 75.992C163.567 76.72 163.735 77.364 164.071 77.924C164.426 78.484 164.902 78.9227 165.499 79.24C166.097 79.5387 166.778 79.688 167.543 79.688ZM190.123 84L184.691 68.936H188.807L193.315 81.9H191.355L196.059 68.936H199.755L204.319 81.9H202.359L207.007 68.936H210.871L205.411 84H201.183L197.179 72.884H198.467L194.323 84H190.123ZM221.497 68.712C222.692 68.712 223.756 68.9547 224.689 69.44C225.641 69.9067 226.388 70.6347 226.929 71.624C227.471 72.5947 227.741 73.8453 227.741 75.376V84H223.373V76.048C223.373 74.8347 223.103 73.9387 222.561 73.36C222.039 72.7813 221.292 72.492 220.321 72.492C219.631 72.492 219.005 72.6413 218.445 72.94C217.904 73.22 217.475 73.6587 217.157 74.256C216.859 74.8533 216.709 75.6187 216.709 76.552V84H212.341V63.224H216.709V73.108L215.729 71.848C216.271 70.84 217.045 70.0653 218.053 69.524C219.061 68.9827 220.209 68.712 221.497 68.712ZM238.726 84.224C237.009 84.224 235.497 83.888 234.19 83.216C232.902 82.544 231.903 81.6293 231.194 80.472C230.485 79.296 230.13 77.9613 230.13 76.468C230.13 74.956 230.475 73.6213 231.166 72.464C231.875 71.288 232.837 70.3733 234.05 69.72C235.263 69.048 236.635 68.712 238.166 68.712C239.641 68.712 240.966 69.0293 242.142 69.664C243.337 70.28 244.279 71.176 244.97 72.352C245.661 73.5093 246.006 74.9 246.006 76.524C246.006 76.692 245.997 76.888 245.978 77.112C245.959 77.3173 245.941 77.5133 245.922 77.7H233.686V75.152H243.626L241.946 75.908C241.946 75.124 241.787 74.4427 241.47 73.864C241.153 73.2853 240.714 72.8373 240.154 72.52C239.594 72.184 238.941 72.016 238.194 72.016C237.447 72.016 236.785 72.184 236.206 72.52C235.646 72.8373 235.207 73.2947 234.89 73.892C234.573 74.4707 234.414 75.1613 234.414 75.964V76.636C234.414 77.4573 234.591 78.1853 234.946 78.82C235.319 79.436 235.833 79.912 236.486 80.248C237.158 80.5653 237.942 80.724 238.838 80.724C239.641 80.724 240.341 80.6027 240.938 80.36C241.554 80.1173 242.114 79.7533 242.618 79.268L244.942 81.788C244.251 82.572 243.383 83.1787 242.338 83.608C241.293 84.0187 240.089 84.224 238.726 84.224ZM257.51 68.712C258.705 68.712 259.769 68.9547 260.702 69.44C261.654 69.9067 262.401 70.6347 262.942 71.624C263.483 72.5947 263.754 73.8453 263.754 75.376V84H259.386V76.048C259.386 74.8347 259.115 73.9387 258.574 73.36C258.051 72.7813 257.305 72.492 256.334 72.492C255.643 72.492 255.018 72.6413 254.458 72.94C253.917 73.22 253.487 73.6587 253.17 74.256C252.871 74.8533 252.722 75.6187 252.722 76.552V84H248.354V68.936H252.526V73.108L251.742 71.848C252.283 70.84 253.058 70.0653 254.066 69.524C255.074 68.9827 256.222 68.712 257.51 68.712ZM116.82 104.712C118.015 104.712 119.07 104.955 119.984 105.44C120.918 105.907 121.646 106.635 122.168 107.624C122.71 108.595 122.98 109.845 122.98 111.376V120H118.612V112.048C118.612 110.835 118.36 109.939 117.856 109.36C117.352 108.781 116.643 108.492 115.728 108.492C115.094 108.492 114.524 108.641 114.02 108.94C113.516 109.22 113.124 109.649 112.844 110.228C112.564 110.807 112.424 111.544 112.424 112.44V120H108.056V112.048C108.056 110.835 107.804 109.939 107.3 109.36C106.815 108.781 106.115 108.492 105.2 108.492C104.566 108.492 103.996 108.641 103.492 108.94C102.988 109.22 102.596 109.649 102.316 110.228C102.036 110.807 101.896 111.544 101.896 112.44V120H97.5282V104.936H101.7V109.052L100.916 107.848C101.439 106.821 102.176 106.047 103.128 105.524C104.099 104.983 105.2 104.712 106.432 104.712C107.814 104.712 109.018 105.067 110.044 105.776C111.09 106.467 111.78 107.531 112.116 108.968L110.576 108.548C111.08 107.372 111.883 106.439 112.984 105.748C114.104 105.057 115.383 104.712 116.82 104.712ZM133.921 120.224C132.203 120.224 130.691 119.888 129.385 119.216C128.097 118.544 127.098 117.629 126.389 116.472C125.679 115.296 125.325 113.961 125.325 112.468C125.325 110.956 125.67 109.621 126.361 108.464C127.07 107.288 128.031 106.373 129.245 105.72C130.458 105.048 131.83 104.712 133.361 104.712C134.835 104.712 136.161 105.029 137.337 105.664C138.531 106.28 139.474 107.176 140.165 108.352C140.855 109.509 141.201 110.9 141.201 112.524C141.201 112.692 141.191 112.888 141.173 113.112C141.154 113.317 141.135 113.513 141.117 113.7H128.881V111.152H138.821L137.141 111.908C137.141 111.124 136.982 110.443 136.665 109.864C136.347 109.285 135.909 108.837 135.349 108.52C134.789 108.184 134.135 108.016 133.389 108.016C132.642 108.016 131.979 108.184 131.401 108.52C130.841 108.837 130.402 109.295 130.085 109.892C129.767 110.471 129.609 111.161 129.609 111.964V112.636C129.609 113.457 129.786 114.185 130.141 114.82C130.514 115.436 131.027 115.912 131.681 116.248C132.353 116.565 133.137 116.724 134.033 116.724C134.835 116.724 135.535 116.603 136.133 116.36C136.749 116.117 137.309 115.753 137.813 115.268L140.137 117.788C139.446 118.572 138.578 119.179 137.533 119.608C136.487 120.019 135.283 120.224 133.921 120.224ZM150.017 120.224C148.598 120.224 147.319 119.907 146.181 119.272C145.042 118.619 144.137 117.713 143.465 116.556C142.811 115.399 142.485 114.036 142.485 112.468C142.485 110.881 142.811 109.509 143.465 108.352C144.137 107.195 145.042 106.299 146.181 105.664C147.319 105.029 148.598 104.712 150.017 104.712C151.286 104.712 152.397 104.992 153.349 105.552C154.301 106.112 155.038 106.961 155.561 108.1C156.083 109.239 156.345 110.695 156.345 112.468C156.345 114.223 156.093 115.679 155.589 116.836C155.085 117.975 154.357 118.824 153.405 119.384C152.471 119.944 151.342 120.224 150.017 120.224ZM150.773 116.64C151.482 116.64 152.126 116.472 152.705 116.136C153.283 115.8 153.741 115.324 154.077 114.708C154.431 114.073 154.609 113.327 154.609 112.468C154.609 111.591 154.431 110.844 154.077 110.228C153.741 109.612 153.283 109.136 152.705 108.8C152.126 108.464 151.482 108.296 150.773 108.296C150.045 108.296 149.391 108.464 148.813 108.8C148.234 109.136 147.767 109.612 147.413 110.228C147.077 110.844 146.909 111.591 146.909 112.468C146.909 113.327 147.077 114.073 147.413 114.708C147.767 115.324 148.234 115.8 148.813 116.136C149.391 116.472 150.045 116.64 150.773 116.64ZM154.721 120V116.92L154.805 112.44L154.525 107.988V99.224H158.893V120H154.721ZM162.376 120V104.936H166.744V120H162.376ZM164.56 102.836C163.757 102.836 163.104 102.603 162.6 102.136C162.096 101.669 161.844 101.091 161.844 100.4C161.844 99.7093 162.096 99.1307 162.6 98.664C163.104 98.1973 163.757 97.964 164.56 97.964C165.362 97.964 166.016 98.188 166.52 98.636C167.024 99.0653 167.276 99.6253 167.276 100.316C167.276 101.044 167.024 101.651 166.52 102.136C166.034 102.603 165.381 102.836 164.56 102.836ZM177.517 120.224C175.893 120.224 174.447 119.897 173.177 119.244C171.908 118.572 170.909 117.648 170.181 116.472C169.472 115.296 169.117 113.961 169.117 112.468C169.117 110.956 169.472 109.621 170.181 108.464C170.909 107.288 171.908 106.373 173.177 105.72C174.447 105.048 175.893 104.712 177.517 104.712C179.104 104.712 180.485 105.048 181.661 105.72C182.837 106.373 183.705 107.316 184.265 108.548L180.877 110.368C180.485 109.659 179.991 109.136 179.393 108.8C178.815 108.464 178.18 108.296 177.489 108.296C176.743 108.296 176.071 108.464 175.473 108.8C174.876 109.136 174.4 109.612 174.045 110.228C173.709 110.844 173.541 111.591 173.541 112.468C173.541 113.345 173.709 114.092 174.045 114.708C174.4 115.324 174.876 115.8 175.473 116.136C176.071 116.472 176.743 116.64 177.489 116.64C178.18 116.64 178.815 116.481 179.393 116.164C179.991 115.828 180.485 115.296 180.877 114.568L184.265 116.416C183.705 117.629 182.837 118.572 181.661 119.244C180.485 119.897 179.104 120.224 177.517 120.224ZM195.46 120V117.06L195.18 116.416V111.152C195.18 110.219 194.891 109.491 194.312 108.968C193.752 108.445 192.884 108.184 191.708 108.184C190.906 108.184 190.112 108.315 189.328 108.576C188.563 108.819 187.91 109.155 187.368 109.584L185.8 106.532C186.622 105.953 187.611 105.505 188.768 105.188C189.926 104.871 191.102 104.712 192.296 104.712C194.592 104.712 196.375 105.253 197.644 106.336C198.914 107.419 199.548 109.108 199.548 111.404V120H195.46ZM190.868 120.224C189.692 120.224 188.684 120.028 187.844 119.636C187.004 119.225 186.36 118.675 185.912 117.984C185.464 117.293 185.24 116.519 185.24 115.66C185.24 114.764 185.455 113.98 185.884 113.308C186.332 112.636 187.032 112.113 187.984 111.74C188.936 111.348 190.178 111.152 191.708 111.152H195.712V113.7H192.184C191.158 113.7 190.448 113.868 190.056 114.204C189.683 114.54 189.496 114.96 189.496 115.464C189.496 116.024 189.711 116.472 190.14 116.808C190.588 117.125 191.195 117.284 191.96 117.284C192.688 117.284 193.342 117.116 193.92 116.78C194.499 116.425 194.919 115.912 195.18 115.24L195.852 117.256C195.535 118.227 194.956 118.964 194.116 119.468C193.276 119.972 192.194 120.224 190.868 120.224ZM209.102 120.224C207.328 120.224 205.947 119.776 204.958 118.88C203.968 117.965 203.474 116.612 203.474 114.82V101.604H207.842V114.764C207.842 115.399 208.01 115.893 208.346 116.248C208.682 116.584 209.139 116.752 209.718 116.752C210.408 116.752 210.996 116.565 211.482 116.192L212.658 119.272C212.21 119.589 211.668 119.832 211.034 120C210.418 120.149 209.774 120.224 209.102 120.224ZM201.15 108.632V105.272H211.594V108.632H201.15ZM221.561 120.224C219.843 120.224 218.331 119.888 217.025 119.216C215.737 118.544 214.738 117.629 214.029 116.472C213.319 115.296 212.965 113.961 212.965 112.468C212.965 110.956 213.31 109.621 214.001 108.464C214.71 107.288 215.671 106.373 216.885 105.72C218.098 105.048 219.47 104.712 221.001 104.712C222.475 104.712 223.801 105.029 224.977 105.664C226.171 106.28 227.114 107.176 227.805 108.352C228.495 109.509 228.841 110.9 228.841 112.524C228.841 112.692 228.831 112.888 228.813 113.112C228.794 113.317 228.775 113.513 228.757 113.7H216.521V111.152H226.461L224.781 111.908C224.781 111.124 224.622 110.443 224.305 109.864C223.987 109.285 223.549 108.837 222.989 108.52C222.429 108.184 221.775 108.016 221.029 108.016C220.282 108.016 219.619 108.184 219.041 108.52C218.481 108.837 218.042 109.295 217.725 109.892C217.407 110.471 217.249 111.161 217.249 111.964V112.636C217.249 113.457 217.426 114.185 217.781 114.82C218.154 115.436 218.667 115.912 219.321 116.248C219.993 116.565 220.777 116.724 221.673 116.724C222.475 116.724 223.175 116.603 223.773 116.36C224.389 116.117 224.949 115.753 225.453 115.268L227.777 117.788C227.086 118.572 226.218 119.179 225.173 119.608C224.127 120.019 222.923 120.224 221.561 120.224ZM237.657 120.224C236.238 120.224 234.959 119.907 233.821 119.272C232.682 118.619 231.777 117.713 231.105 116.556C230.451 115.399 230.125 114.036 230.125 112.468C230.125 110.881 230.451 109.509 231.105 108.352C231.777 107.195 232.682 106.299 233.821 105.664C234.959 105.029 236.238 104.712 237.657 104.712C238.926 104.712 240.037 104.992 240.989 105.552C241.941 106.112 242.678 106.961 243.201 108.1C243.723 109.239 243.985 110.695 243.985 112.468C243.985 114.223 243.733 115.679 243.229 116.836C242.725 117.975 241.997 118.824 241.045 119.384C240.111 119.944 238.982 120.224 237.657 120.224ZM238.413 116.64C239.122 116.64 239.766 116.472 240.345 116.136C240.923 115.8 241.381 115.324 241.717 114.708C242.071 114.073 242.249 113.327 242.249 112.468C242.249 111.591 242.071 110.844 241.717 110.228C241.381 109.612 240.923 109.136 240.345 108.8C239.766 108.464 239.122 108.296 238.413 108.296C237.685 108.296 237.031 108.464 236.453 108.8C235.874 109.136 235.407 109.612 235.053 110.228C234.717 110.844 234.549 111.591 234.549 112.468C234.549 113.327 234.717 114.073 235.053 114.708C235.407 115.324 235.874 115.8 236.453 116.136C237.031 116.472 237.685 116.64 238.413 116.64ZM242.361 120V116.92L242.445 112.44L242.165 107.988V99.224H246.533V120H242.361ZM254.076 113.196C254.076 112.543 254.178 111.964 254.384 111.46C254.608 110.956 254.878 110.508 255.196 110.116C255.532 109.724 255.886 109.36 256.26 109.024C256.633 108.688 256.978 108.371 257.296 108.072C257.632 107.755 257.902 107.428 258.108 107.092C258.332 106.756 258.444 106.383 258.444 105.972C258.444 105.3 258.164 104.759 257.604 104.348C257.062 103.937 256.334 103.732 255.42 103.732C254.542 103.732 253.758 103.919 253.068 104.292C252.377 104.647 251.808 105.151 251.36 105.804L247.972 103.816C248.718 102.677 249.754 101.772 251.08 101.1C252.405 100.409 254.01 100.064 255.896 100.064C257.296 100.064 258.528 100.269 259.592 100.68C260.656 101.072 261.486 101.651 262.084 102.416C262.7 103.181 263.008 104.124 263.008 105.244C263.008 105.972 262.896 106.616 262.672 107.176C262.448 107.736 262.158 108.221 261.804 108.632C261.449 109.043 261.066 109.425 260.656 109.78C260.264 110.135 259.89 110.48 259.536 110.816C259.181 111.152 258.882 111.507 258.64 111.88C258.416 112.253 258.304 112.692 258.304 113.196H254.076ZM256.204 120.224C255.42 120.224 254.776 119.972 254.272 119.468C253.768 118.964 253.516 118.367 253.516 117.676C253.516 116.967 253.768 116.379 254.272 115.912C254.776 115.427 255.42 115.184 256.204 115.184C257.006 115.184 257.65 115.427 258.136 115.912C258.64 116.379 258.892 116.967 258.892 117.676C258.892 118.367 258.64 118.964 258.136 119.468C257.65 119.972 257.006 120.224 256.204 120.224Z" fill="#091D22"/>
<g clip-path="url(#clip1_2_51)">
<path d="M92.824 174V162.8H97.656C98.904 162.8 99.8693 163.051 100.552 163.552C101.245 164.053 101.592 164.763 101.592 165.68C101.592 166.288 101.448 166.8 101.16 167.216C100.883 167.632 100.499 167.947 100.008 168.16C99.528 168.373 99 168.48 98.424 168.48L98.696 168.096C99.4107 168.096 100.024 168.208 100.536 168.432C101.059 168.645 101.464 168.971 101.752 169.408C102.04 169.835 102.184 170.368 102.184 171.008C102.184 171.957 101.832 172.693 101.128 173.216C100.435 173.739 99.384 174 97.976 174H92.824ZM94.008 173.024H97.96C98.9413 173.024 99.6933 172.859 100.216 172.528C100.739 172.187 101 171.648 101 170.912C101 170.187 100.739 169.659 100.216 169.328C99.6933 168.987 98.9413 168.816 97.96 168.816H93.88V167.84H97.576C98.472 167.84 99.1653 167.669 99.656 167.328C100.157 166.987 100.408 166.48 100.408 165.808C100.408 165.125 100.157 164.619 99.656 164.288C99.1653 163.947 98.472 163.776 97.576 163.776H94.008V173.024ZM108.694 174.08C107.82 174.08 107.052 173.899 106.39 173.536C105.729 173.163 105.212 172.656 104.838 172.016C104.465 171.365 104.278 170.624 104.278 169.792C104.278 168.96 104.454 168.224 104.806 167.584C105.169 166.944 105.66 166.443 106.278 166.08C106.908 165.707 107.612 165.52 108.39 165.52C109.18 165.52 109.878 165.701 110.486 166.064C111.105 166.416 111.59 166.917 111.943 167.568C112.295 168.208 112.47 168.949 112.47 169.792C112.47 169.845 112.465 169.904 112.455 169.968C112.455 170.021 112.455 170.08 112.455 170.144H105.142V169.296H111.847L111.398 169.632C111.398 169.024 111.265 168.485 110.998 168.016C110.742 167.536 110.39 167.163 109.942 166.896C109.494 166.629 108.977 166.496 108.39 166.496C107.814 166.496 107.297 166.629 106.838 166.896C106.38 167.163 106.022 167.536 105.766 168.016C105.51 168.496 105.382 169.045 105.382 169.664V169.84C105.382 170.48 105.521 171.045 105.798 171.536C106.086 172.016 106.481 172.395 106.982 172.672C107.494 172.939 108.076 173.072 108.726 173.072C109.238 173.072 109.713 172.981 110.15 172.8C110.598 172.619 110.982 172.341 111.302 171.968L111.943 172.704C111.569 173.152 111.1 173.493 110.534 173.728C109.98 173.963 109.366 174.08 108.694 174.08ZM115.263 174V165.6H116.399V174H115.263ZM115.839 163.744C115.604 163.744 115.407 163.664 115.247 163.504C115.087 163.344 115.007 163.152 115.007 162.928C115.007 162.704 115.087 162.517 115.247 162.368C115.407 162.208 115.604 162.128 115.839 162.128C116.073 162.128 116.271 162.203 116.431 162.352C116.591 162.501 116.671 162.688 116.671 162.912C116.671 163.147 116.591 163.344 116.431 163.504C116.281 163.664 116.084 163.744 115.839 163.744ZM124.328 165.52C125.01 165.52 125.608 165.653 126.12 165.92C126.642 166.176 127.048 166.571 127.336 167.104C127.634 167.637 127.784 168.309 127.784 169.12V174H126.648V169.232C126.648 168.347 126.424 167.68 125.976 167.232C125.538 166.773 124.92 166.544 124.12 166.544C123.522 166.544 123 166.667 122.552 166.912C122.114 167.147 121.773 167.493 121.528 167.952C121.293 168.4 121.176 168.944 121.176 169.584V174H120.04V165.6H121.128V167.904L120.952 167.472C121.218 166.864 121.645 166.389 122.232 166.048C122.818 165.696 123.517 165.52 124.328 165.52ZM134.916 177.184C134.148 177.184 133.412 177.072 132.708 176.848C132.004 176.624 131.433 176.304 130.996 175.888L131.572 175.024C131.967 175.376 132.452 175.653 133.028 175.856C133.615 176.069 134.233 176.176 134.884 176.176C135.951 176.176 136.735 175.925 137.236 175.424C137.737 174.933 137.988 174.165 137.988 173.12V171.024L138.148 169.584L138.036 168.144V165.6H139.124V172.976C139.124 174.427 138.767 175.488 138.052 176.16C137.348 176.843 136.303 177.184 134.916 177.184ZM134.708 173.68C133.908 173.68 133.188 173.509 132.548 173.168C131.908 172.816 131.401 172.331 131.028 171.712C130.665 171.093 130.484 170.384 130.484 169.584C130.484 168.784 130.665 168.08 131.028 167.472C131.401 166.853 131.908 166.373 132.548 166.032C133.188 165.691 133.908 165.52 134.708 165.52C135.455 165.52 136.127 165.675 136.724 165.984C137.321 166.293 137.796 166.752 138.148 167.36C138.5 167.968 138.676 168.709 138.676 169.584C138.676 170.459 138.5 171.2 138.148 171.808C137.796 172.416 137.321 172.88 136.724 173.2C136.127 173.52 135.455 173.68 134.708 173.68ZM134.82 172.672C135.439 172.672 135.988 172.544 136.468 172.288C136.948 172.021 137.327 171.659 137.604 171.2C137.881 170.731 138.02 170.192 138.02 169.584C138.02 168.976 137.881 168.443 137.604 167.984C137.327 167.525 136.948 167.168 136.468 166.912C135.988 166.645 135.439 166.512 134.82 166.512C134.212 166.512 133.663 166.645 133.172 166.912C132.692 167.168 132.313 167.525 132.036 167.984C131.769 168.443 131.636 168.976 131.636 169.584C131.636 170.192 131.769 170.731 132.036 171.2C132.313 171.659 132.692 172.021 133.172 172.288C133.663 172.544 134.212 172.672 134.82 172.672ZM145.881 174L151.001 162.8H152.169L157.289 174H156.041L151.337 163.488H151.817L147.113 174H145.881ZM147.897 171.008L148.249 170.048H154.761L155.113 171.008H147.897ZM162.791 174.08C161.959 174.08 161.213 173.899 160.551 173.536C159.901 173.163 159.389 172.656 159.015 172.016C158.642 171.365 158.455 170.624 158.455 169.792C158.455 168.949 158.642 168.208 159.015 167.568C159.389 166.928 159.901 166.427 160.551 166.064C161.213 165.701 161.959 165.52 162.791 165.52C163.506 165.52 164.151 165.659 164.727 165.936C165.303 166.213 165.757 166.629 166.087 167.184L165.239 167.76C164.951 167.333 164.594 167.019 164.167 166.816C163.741 166.613 163.277 166.512 162.775 166.512C162.178 166.512 161.639 166.651 161.159 166.928C160.679 167.195 160.301 167.573 160.023 168.064C159.746 168.555 159.607 169.131 159.607 169.792C159.607 170.453 159.746 171.029 160.023 171.52C160.301 172.011 160.679 172.395 161.159 172.672C161.639 172.939 162.178 173.072 162.775 173.072C163.277 173.072 163.741 172.971 164.167 172.768C164.594 172.565 164.951 172.256 165.239 171.84L166.087 172.416C165.757 172.96 165.303 173.376 164.727 173.664C164.151 173.941 163.506 174.08 162.791 174.08ZM171.549 174.08C170.759 174.08 170.151 173.867 169.725 173.44C169.298 173.013 169.085 172.411 169.085 171.632V163.744H170.221V171.568C170.221 172.059 170.343 172.437 170.589 172.704C170.845 172.971 171.207 173.104 171.677 173.104C172.178 173.104 172.594 172.96 172.925 172.672L173.325 173.488C173.101 173.691 172.829 173.84 172.509 173.936C172.199 174.032 171.879 174.08 171.549 174.08ZM167.581 166.544V165.6H172.781V166.544H167.581ZM175.873 174V165.6H177.009V174H175.873ZM176.449 163.744C176.214 163.744 176.017 163.664 175.857 163.504C175.697 163.344 175.617 163.152 175.617 162.928C175.617 162.704 175.697 162.517 175.857 162.368C176.017 162.208 176.214 162.128 176.449 162.128C176.683 162.128 176.881 162.203 177.041 162.352C177.201 162.501 177.281 162.688 177.281 162.912C177.281 163.147 177.201 163.344 177.041 163.504C176.891 163.664 176.694 163.744 176.449 163.744ZM182.81 174L179.082 165.6H180.266L183.69 173.392H183.13L186.602 165.6H187.722L183.978 174H182.81ZM193.135 174.08C192.26 174.08 191.492 173.899 190.831 173.536C190.17 173.163 189.652 172.656 189.279 172.016C188.906 171.365 188.719 170.624 188.719 169.792C188.719 168.96 188.895 168.224 189.247 167.584C189.61 166.944 190.1 166.443 190.719 166.08C191.348 165.707 192.052 165.52 192.831 165.52C193.62 165.52 194.319 165.701 194.927 166.064C195.546 166.416 196.031 166.917 196.383 167.568C196.735 168.208 196.911 168.949 196.911 169.792C196.911 169.845 196.906 169.904 196.895 169.968C196.895 170.021 196.895 170.08 196.895 170.144H189.583V169.296H196.287L195.839 169.632C195.839 169.024 195.706 168.485 195.439 168.016C195.183 167.536 194.831 167.163 194.383 166.896C193.935 166.629 193.418 166.496 192.831 166.496C192.255 166.496 191.738 166.629 191.279 166.896C190.82 167.163 190.463 167.536 190.207 168.016C189.951 168.496 189.823 169.045 189.823 169.664V169.84C189.823 170.48 189.962 171.045 190.239 171.536C190.527 172.016 190.922 172.395 191.423 172.672C191.935 172.939 192.516 173.072 193.167 173.072C193.679 173.072 194.154 172.981 194.591 172.8C195.039 172.619 195.423 172.341 195.743 171.968L196.383 172.704C196.01 173.152 195.54 173.493 194.975 173.728C194.42 173.963 193.807 174.08 193.135 174.08Z" fill="#241714" fill-opacity="0.6"/>
<path fill-rule="evenodd" clip-rule="evenodd" d="M61 169C61 163.48 65.48 159 71 159C76.52 159 81 163.48 81 169C81 174.52 76.52 179 71 179C65.48 179 61 174.52 61 169ZM63 169C63 173.42 66.58 177 71 177C75.42 177 79 173.42 79 169C79 164.58 75.42 161 71 161C66.58 161 63 164.58 63 169Z" fill="#241714" fill-opacity="0.6"/>
</g>
<g clip-path="url(#clip2_2_51)">
<path d="M92.824 210V198.8H97.016C97.9653 198.8 98.7813 198.955 99.464 199.264C100.147 199.563 100.669 200 101.032 200.576C101.405 201.141 101.592 201.829 101.592 202.64C101.592 203.429 101.405 204.112 101.032 204.688C100.669 205.253 100.147 205.691 99.464 206C98.7813 206.299 97.9653 206.448 97.016 206.448H93.48L94.008 205.904V210H92.824ZM100.472 210L97.592 205.936H98.872L101.768 210H100.472ZM94.008 206L93.48 205.44H96.984C98.104 205.44 98.952 205.195 99.528 204.704C100.115 204.213 100.408 203.525 100.408 202.64C100.408 201.744 100.115 201.051 99.528 200.56C98.952 200.069 98.104 199.824 96.984 199.824H93.48L94.008 199.264V206ZM108.194 210.08C107.32 210.08 106.552 209.899 105.89 209.536C105.229 209.163 104.712 208.656 104.338 208.016C103.965 207.365 103.778 206.624 103.778 205.792C103.778 204.96 103.954 204.224 104.306 203.584C104.669 202.944 105.16 202.443 105.778 202.08C106.408 201.707 107.112 201.52 107.89 201.52C108.68 201.52 109.378 201.701 109.986 202.064C110.605 202.416 111.09 202.917 111.443 203.568C111.795 204.208 111.97 204.949 111.97 205.792C111.97 205.845 111.965 205.904 111.955 205.968C111.955 206.021 111.955 206.08 111.955 206.144H104.642V205.296H111.347L110.898 205.632C110.898 205.024 110.765 204.485 110.498 204.016C110.242 203.536 109.89 203.163 109.442 202.896C108.994 202.629 108.477 202.496 107.89 202.496C107.314 202.496 106.797 202.629 106.338 202.896C105.88 203.163 105.522 203.536 105.266 204.016C105.01 204.496 104.882 205.045 104.882 205.664V205.84C104.882 206.48 105.021 207.045 105.298 207.536C105.586 208.016 105.981 208.395 106.482 208.672C106.994 208.939 107.576 209.072 108.226 209.072C108.738 209.072 109.213 208.981 109.65 208.8C110.098 208.619 110.482 208.341 110.802 207.968L111.443 208.704C111.069 209.152 110.6 209.493 110.034 209.728C109.48 209.963 108.866 210.08 108.194 210.08ZM114.763 210V198.128H115.899V210H114.763ZM124.804 210V208.144L124.756 207.84V204.736C124.756 204.021 124.553 203.472 124.148 203.088C123.753 202.704 123.161 202.512 122.372 202.512C121.828 202.512 121.31 202.603 120.82 202.784C120.329 202.965 119.913 203.205 119.572 203.504L119.06 202.656C119.486 202.293 119.998 202.016 120.596 201.824C121.193 201.621 121.822 201.52 122.484 201.52C123.572 201.52 124.409 201.792 124.996 202.336C125.593 202.869 125.892 203.685 125.892 204.784V210H124.804ZM121.908 210.08C121.278 210.08 120.729 209.979 120.26 209.776C119.801 209.563 119.449 209.275 119.204 208.912C118.958 208.539 118.836 208.112 118.836 207.632C118.836 207.195 118.937 206.8 119.14 206.448C119.353 206.085 119.694 205.797 120.164 205.584C120.644 205.36 121.284 205.248 122.084 205.248H124.98V206.096H122.116C121.305 206.096 120.74 206.24 120.42 206.528C120.11 206.816 119.956 207.173 119.956 207.6C119.956 208.08 120.142 208.464 120.516 208.752C120.889 209.04 121.412 209.184 122.084 209.184C122.724 209.184 123.273 209.04 123.732 208.752C124.201 208.453 124.542 208.027 124.756 207.472L125.012 208.256C124.798 208.811 124.425 209.253 123.892 209.584C123.369 209.915 122.708 210.08 121.908 210.08ZM128.177 210L131.729 205.392L131.713 205.952L128.337 201.6H129.617L132.385 205.2L131.905 205.184L134.673 201.6H135.921L132.513 206L132.529 205.392L136.113 210H134.817L131.889 206.16L132.337 206.224L129.457 210H128.177ZM138.484 210V201.6H139.62V210H138.484ZM139.06 199.744C138.825 199.744 138.628 199.664 138.468 199.504C138.308 199.344 138.228 199.152 138.228 198.928C138.228 198.704 138.308 198.517 138.468 198.368C138.628 198.208 138.825 198.128 139.06 198.128C139.295 198.128 139.492 198.203 139.652 198.352C139.812 198.501 139.892 198.688 139.892 198.912C139.892 199.147 139.812 199.344 139.652 199.504C139.503 199.664 139.305 199.744 139.06 199.744ZM147.549 201.52C148.232 201.52 148.829 201.653 149.341 201.92C149.864 202.176 150.269 202.571 150.557 203.104C150.856 203.637 151.005 204.309 151.005 205.12V210H149.869V205.232C149.869 204.347 149.645 203.68 149.197 203.232C148.76 202.773 148.141 202.544 147.341 202.544C146.744 202.544 146.221 202.667 145.773 202.912C145.336 203.147 144.994 203.493 144.749 203.952C144.514 204.4 144.397 204.944 144.397 205.584V210H143.261V201.6H144.349V203.904L144.173 203.472C144.44 202.864 144.866 202.389 145.453 202.048C146.04 201.696 146.738 201.52 147.549 201.52ZM158.137 213.184C157.369 213.184 156.633 213.072 155.929 212.848C155.225 212.624 154.655 212.304 154.217 211.888L154.793 211.024C155.188 211.376 155.673 211.653 156.249 211.856C156.836 212.069 157.455 212.176 158.105 212.176C159.172 212.176 159.956 211.925 160.457 211.424C160.959 210.933 161.209 210.165 161.209 209.12V207.024L161.369 205.584L161.257 204.144V201.6H162.345V208.976C162.345 210.427 161.988 211.488 161.273 212.16C160.569 212.843 159.524 213.184 158.137 213.184ZM157.929 209.68C157.129 209.68 156.409 209.509 155.769 209.168C155.129 208.816 154.623 208.331 154.249 207.712C153.887 207.093 153.705 206.384 153.705 205.584C153.705 204.784 153.887 204.08 154.249 203.472C154.623 202.853 155.129 202.373 155.769 202.032C156.409 201.691 157.129 201.52 157.929 201.52C158.676 201.52 159.348 201.675 159.945 201.984C160.543 202.293 161.017 202.752 161.369 203.36C161.721 203.968 161.897 204.709 161.897 205.584C161.897 206.459 161.721 207.2 161.369 207.808C161.017 208.416 160.543 208.88 159.945 209.2C159.348 209.52 158.676 209.68 157.929 209.68ZM158.041 208.672C158.66 208.672 159.209 208.544 159.689 208.288C160.169 208.021 160.548 207.659 160.825 207.2C161.103 206.731 161.241 206.192 161.241 205.584C161.241 204.976 161.103 204.443 160.825 203.984C160.548 203.525 160.169 203.168 159.689 202.912C159.209 202.645 158.66 202.512 158.041 202.512C157.433 202.512 156.884 202.645 156.393 202.912C155.913 203.168 155.535 203.525 155.257 203.984C154.991 204.443 154.857 204.976 154.857 205.584C154.857 206.192 154.991 206.731 155.257 207.2C155.535 207.659 155.913 208.021 156.393 208.288C156.884 208.544 157.433 208.672 158.041 208.672Z" fill="#241714" fill-opacity="0.6"/>
<path fill-rule="evenodd" clip-rule="evenodd" d="M61 205C61 199.48 65.48 195 71 195C76.52 195 81 199.48 81 205C81 210.52 76.52 215 71 215C65.48 215 61 210.52 61 205ZM63 205C63 209.42 66.58 213 71 213C75.42 213 79 209.42 79 205C79 200.58 75.42 197 71 197C66.58 197 63 200.58 63 205Z" fill="#241714" fill-opacity="0.6"/>
</g>
<g clip-path="url(#clip3_2_51)">
<path d="M95.912 246.096C95.08 246.096 94.28 245.963 93.512 245.696C92.7547 245.419 92.168 245.067 91.752 244.64L92.216 243.728C92.6107 244.112 93.1387 244.437 93.8 244.704C94.472 244.96 95.176 245.088 95.912 245.088C96.616 245.088 97.1867 245.003 97.624 244.832C98.072 244.651 98.3973 244.411 98.6 244.112C98.8133 243.813 98.92 243.483 98.92 243.12C98.92 242.683 98.792 242.331 98.536 242.064C98.2907 241.797 97.9653 241.589 97.56 241.44C97.1547 241.28 96.7067 241.141 96.216 241.024C95.7253 240.907 95.2347 240.784 94.744 240.656C94.2533 240.517 93.8 240.336 93.384 240.112C92.9787 239.888 92.648 239.595 92.392 239.232C92.1467 238.859 92.024 238.373 92.024 237.776C92.024 237.221 92.168 236.715 92.456 236.256C92.7547 235.787 93.208 235.413 93.816 235.136C94.424 234.848 95.2027 234.704 96.152 234.704C96.7813 234.704 97.4053 234.795 98.024 234.976C98.6427 235.147 99.176 235.387 99.624 235.696L99.224 236.64C98.744 236.32 98.232 236.085 97.688 235.936C97.1547 235.787 96.6373 235.712 96.136 235.712C95.464 235.712 94.9093 235.803 94.472 235.984C94.0347 236.165 93.7093 236.411 93.496 236.72C93.2933 237.019 93.192 237.36 93.192 237.744C93.192 238.181 93.3147 238.533 93.56 238.8C93.816 239.067 94.1467 239.275 94.552 239.424C94.968 239.573 95.4213 239.707 95.912 239.824C96.4027 239.941 96.888 240.069 97.368 240.208C97.8587 240.347 98.3067 240.528 98.712 240.752C99.128 240.965 99.4587 241.253 99.704 241.616C99.96 241.979 100.088 242.453 100.088 243.04C100.088 243.584 99.9387 244.091 99.64 244.56C99.3413 245.019 98.8827 245.392 98.264 245.68C97.656 245.957 96.872 246.096 95.912 246.096ZM102.908 246V234.128H104.044V246H102.908ZM111.253 246.08C110.378 246.08 109.61 245.899 108.949 245.536C108.287 245.163 107.77 244.656 107.397 244.016C107.023 243.365 106.837 242.624 106.837 241.792C106.837 240.96 107.013 240.224 107.365 239.584C107.727 238.944 108.218 238.443 108.837 238.08C109.466 237.707 110.17 237.52 110.949 237.52C111.738 237.52 112.437 237.701 113.045 238.064C113.663 238.416 114.149 238.917 114.501 239.568C114.853 240.208 115.029 240.949 115.029 241.792C115.029 241.845 115.023 241.904 115.013 241.968C115.013 242.021 115.013 242.08 115.013 242.144H107.701V241.296H114.405L113.957 241.632C113.957 241.024 113.823 240.485 113.557 240.016C113.301 239.536 112.949 239.163 112.501 238.896C112.053 238.629 111.535 238.496 110.949 238.496C110.373 238.496 109.855 238.629 109.397 238.896C108.938 239.163 108.581 239.536 108.325 240.016C108.069 240.496 107.941 241.045 107.941 241.664V241.84C107.941 242.48 108.079 243.045 108.357 243.536C108.645 244.016 109.039 244.395 109.541 244.672C110.053 244.939 110.634 245.072 111.285 245.072C111.797 245.072 112.271 244.981 112.709 244.8C113.157 244.619 113.541 244.341 113.861 243.968L114.501 244.704C114.127 245.152 113.658 245.493 113.093 245.728C112.538 245.963 111.925 246.08 111.253 246.08ZM121.389 246.08C120.514 246.08 119.746 245.899 119.085 245.536C118.424 245.163 117.906 244.656 117.533 244.016C117.16 243.365 116.973 242.624 116.973 241.792C116.973 240.96 117.149 240.224 117.501 239.584C117.864 238.944 118.354 238.443 118.973 238.08C119.602 237.707 120.306 237.52 121.085 237.52C121.874 237.52 122.573 237.701 123.181 238.064C123.8 238.416 124.285 238.917 124.637 239.568C124.989 240.208 125.165 240.949 125.165 241.792C125.165 241.845 125.16 241.904 125.149 241.968C125.149 242.021 125.149 242.08 125.149 242.144H117.837V241.296H124.541L124.093 241.632C124.093 241.024 123.96 240.485 123.693 240.016C123.437 239.536 123.085 239.163 122.637 238.896C122.189 238.629 121.672 238.496 121.085 238.496C120.509 238.496 119.992 238.629 119.533 238.896C119.074 239.163 118.717 239.536 118.461 240.016C118.205 240.496 118.077 241.045 118.077 241.664V241.84C118.077 242.48 118.216 243.045 118.493 243.536C118.781 244.016 119.176 244.395 119.677 244.672C120.189 244.939 120.77 245.072 121.421 245.072C121.933 245.072 122.408 244.981 122.845 244.8C123.293 244.619 123.677 244.341 123.997 243.968L124.637 244.704C124.264 245.152 123.794 245.493 123.229 245.728C122.674 245.963 122.061 246.08 121.389 246.08ZM132.293 246.08C131.568 246.08 130.912 245.915 130.325 245.584C129.738 245.243 129.269 244.757 128.917 244.128C128.576 243.488 128.405 242.709 128.405 241.792C128.405 240.875 128.576 240.101 128.917 239.472C129.258 238.832 129.722 238.347 130.309 238.016C130.896 237.685 131.557 237.52 132.293 237.52C133.093 237.52 133.808 237.701 134.437 238.064C135.077 238.416 135.578 238.917 135.941 239.568C136.304 240.208 136.485 240.949 136.485 241.792C136.485 242.645 136.304 243.392 135.941 244.032C135.578 244.672 135.077 245.173 134.437 245.536C133.808 245.899 133.093 246.08 132.293 246.08ZM127.957 249.104V237.6H129.045V240.128L128.933 241.808L129.093 243.504V249.104H127.957ZM132.213 245.072C132.81 245.072 133.344 244.939 133.813 244.672C134.282 244.395 134.656 244.011 134.933 243.52C135.21 243.019 135.349 242.443 135.349 241.792C135.349 241.141 135.21 240.571 134.933 240.08C134.656 239.589 134.282 239.205 133.813 238.928C133.344 238.651 132.81 238.512 132.213 238.512C131.616 238.512 131.077 238.651 130.597 238.928C130.128 239.205 129.754 239.589 129.477 240.08C129.21 240.571 129.077 241.141 129.077 241.792C129.077 242.443 129.21 243.019 129.477 243.52C129.754 244.011 130.128 244.395 130.597 244.672C131.077 244.939 131.616 245.072 132.213 245.072ZM139.281 246V237.6H140.417V246H139.281ZM139.857 235.744C139.622 235.744 139.425 235.664 139.265 235.504C139.105 235.344 139.025 235.152 139.025 234.928C139.025 234.704 139.105 234.517 139.265 234.368C139.425 234.208 139.622 234.128 139.857 234.128C140.092 234.128 140.289 234.203 140.449 234.352C140.609 234.501 140.689 234.688 140.689 234.912C140.689 235.147 140.609 235.344 140.449 235.504C140.3 235.664 140.102 235.744 139.857 235.744ZM148.346 237.52C149.028 237.52 149.626 237.653 150.138 237.92C150.66 238.176 151.066 238.571 151.354 239.104C151.652 239.637 151.802 240.309 151.802 241.12V246H150.666V241.232C150.666 240.347 150.442 239.68 149.994 239.232C149.556 238.773 148.938 238.544 148.138 238.544C147.54 238.544 147.018 238.667 146.57 238.912C146.132 239.147 145.791 239.493 145.546 239.952C145.311 240.4 145.194 240.944 145.194 241.584V246H144.058V237.6H145.146V239.904L144.97 239.472C145.236 238.864 145.663 238.389 146.25 238.048C146.836 237.696 147.535 237.52 148.346 237.52ZM158.934 249.184C158.166 249.184 157.43 249.072 156.726 248.848C156.022 248.624 155.452 248.304 155.014 247.888L155.59 247.024C155.985 247.376 156.47 247.653 157.046 247.856C157.633 248.069 158.252 248.176 158.902 248.176C159.969 248.176 160.753 247.925 161.254 247.424C161.756 246.933 162.006 246.165 162.006 245.12V243.024L162.166 241.584L162.054 240.144V237.6H163.142V244.976C163.142 246.427 162.785 247.488 162.07 248.16C161.366 248.843 160.321 249.184 158.934 249.184ZM158.726 245.68C157.926 245.68 157.206 245.509 156.566 245.168C155.926 244.816 155.42 244.331 155.046 243.712C154.684 243.093 154.502 242.384 154.502 241.584C154.502 240.784 154.684 240.08 155.046 239.472C155.42 238.853 155.926 238.373 156.566 238.032C157.206 237.691 157.926 237.52 158.726 237.52C159.473 237.52 160.145 237.675 160.742 237.984C161.34 238.293 161.814 238.752 162.166 239.36C162.518 239.968 162.694 240.709 162.694 241.584C162.694 242.459 162.518 243.2 162.166 243.808C161.814 244.416 161.34 244.88 160.742 245.2C160.145 245.52 159.473 245.68 158.726 245.68ZM158.838 244.672C159.457 244.672 160.006 244.544 160.486 244.288C160.966 244.021 161.345 243.659 161.622 243.2C161.9 242.731 162.038 242.192 162.038 241.584C162.038 240.976 161.9 240.443 161.622 239.984C161.345 239.525 160.966 239.168 160.486 238.912C160.006 238.645 159.457 238.512 158.838 238.512C158.23 238.512 157.681 238.645 157.19 238.912C156.71 239.168 156.332 239.525 156.054 239.984C155.788 240.443 155.654 240.976 155.654 241.584C155.654 242.192 155.788 242.731 156.054 243.2C156.332 243.659 156.71 244.021 157.19 244.288C157.681 244.544 158.23 244.672 158.838 244.672Z" fill="#241714" fill-opacity="0.6"/>
<path fill-rule="evenodd" clip-rule="evenodd" d="M61 241C61 235.48 65.48 231 71 231C76.52 231 81 235.48 81 241C81 246.52 76.52 251 71 251C65.48 251 61 246.52 61 241ZM63 241C63 245.42 66.58 249 71 249C75.42 249 79 245.42 79 241C79 236.58 75.42 233 71 233C66.58 233 63 236.58 63 241Z" fill="#241714" fill-opacity="0.6"/>
</g>
<g clip-path="url(#clip4_2_51)">
<path d="M91.032 282L96.152 270.8H97.32L102.44 282H101.192L96.488 271.488H96.968L92.264 282H91.032ZM93.048 279.008L93.4 278.048H99.912L100.264 279.008H93.048ZM104.533 282V270.128H105.669V282H104.533ZM109.31 282V270.128H110.446V282H109.31ZM122.178 282.08C121.367 282.08 120.637 281.899 119.986 281.536C119.346 281.163 118.839 280.656 118.466 280.016C118.093 279.365 117.906 278.624 117.906 277.792C117.906 276.949 118.093 276.208 118.466 275.568C118.839 274.928 119.346 274.427 119.986 274.064C120.626 273.701 121.357 273.52 122.178 273.52C123.01 273.52 123.746 273.701 124.386 274.064C125.037 274.427 125.543 274.928 125.906 275.568C126.279 276.208 126.466 276.949 126.466 277.792C126.466 278.624 126.279 279.365 125.906 280.016C125.543 280.656 125.037 281.163 124.386 281.536C123.735 281.899 122.999 282.08 122.178 282.08ZM122.178 281.072C122.786 281.072 123.325 280.939 123.794 280.672C124.263 280.395 124.631 280.011 124.898 279.52C125.175 279.019 125.314 278.443 125.314 277.792C125.314 277.131 125.175 276.555 124.898 276.064C124.631 275.573 124.263 275.195 123.794 274.928C123.325 274.651 122.791 274.512 122.194 274.512C121.597 274.512 121.063 274.651 120.594 274.928C120.125 275.195 119.751 275.573 119.474 276.064C119.197 276.555 119.058 277.131 119.058 277.792C119.058 278.443 119.197 279.019 119.474 279.52C119.751 280.011 120.125 280.395 120.594 280.672C121.063 280.939 121.591 281.072 122.178 281.072ZM129.457 282V272.544C129.457 271.797 129.676 271.195 130.113 270.736C130.551 270.277 131.18 270.048 132.001 270.048C132.321 270.048 132.631 270.091 132.929 270.176C133.228 270.261 133.479 270.395 133.681 270.576L133.297 271.424C133.137 271.285 132.951 271.184 132.737 271.12C132.524 271.045 132.295 271.008 132.049 271.008C131.569 271.008 131.201 271.141 130.945 271.408C130.689 271.675 130.561 272.069 130.561 272.592V273.872L130.593 274.4V282H129.457ZM127.953 274.544V273.6H133.153V274.544H127.953ZM142.491 282.08C141.701 282.08 141.093 281.867 140.667 281.44C140.24 281.013 140.027 280.411 140.027 279.632V271.744H141.163V279.568C141.163 280.059 141.285 280.437 141.531 280.704C141.787 280.971 142.149 281.104 142.619 281.104C143.12 281.104 143.536 280.96 143.867 280.672L144.267 281.488C144.043 281.691 143.771 281.84 143.451 281.936C143.141 282.032 142.821 282.08 142.491 282.08ZM138.523 274.544V273.6H143.723V274.544H138.523ZM151.103 273.52C151.785 273.52 152.383 273.653 152.895 273.92C153.417 274.176 153.823 274.571 154.111 275.104C154.409 275.637 154.559 276.309 154.559 277.12V282H153.423V277.232C153.423 276.347 153.199 275.68 152.751 275.232C152.313 274.773 151.695 274.544 150.895 274.544C150.297 274.544 149.775 274.667 149.327 274.912C148.889 275.147 148.548 275.493 148.303 275.952C148.068 276.4 147.951 276.944 147.951 277.584V282H146.815V270.128H147.951V275.904L147.727 275.472C147.993 274.864 148.42 274.389 149.007 274.048C149.593 273.696 150.292 273.52 151.103 273.52ZM161.675 282.08C160.8 282.08 160.032 281.899 159.371 281.536C158.71 281.163 158.192 280.656 157.819 280.016C157.446 279.365 157.259 278.624 157.259 277.792C157.259 276.96 157.435 276.224 157.787 275.584C158.15 274.944 158.64 274.443 159.259 274.08C159.888 273.707 160.592 273.52 161.371 273.52C162.16 273.52 162.859 273.701 163.467 274.064C164.086 274.416 164.571 274.917 164.923 275.568C165.275 276.208 165.451 276.949 165.451 277.792C165.451 277.845 165.446 277.904 165.435 277.968C165.435 278.021 165.435 278.08 165.435 278.144H158.123V277.296H164.827L164.379 277.632C164.379 277.024 164.246 276.485 163.979 276.016C163.723 275.536 163.371 275.163 162.923 274.896C162.475 274.629 161.958 274.496 161.371 274.496C160.795 274.496 160.278 274.629 159.819 274.896C159.36 275.163 159.003 275.536 158.747 276.016C158.491 276.496 158.363 277.045 158.363 277.664V277.84C158.363 278.48 158.502 279.045 158.779 279.536C159.067 280.016 159.462 280.395 159.963 280.672C160.475 280.939 161.056 281.072 161.707 281.072C162.219 281.072 162.694 280.981 163.131 280.8C163.579 280.619 163.963 280.341 164.283 279.968L164.923 280.704C164.55 281.152 164.08 281.493 163.515 281.728C162.96 281.963 162.347 282.08 161.675 282.08ZM178.175 282V280.144L178.127 279.84V276.736C178.127 276.021 177.924 275.472 177.519 275.088C177.124 274.704 176.532 274.512 175.743 274.512C175.199 274.512 174.682 274.603 174.191 274.784C173.7 274.965 173.284 275.205 172.943 275.504L172.431 274.656C172.858 274.293 173.37 274.016 173.967 273.824C174.564 273.621 175.194 273.52 175.855 273.52C176.943 273.52 177.78 273.792 178.367 274.336C178.964 274.869 179.263 275.685 179.263 276.784V282H178.175ZM175.279 282.08C174.65 282.08 174.1 281.979 173.631 281.776C173.172 281.563 172.82 281.275 172.575 280.912C172.33 280.539 172.207 280.112 172.207 279.632C172.207 279.195 172.308 278.8 172.511 278.448C172.724 278.085 173.066 277.797 173.535 277.584C174.015 277.36 174.655 277.248 175.455 277.248H178.351V278.096H175.487C174.676 278.096 174.111 278.24 173.791 278.528C173.482 278.816 173.327 279.173 173.327 279.6C173.327 280.08 173.514 280.464 173.887 280.752C174.26 281.04 174.783 281.184 175.455 281.184C176.095 281.184 176.644 281.04 177.103 280.752C177.572 280.453 177.914 280.027 178.127 279.472L178.383 280.256C178.17 280.811 177.796 281.253 177.263 281.584C176.74 281.915 176.079 282.08 175.279 282.08ZM187.164 282.08C186.428 282.08 185.767 281.915 185.18 281.584C184.594 281.243 184.13 280.752 183.788 280.112C183.447 279.472 183.276 278.699 183.276 277.792C183.276 276.875 183.447 276.101 183.788 275.472C184.14 274.832 184.61 274.347 185.196 274.016C185.783 273.685 186.439 273.52 187.164 273.52C187.964 273.52 188.679 273.701 189.308 274.064C189.948 274.416 190.45 274.912 190.812 275.552C191.175 276.192 191.356 276.939 191.356 277.792C191.356 278.635 191.175 279.381 190.812 280.032C190.45 280.672 189.948 281.173 189.308 281.536C188.679 281.899 187.964 282.08 187.164 282.08ZM182.828 282V270.128H183.964V276.08L183.804 277.776L183.916 279.472V282H182.828ZM187.084 281.072C187.682 281.072 188.215 280.939 188.684 280.672C189.154 280.395 189.527 280.011 189.804 279.52C190.082 279.019 190.22 278.443 190.22 277.792C190.22 277.131 190.082 276.555 189.804 276.064C189.527 275.573 189.154 275.195 188.684 274.928C188.215 274.651 187.682 274.512 187.084 274.512C186.487 274.512 185.948 274.651 185.468 274.928C184.999 275.195 184.626 275.573 184.348 276.064C184.082 276.555 183.948 277.131 183.948 277.792C183.948 278.443 184.082 279.019 184.348 279.52C184.626 280.011 184.999 280.395 185.468 280.672C185.948 280.939 186.487 281.072 187.084 281.072ZM197.576 282.08C196.765 282.08 196.035 281.899 195.384 281.536C194.744 281.163 194.237 280.656 193.864 280.016C193.491 279.365 193.304 278.624 193.304 277.792C193.304 276.949 193.491 276.208 193.864 275.568C194.237 274.928 194.744 274.427 195.384 274.064C196.024 273.701 196.755 273.52 197.576 273.52C198.408 273.52 199.144 273.701 199.784 274.064C200.435 274.427 200.941 274.928 201.304 275.568C201.677 276.208 201.864 276.949 201.864 277.792C201.864 278.624 201.677 279.365 201.304 280.016C200.941 280.656 200.435 281.163 199.784 281.536C199.133 281.899 198.397 282.08 197.576 282.08ZM197.576 281.072C198.184 281.072 198.723 280.939 199.192 280.672C199.661 280.395 200.029 280.011 200.296 279.52C200.573 279.019 200.712 278.443 200.712 277.792C200.712 277.131 200.573 276.555 200.296 276.064C200.029 275.573 199.661 275.195 199.192 274.928C198.723 274.651 198.189 274.512 197.592 274.512C196.995 274.512 196.461 274.651 195.992 274.928C195.523 275.195 195.149 275.573 194.872 276.064C194.595 276.555 194.456 277.131 194.456 277.792C194.456 278.443 194.595 279.019 194.872 279.52C195.149 280.011 195.523 280.395 195.992 280.672C196.461 280.939 196.989 281.072 197.576 281.072ZM206.589 282L202.861 273.6H204.045L207.469 281.392H206.909L210.381 273.6H211.501L207.757 282H206.589ZM216.914 282.08C216.04 282.08 215.272 281.899 214.61 281.536C213.949 281.163 213.432 280.656 213.058 280.016C212.685 279.365 212.498 278.624 212.498 277.792C212.498 276.96 212.674 276.224 213.026 275.584C213.389 274.944 213.88 274.443 214.498 274.08C215.128 273.707 215.832 273.52 216.61 273.52C217.4 273.52 218.098 273.701 218.706 274.064C219.325 274.416 219.81 274.917 220.162 275.568C220.514 276.208 220.69 276.949 220.69 277.792C220.69 277.845 220.685 277.904 220.674 277.968C220.674 278.021 220.674 278.08 220.674 278.144H213.362V277.296H220.066L219.618 277.632C219.618 277.024 219.485 276.485 219.218 276.016C218.962 275.536 218.61 275.163 218.162 274.896C217.714 274.629 217.197 274.496 216.61 274.496C216.034 274.496 215.517 274.629 215.058 274.896C214.6 275.163 214.242 275.536 213.986 276.016C213.73 276.496 213.602 277.045 213.602 277.664V277.84C213.602 278.48 213.741 279.045 214.018 279.536C214.306 280.016 214.701 280.395 215.202 280.672C215.714 280.939 216.296 281.072 216.946 281.072C217.458 281.072 217.933 280.981 218.37 280.8C218.818 280.619 219.202 280.341 219.522 279.968L220.162 280.704C219.789 281.152 219.32 281.493 218.754 281.728C218.2 281.963 217.586 282.08 216.914 282.08Z" fill="#241714" fill-opacity="0.6"/>
<path fill-rule="evenodd" clip-rule="evenodd" d="M61 277C61 271.48 65.48 267 71 267C76.52 267 81 271.48 81 277C81 282.52 76.52 287 71 287C65.48 287 61 282.52 61 277ZM63 277C63 281.42 66.58 285 71 285C75.42 285 79 281.42 79 277C79 272.58 75.42 269 71 269C66.58 269 63 272.58 63 277Z" fill="#241714" fill-opacity="0.6"/>
</g>
<rect x="85.5" y="334.5" width="189" height="43" rx="21.5" stroke="#BD9A65" stroke-width="3"/>
<path d="M109.328 362V350.8H111.472L118.08 358.864H117.04V350.8H119.6V362H117.472L110.848 353.936H111.888V362H109.328ZM125.114 355.312H130.506V357.328H125.114V355.312ZM125.306 359.92H131.402V362H122.73V350.8H131.194V352.88H125.306V359.92ZM132.555 362L137.371 355.36V357.248L132.763 350.8H135.707L138.891 355.296L137.659 355.312L140.795 350.8H143.611L139.035 357.136V355.28L143.883 362H140.891L137.595 357.248H138.779L135.531 362H132.555ZM147.572 362V352.912H143.988V350.8H153.748V352.912H150.164V362H147.572ZM166.058 362.192C165.184 362.192 164.368 362.048 163.61 361.76C162.864 361.472 162.213 361.067 161.658 360.544C161.114 360.021 160.688 359.408 160.378 358.704C160.08 358 159.93 357.232 159.93 356.4C159.93 355.568 160.08 354.8 160.378 354.096C160.688 353.392 161.12 352.779 161.674 352.256C162.229 351.733 162.88 351.328 163.626 351.04C164.373 350.752 165.184 350.608 166.058 350.608C166.944 350.608 167.754 350.752 168.49 351.04C169.237 351.328 169.882 351.733 170.426 352.256C170.981 352.768 171.413 353.376 171.722 354.08C172.032 354.784 172.186 355.557 172.186 356.4C172.186 357.232 172.032 358.005 171.722 358.72C171.413 359.424 170.981 360.037 170.426 360.56C169.882 361.072 169.237 361.472 168.49 361.76C167.754 362.048 166.944 362.192 166.058 362.192ZM169.722 364.576C169.285 364.576 168.869 364.528 168.474 364.432C168.09 364.336 167.706 364.181 167.322 363.968C166.949 363.755 166.554 363.467 166.138 363.104C165.733 362.741 165.29 362.293 164.81 361.76L167.53 361.072C167.818 361.467 168.085 361.781 168.33 362.016C168.576 362.251 168.81 362.416 169.034 362.512C169.269 362.608 169.514 362.656 169.77 362.656C170.453 362.656 171.061 362.379 171.594 361.824L172.746 363.2C171.989 364.117 170.981 364.576 169.722 364.576ZM166.058 359.984C166.56 359.984 167.018 359.899 167.434 359.728C167.861 359.557 168.234 359.312 168.554 358.992C168.874 358.672 169.12 358.293 169.29 357.856C169.472 357.408 169.562 356.923 169.562 356.4C169.562 355.867 169.472 355.381 169.29 354.944C169.12 354.507 168.874 354.128 168.554 353.808C168.234 353.488 167.861 353.243 167.434 353.072C167.018 352.901 166.56 352.816 166.058 352.816C165.557 352.816 165.093 352.901 164.666 353.072C164.24 353.243 163.866 353.488 163.546 353.808C163.237 354.128 162.992 354.507 162.81 354.944C162.64 355.381 162.554 355.867 162.554 356.4C162.554 356.923 162.64 357.408 162.81 357.856C162.992 358.293 163.237 358.672 163.546 358.992C163.866 359.312 164.24 359.557 164.666 359.728C165.093 359.899 165.557 359.984 166.058 359.984ZM179.59 362.192C178.001 362.192 176.758 361.749 175.862 360.864C174.966 359.979 174.518 358.715 174.518 357.072V350.8H177.11V356.976C177.11 358.043 177.329 358.811 177.766 359.28C178.204 359.749 178.817 359.984 179.606 359.984C180.396 359.984 181.009 359.749 181.446 359.28C181.884 358.811 182.102 358.043 182.102 356.976V350.8H184.662V357.072C184.662 358.715 184.214 359.979 183.318 360.864C182.422 361.749 181.18 362.192 179.59 362.192ZM190.088 355.312H195.48V357.328H190.088V355.312ZM190.28 359.92H196.376V362H187.704V350.8H196.168V352.88H190.28V359.92ZM202.598 362.192C201.702 362.192 200.843 362.075 200.022 361.84C199.201 361.595 198.539 361.28 198.038 360.896L198.918 358.944C199.398 359.285 199.963 359.568 200.614 359.792C201.275 360.005 201.942 360.112 202.614 360.112C203.126 360.112 203.537 360.064 203.846 359.968C204.166 359.861 204.401 359.717 204.55 359.536C204.699 359.355 204.774 359.147 204.774 358.912C204.774 358.613 204.657 358.379 204.422 358.208C204.187 358.027 203.878 357.883 203.494 357.776C203.11 357.659 202.683 357.552 202.214 357.456C201.755 357.349 201.291 357.221 200.822 357.072C200.363 356.923 199.942 356.731 199.558 356.496C199.174 356.261 198.859 355.952 198.614 355.568C198.379 355.184 198.262 354.693 198.262 354.096C198.262 353.456 198.433 352.875 198.774 352.352C199.126 351.819 199.649 351.397 200.342 351.088C201.046 350.768 201.926 350.608 202.982 350.608C203.686 350.608 204.379 350.693 205.062 350.864C205.745 351.024 206.347 351.269 206.87 351.6L206.07 353.568C205.547 353.269 205.025 353.051 204.502 352.912C203.979 352.763 203.467 352.688 202.966 352.688C202.465 352.688 202.054 352.747 201.734 352.864C201.414 352.981 201.185 353.136 201.046 353.328C200.907 353.509 200.838 353.723 200.838 353.968C200.838 354.256 200.955 354.491 201.19 354.672C201.425 354.843 201.734 354.981 202.118 355.088C202.502 355.195 202.923 355.301 203.382 355.408C203.851 355.515 204.315 355.637 204.774 355.776C205.243 355.915 205.67 356.101 206.054 356.336C206.438 356.571 206.747 356.88 206.982 357.264C207.227 357.648 207.35 358.133 207.35 358.72C207.35 359.349 207.174 359.925 206.822 360.448C206.47 360.971 205.942 361.392 205.238 361.712C204.545 362.032 203.665 362.192 202.598 362.192ZM211.765 362V352.912H208.181V350.8H217.941V352.912H214.357V362H211.765ZM219.816 362V350.8H222.408V362H219.816ZM230.985 362.192C230.1 362.192 229.279 362.048 228.521 361.76C227.775 361.472 227.124 361.067 226.569 360.544C226.025 360.021 225.599 359.408 225.289 358.704C224.991 358 224.841 357.232 224.841 356.4C224.841 355.568 224.991 354.8 225.289 354.096C225.599 353.392 226.031 352.779 226.585 352.256C227.14 351.733 227.791 351.328 228.537 351.04C229.284 350.752 230.095 350.608 230.969 350.608C231.855 350.608 232.665 350.752 233.401 351.04C234.148 351.328 234.793 351.733 235.337 352.256C235.892 352.779 236.324 353.392 236.633 354.096C236.943 354.789 237.097 355.557 237.097 356.4C237.097 357.232 236.943 358.005 236.633 358.72C236.324 359.424 235.892 360.037 235.337 360.56C234.793 361.072 234.148 361.472 233.401 361.76C232.665 362.048 231.86 362.192 230.985 362.192ZM230.969 359.984C231.471 359.984 231.929 359.899 232.345 359.728C232.772 359.557 233.145 359.312 233.465 358.992C233.785 358.672 234.031 358.293 234.201 357.856C234.383 357.419 234.473 356.933 234.473 356.4C234.473 355.867 234.383 355.381 234.201 354.944C234.031 354.507 233.785 354.128 233.465 353.808C233.156 353.488 232.788 353.243 232.361 353.072C231.935 352.901 231.471 352.816 230.969 352.816C230.468 352.816 230.004 352.901 229.577 353.072C229.161 353.243 228.793 353.488 228.473 353.808C228.153 354.128 227.903 354.507 227.721 354.944C227.551 355.381 227.465 355.867 227.465 356.4C227.465 356.923 227.551 357.408 227.721 357.856C227.903 358.293 228.148 358.672 228.457 358.992C228.777 359.312 229.151 359.557 229.577 359.728C230.004 359.899 230.468 359.984 230.969 359.984ZM239.525 362V350.8H241.669L248.277 358.864H247.237V350.8H249.797V362H247.669L241.045 353.936H242.085V362H239.525Z" fill="#BD9A65"/>
</g>
<defs>
<clipPath id="clip0_2_51">
<rect width="360" height="568" fill="white" transform="translate(0 -162)"/>
</clipPath>
<clipPath id="clip1_2_51">
<rect width="242" height="24" fill="white" transform="translate(59 157)"/>
</clipPath>
<clipPath id="clip2_2_51">
<rect width="242" height="24" fill="white" transform="translate(59 193)"/>
</clipPath>
<clipPath id="clip3_2_51">
<rect width="242" height="24" fill="white" transform="translate(59 229)"/>
</clipPath>
<clipPath id="clip4_2_51">
<rect width="242" height="24" fill="white" transform="translate(59 265)"/>
</clipPath>
</defs>
</svg>
