<svg width="360" height="405" viewBox="0 0 360 405" fill="none" xmlns="http://www.w3.org/2000/svg">
<rect width="360" height="405" fill="#E5E5E5"/>
<rect width="360" height="568" transform="translate(0 -162)" fill="white"/>
<path d="M0 0H360V406H0V0Z" fill="white"/>
<path d="M73.8309 46.4L69.2669 60.288L64.7869 46.4H60.5869L55.9669 60.176L51.5429 46.4H46.8389L53.2789 66H58.1229L62.5749 52.728L66.8869 66H71.7589L78.1709 46.4H73.8309ZM89.4013 50.712C87.4693 50.712 85.7893 51.328 84.6133 52.504V45.224H80.2453V66H84.6133V58.552C84.6133 55.78 86.1253 54.492 88.2253 54.492C90.1573 54.492 91.2773 55.612 91.2773 58.048V66H95.6453V57.376C95.6453 52.784 92.9573 50.712 89.4013 50.712ZM105.121 50.712C102.713 50.712 100.277 51.356 98.6247 52.532L100.193 55.584C101.285 54.716 102.937 54.184 104.533 54.184C106.885 54.184 108.005 55.276 108.005 57.152H104.533C99.9407 57.152 98.0647 59 98.0647 61.66C98.0647 64.264 100.165 66.224 103.693 66.224C105.905 66.224 107.473 65.496 108.285 64.124V66H112.373V57.404C112.373 52.84 109.713 50.712 105.121 50.712ZM104.785 63.284C103.245 63.284 102.321 62.556 102.321 61.464C102.321 60.456 102.965 59.7 105.009 59.7H108.005V61.24C107.501 62.612 106.241 63.284 104.785 63.284ZM124.306 62.192C123.83 62.556 123.186 62.752 122.542 62.752C121.366 62.752 120.666 62.052 120.666 60.764V54.632H124.418V51.272H120.666V47.604H116.298V51.272H113.974V54.632H116.298V60.82C116.298 64.404 118.37 66.224 121.926 66.224C123.27 66.224 124.586 65.916 125.482 65.272L124.306 62.192ZM145.72 45.224V52.532C144.628 51.3 143.06 50.712 141.212 50.712C136.956 50.712 133.68 53.736 133.68 58.468C133.68 63.2 136.956 66.224 141.212 66.224C143.228 66.224 144.824 65.58 145.916 64.264V66H150.088V45.224H145.72ZM141.968 62.64C139.784 62.64 138.104 61.072 138.104 58.468C138.104 55.864 139.784 54.296 141.968 54.296C144.124 54.296 145.804 55.864 145.804 58.468C145.804 61.072 144.124 62.64 141.968 62.64ZM160.738 66.224C165.526 66.224 168.998 63.004 168.998 58.468C168.998 53.932 165.526 50.712 160.738 50.712C155.95 50.712 152.45 53.932 152.45 58.468C152.45 63.004 155.95 66.224 160.738 66.224ZM160.738 62.64C158.554 62.64 156.874 61.072 156.874 58.468C156.874 55.864 158.554 54.296 160.738 54.296C162.922 54.296 164.574 55.864 164.574 58.468C164.574 61.072 162.922 62.64 160.738 62.64ZM189.48 50.936L185.224 61.156L180.996 50.936H176.488L183.012 66.112L182.956 66.252C182.368 67.596 181.696 68.128 180.492 68.128C179.624 68.128 178.7 67.764 178.028 67.176L176.432 70.284C177.412 71.152 179.092 71.656 180.632 71.656C183.348 71.656 185.42 70.564 186.876 66.924L193.68 50.936H189.48ZM201.66 66.224C206.448 66.224 209.92 63.004 209.92 58.468C209.92 53.932 206.448 50.712 201.66 50.712C196.872 50.712 193.372 53.932 193.372 58.468C193.372 63.004 196.872 66.224 201.66 66.224ZM201.66 62.64C199.476 62.64 197.796 61.072 197.796 58.468C197.796 55.864 199.476 54.296 201.66 54.296C203.844 54.296 205.496 55.864 205.496 58.468C205.496 61.072 203.844 62.64 201.66 62.64ZM223.088 50.936V58.384C223.088 61.156 221.632 62.444 219.616 62.444C217.684 62.444 216.564 61.324 216.564 58.804V50.936H212.196V59.448C212.196 64.096 214.856 66.224 218.636 66.224C220.484 66.224 222.164 65.524 223.312 64.208V66H227.456V50.936H223.088ZM253.068 58.524C253.068 53.68 249.652 50.712 245.228 50.712C240.636 50.712 237.192 53.96 237.192 58.468C237.192 62.948 240.58 66.224 245.788 66.224C248.504 66.224 250.604 65.384 252.004 63.788L249.68 61.268C248.644 62.248 247.496 62.724 245.9 62.724C243.604 62.724 242.008 61.576 241.588 59.7H252.984C253.012 59.336 253.068 58.86 253.068 58.524ZM245.256 54.016C247.216 54.016 248.644 55.248 248.952 57.152H241.532C241.84 55.22 243.268 54.016 245.256 54.016ZM264.572 50.712C262.528 50.712 260.764 51.412 259.588 52.7V50.936H255.416V66H259.784V58.552C259.784 55.78 261.296 54.492 263.396 54.492C265.328 54.492 266.448 55.612 266.448 58.048V66H270.816V57.376C270.816 52.784 268.128 50.712 264.572 50.712ZM276.595 48.836C278.219 48.836 279.311 47.772 279.311 46.316C279.311 44.972 278.219 43.964 276.595 43.964C274.971 43.964 273.879 45.028 273.879 46.4C273.879 47.772 274.971 48.836 276.595 48.836ZM273.095 71.656C276.735 71.656 278.779 69.444 278.779 65.972V50.936H274.411V66C274.411 67.484 273.711 68.184 272.619 68.184C271.891 68.184 271.247 67.988 270.771 67.652L269.595 70.816C270.435 71.404 271.751 71.656 273.095 71.656ZM289.409 66.224C294.197 66.224 297.669 63.004 297.669 58.468C297.669 53.932 294.197 50.712 289.409 50.712C284.621 50.712 281.121 53.932 281.121 58.468C281.121 63.004 284.621 66.224 289.409 66.224ZM289.409 62.64C287.225 62.64 285.545 61.072 285.545 58.468C285.545 55.864 287.225 54.296 289.409 54.296C291.593 54.296 293.245 55.864 293.245 58.468C293.245 61.072 291.593 62.64 289.409 62.64ZM310.371 50.936L306.115 61.156L301.887 50.936H297.379L303.903 66.112L303.847 66.252C303.259 67.596 302.587 68.128 301.383 68.128C300.515 68.128 299.591 67.764 298.919 67.176L297.323 70.284C298.303 71.152 299.983 71.656 301.523 71.656C304.239 71.656 306.311 70.564 307.767 66.924L314.571 50.936H310.371ZM64.233 81.224V88.532C63.141 87.3 61.573 86.712 59.725 86.712C55.469 86.712 52.193 89.736 52.193 94.468C52.193 99.2 55.469 102.224 59.725 102.224C61.741 102.224 63.337 101.58 64.429 100.264V102H68.601V81.224H64.233ZM60.481 98.64C58.297 98.64 56.617 97.072 56.617 94.468C56.617 91.864 58.297 90.296 60.481 90.296C62.637 90.296 64.317 91.864 64.317 94.468C64.317 97.072 62.637 98.64 60.481 98.64ZM79.2517 102.224C84.0397 102.224 87.5117 99.004 87.5117 94.468C87.5117 89.932 84.0397 86.712 79.2517 86.712C74.4637 86.712 70.9637 89.932 70.9637 94.468C70.9637 99.004 74.4637 102.224 79.2517 102.224ZM79.2517 98.64C77.0677 98.64 75.3877 97.072 75.3877 94.468C75.3877 91.864 77.0677 90.296 79.2517 90.296C81.4357 90.296 83.0877 91.864 83.0877 94.468C83.0877 97.072 81.4357 98.64 79.2517 98.64ZM92.0554 84.836C93.6794 84.836 94.7714 83.772 94.7714 82.316C94.7714 80.972 93.6794 79.964 92.0554 79.964C90.4314 79.964 89.3394 81.028 89.3394 82.4C89.3394 83.772 90.4314 84.836 92.0554 84.836ZM89.8714 102H94.2394V86.936H89.8714V102ZM106.889 86.712C104.845 86.712 103.081 87.412 101.905 88.7V86.936H97.7333V102H102.101V94.552C102.101 91.78 103.613 90.492 105.713 90.492C107.645 90.492 108.765 91.612 108.765 94.048V102H113.133V93.376C113.133 88.784 110.445 86.712 106.889 86.712ZM128.093 86.936V88.868C126.945 87.412 125.209 86.712 123.109 86.712C118.937 86.712 115.577 89.596 115.577 93.992C115.577 98.388 118.937 101.272 123.109 101.272C125.069 101.272 126.721 100.656 127.869 99.396V100.04C127.869 102.756 126.525 104.156 123.445 104.156C121.513 104.156 119.413 103.484 118.125 102.448L116.389 105.584C118.153 106.956 120.925 107.656 123.781 107.656C129.213 107.656 132.237 105.08 132.237 99.48V86.936H128.093ZM123.977 97.688C121.681 97.688 120.001 96.204 120.001 93.992C120.001 91.78 121.681 90.296 123.977 90.296C126.273 90.296 127.925 91.78 127.925 93.992C127.925 96.204 126.273 97.688 123.977 97.688ZM163.44 86.936L159.772 97.128L156.188 86.936H152.492L148.796 97.128L145.24 86.936H141.124L146.556 102H150.756L154.256 92.648L157.644 102H161.844L167.304 86.936H163.44ZM177.931 86.712C175.999 86.712 174.319 87.328 173.143 88.504V81.224H168.775V102H173.143V94.552C173.143 91.78 174.655 90.492 176.755 90.492C178.687 90.492 179.807 91.612 179.807 94.048V102H184.175V93.376C184.175 88.784 181.487 86.712 177.931 86.712ZM202.494 94.524C202.494 89.68 199.078 86.712 194.654 86.712C190.062 86.712 186.618 89.96 186.618 94.468C186.618 98.948 190.006 102.224 195.214 102.224C197.93 102.224 200.03 101.384 201.43 99.788L199.106 97.268C198.07 98.248 196.922 98.724 195.326 98.724C193.03 98.724 191.434 97.576 191.014 95.7H202.41C202.438 95.336 202.494 94.86 202.494 94.524ZM194.682 90.016C196.642 90.016 198.07 91.248 198.378 93.152H190.958C191.266 91.22 192.694 90.016 194.682 90.016ZM213.998 86.712C211.954 86.712 210.19 87.412 209.014 88.7V86.936H204.842V102H209.21V94.552C209.21 91.78 210.722 90.492 212.822 90.492C214.754 90.492 215.874 91.612 215.874 94.048V102H220.242V93.376C220.242 88.784 217.554 86.712 213.998 86.712ZM240.167 86.712C238.235 86.712 236.555 87.328 235.379 88.504V81.224H231.011V102H235.379V94.552C235.379 91.78 236.891 90.492 238.991 90.492C240.923 90.492 242.043 91.612 242.043 94.048V102H246.411V93.376C246.411 88.784 243.723 86.712 240.167 86.712ZM251.994 84.836C253.618 84.836 254.71 83.772 254.71 82.316C254.71 80.972 253.618 79.964 251.994 79.964C250.37 79.964 249.278 81.028 249.278 82.4C249.278 83.772 250.37 84.836 251.994 84.836ZM249.81 102H254.178V86.936H249.81V102ZM269.068 86.936V88.868C267.92 87.412 266.184 86.712 264.084 86.712C259.912 86.712 256.552 89.596 256.552 93.992C256.552 98.388 259.912 101.272 264.084 101.272C266.044 101.272 267.696 100.656 268.844 99.396V100.04C268.844 102.756 267.5 104.156 264.42 104.156C262.488 104.156 260.388 103.484 259.1 102.448L257.364 105.584C259.128 106.956 261.9 107.656 264.756 107.656C270.188 107.656 273.212 105.08 273.212 99.48V86.936H269.068ZM264.952 97.688C262.656 97.688 260.976 96.204 260.976 93.992C260.976 91.78 262.656 90.296 264.952 90.296C267.248 90.296 268.9 91.78 268.9 93.992C268.9 96.204 267.248 97.688 264.952 97.688ZM285.874 86.712C283.942 86.712 282.262 87.328 281.086 88.504V81.224H276.718V102H281.086V94.552C281.086 91.78 282.598 90.492 284.698 90.492C286.63 90.492 287.75 91.612 287.75 94.048V102H292.118V93.376C292.118 88.784 289.43 86.712 285.874 86.712ZM298.347 95.196H302.575C302.575 92.228 307.279 91.724 307.279 87.244C307.279 83.94 304.367 82.064 300.167 82.064C296.387 82.064 293.755 83.52 292.243 85.816L295.631 87.804C296.527 86.516 297.899 85.732 299.691 85.732C301.511 85.732 302.715 86.6 302.715 87.972C302.715 90.408 298.347 91.276 298.347 95.196ZM300.475 102.224C302.043 102.224 303.163 101.076 303.163 99.676C303.163 98.248 302.043 97.184 300.475 97.184C298.907 97.184 297.787 98.248 297.787 99.676C297.787 101.076 298.907 102.224 300.475 102.224Z" fill="#091D22"/>
<g clip-path="url(#clip0)">
<path d="M99.88 168.224C100.904 167.808 101.592 166.96 101.592 165.68C101.592 163.856 100.152 162.8 97.656 162.8H92.824V174H97.976C100.776 174 102.184 172.912 102.184 171.008C102.184 169.488 101.32 168.544 99.88 168.224ZM97.576 163.776C99.368 163.776 100.408 164.464 100.408 165.808C100.408 167.152 99.368 167.84 97.576 167.84H94.008V163.776H97.576ZM97.96 173.024H94.008V168.816H97.96C99.928 168.816 101 169.456 101 170.912C101 172.384 99.928 173.024 97.96 173.024ZM112.47 169.792C112.47 167.264 110.759 165.52 108.39 165.52C106.022 165.52 104.278 167.296 104.278 169.792C104.278 172.288 106.07 174.08 108.694 174.08C110.023 174.08 111.19 173.6 111.943 172.704L111.302 171.968C110.662 172.704 109.75 173.072 108.726 173.072C106.886 173.072 105.542 171.904 105.414 170.144H112.455C112.455 170.016 112.47 169.888 112.47 169.792ZM108.39 166.496C110.038 166.496 111.239 167.648 111.382 169.296H105.414C105.558 167.648 106.758 166.496 108.39 166.496ZM115.839 163.744C116.319 163.744 116.671 163.376 116.671 162.912C116.671 162.48 116.303 162.128 115.839 162.128C115.375 162.128 115.007 162.496 115.007 162.928C115.007 163.376 115.375 163.744 115.839 163.744ZM115.263 174H116.399V165.584H115.263V174ZM124.328 165.52C122.872 165.52 121.736 166.112 121.128 167.136V165.584H120.04V174H121.176V169.584C121.176 167.664 122.312 166.544 124.12 166.544C125.72 166.544 126.648 167.456 126.648 169.232V174H127.784V169.12C127.784 166.704 126.376 165.52 124.328 165.52ZM138.083 165.584V167.2C137.379 166.096 136.163 165.52 134.755 165.52C132.355 165.52 130.531 167.168 130.531 169.584C130.531 172 132.355 173.68 134.755 173.68C136.131 173.68 137.331 173.12 138.035 172.048V173.12C138.035 175.2 137.059 176.176 134.931 176.176C133.635 176.176 132.419 175.744 131.619 175.024L131.043 175.888C131.923 176.72 133.427 177.184 134.963 177.184C137.747 177.184 139.171 175.872 139.171 172.976V165.584H138.083ZM134.867 172.672C133.011 172.672 131.683 171.408 131.683 169.584C131.683 167.76 133.011 166.512 134.867 166.512C136.723 166.512 138.067 167.76 138.067 169.584C138.067 171.408 136.723 172.672 134.867 172.672ZM156.103 174H157.351L152.231 162.8H151.063L145.943 174H147.175L148.519 171.008H154.759L156.103 174ZM148.951 170.048L151.639 164.032L154.327 170.048H148.951ZM162.854 174.08C164.278 174.08 165.478 173.504 166.15 172.416L165.302 171.84C164.726 172.688 163.83 173.072 162.854 173.072C161.014 173.072 159.67 171.776 159.67 169.792C159.67 167.824 161.014 166.512 162.854 166.512C163.83 166.512 164.726 166.912 165.302 167.76L166.15 167.184C165.478 166.08 164.278 165.52 162.854 165.52C160.342 165.52 158.518 167.28 158.518 169.792C158.518 172.304 160.342 174.08 162.854 174.08ZM172.987 172.672C172.667 172.96 172.203 173.104 171.739 173.104C170.795 173.104 170.283 172.56 170.283 171.568V166.544H172.843V165.584H170.283V163.744H169.147V165.584H167.643V166.544H169.147V171.632C169.147 173.184 170.027 174.08 171.611 174.08C172.267 174.08 172.939 173.888 173.387 173.488L172.987 172.672ZM176.511 163.744C176.991 163.744 177.343 163.376 177.343 162.912C177.343 162.48 176.975 162.128 176.511 162.128C176.047 162.128 175.679 162.496 175.679 162.928C175.679 163.376 176.047 163.744 176.511 163.744ZM175.935 174H177.071V165.584H175.935V174ZM186.664 165.584L183.48 172.752L180.328 165.584H179.144L182.872 174H184.04L187.784 165.584H186.664ZM196.974 169.792C196.974 167.264 195.262 165.52 192.894 165.52C190.526 165.52 188.782 167.296 188.782 169.792C188.782 172.288 190.574 174.08 193.198 174.08C194.526 174.08 195.694 173.6 196.446 172.704L195.806 171.968C195.166 172.704 194.254 173.072 193.23 173.072C191.39 173.072 190.046 171.904 189.918 170.144H196.958C196.958 170.016 196.974 169.888 196.974 169.792ZM192.894 166.496C194.542 166.496 195.742 167.648 195.886 169.296H189.918C190.062 167.648 191.262 166.496 192.894 166.496Z" fill="#241714" fill-opacity="0.6"/>
<path fill-rule="evenodd" clip-rule="evenodd" d="M71 159C65.48 159 61 163.48 61 169C61 174.52 65.48 179 71 179C76.52 179 81 174.52 81 169C81 163.48 76.52 159 71 159ZM71 177C66.58 177 63 173.42 63 169C63 164.58 66.58 161 71 161C75.42 161 79 164.58 79 169C79 173.42 75.42 177 71 177ZM66 169C66 166.239 68.2386 164 71 164C73.7614 164 76 166.239 76 169C76 171.761 73.7614 174 71 174C68.2386 174 66 171.761 66 169Z" fill="#BD9A65"/>
</g>
<g clip-path="url(#clip1)">
<path d="M101.768 210L99.032 206.16C100.664 205.632 101.592 204.4 101.592 202.64C101.592 200.24 99.864 198.8 97.016 198.8H92.824V210H94.008V206.448H97.016C97.336 206.448 97.624 206.432 97.912 206.4L100.472 210H101.768ZM96.984 205.44H94.008V199.824H96.984C99.224 199.824 100.408 200.848 100.408 202.64C100.408 204.4 99.224 205.44 96.984 205.44ZM111.97 205.792C111.97 203.264 110.259 201.52 107.89 201.52C105.522 201.52 103.778 203.296 103.778 205.792C103.778 208.288 105.57 210.08 108.194 210.08C109.523 210.08 110.69 209.6 111.443 208.704L110.802 207.968C110.162 208.704 109.25 209.072 108.226 209.072C106.386 209.072 105.042 207.904 104.914 206.144H111.955C111.955 206.016 111.97 205.888 111.97 205.792ZM107.89 202.496C109.538 202.496 110.739 203.648 110.882 205.296H104.914C105.058 203.648 106.258 202.496 107.89 202.496ZM114.763 210H115.899V198.128H114.763V210ZM122.484 201.52C121.156 201.52 119.908 201.936 119.06 202.656L119.572 203.504C120.26 202.896 121.284 202.512 122.372 202.512C123.94 202.512 124.756 203.296 124.756 204.736V205.248H122.084C119.668 205.248 118.836 206.336 118.836 207.632C118.836 209.088 120.004 210.08 121.908 210.08C123.3 210.08 124.292 209.552 124.804 208.688V210H125.892V204.784C125.892 202.608 124.66 201.52 122.484 201.52ZM122.084 209.184C120.74 209.184 119.956 208.576 119.956 207.6C119.956 206.736 120.484 206.096 122.116 206.096H124.756V207.472C124.308 208.576 123.364 209.184 122.084 209.184ZM136.113 210L132.753 205.68L135.921 201.584H134.673L132.145 204.88L129.617 201.584H128.337L131.505 205.68L128.177 210H129.457L132.145 206.48L134.817 210H136.113ZM139.06 199.744C139.54 199.744 139.892 199.376 139.892 198.912C139.892 198.48 139.524 198.128 139.06 198.128C138.596 198.128 138.228 198.496 138.228 198.928C138.228 199.376 138.596 199.744 139.06 199.744ZM138.484 210H139.62V201.584H138.484V210ZM147.549 201.52C146.093 201.52 144.957 202.112 144.349 203.136V201.584H143.261V210H144.397V205.584C144.397 203.664 145.533 202.544 147.341 202.544C148.941 202.544 149.869 203.456 149.869 205.232V210H151.005V205.12C151.005 202.704 149.597 201.52 147.549 201.52ZM161.304 201.584V203.2C160.6 202.096 159.384 201.52 157.976 201.52C155.576 201.52 153.752 203.168 153.752 205.584C153.752 208 155.576 209.68 157.976 209.68C159.352 209.68 160.552 209.12 161.256 208.048V209.12C161.256 211.2 160.28 212.176 158.152 212.176C156.856 212.176 155.64 211.744 154.84 211.024L154.264 211.888C155.144 212.72 156.648 213.184 158.184 213.184C160.968 213.184 162.392 211.872 162.392 208.976V201.584H161.304ZM158.088 208.672C156.232 208.672 154.904 207.408 154.904 205.584C154.904 203.76 156.232 202.512 158.088 202.512C159.944 202.512 161.288 203.76 161.288 205.584C161.288 207.408 159.944 208.672 158.088 208.672Z" fill="#241714" fill-opacity="0.6"/>
<path fill-rule="evenodd" clip-rule="evenodd" d="M61 205C61 199.48 65.48 195 71 195C76.52 195 81 199.48 81 205C81 210.52 76.52 215 71 215C65.48 215 61 210.52 61 205ZM63 205C63 209.42 66.58 213 71 213C75.42 213 79 209.42 79 205C79 200.58 75.42 197 71 197C66.58 197 63 200.58 63 205Z" fill="#241714" fill-opacity="0.6"/>
</g>
<g clip-path="url(#clip2)">
<path d="M95.912 246.096C98.776 246.096 100.088 244.688 100.088 243.04C100.088 238.96 93.192 240.816 93.192 237.744C93.192 236.624 94.104 235.712 96.152 235.712C97.144 235.712 98.264 236.016 99.224 236.64L99.624 235.696C98.728 235.072 97.416 234.704 96.152 234.704C93.304 234.704 92.024 236.128 92.024 237.776C92.024 241.92 98.92 240.032 98.92 243.104C98.92 244.208 98.008 245.088 95.912 245.088C94.44 245.088 93.016 244.512 92.216 243.728L91.752 244.64C92.584 245.504 94.232 246.096 95.912 246.096ZM102.908 246H104.044V234.128H102.908V246ZM115.029 241.792C115.029 239.264 113.317 237.52 110.949 237.52C108.581 237.52 106.837 239.296 106.837 241.792C106.837 244.288 108.629 246.08 111.253 246.08C112.581 246.08 113.749 245.6 114.501 244.704L113.861 243.968C113.221 244.704 112.309 245.072 111.285 245.072C109.445 245.072 108.101 243.904 107.973 242.144H115.013C115.013 242.016 115.029 241.888 115.029 241.792ZM110.949 238.496C112.597 238.496 113.797 239.648 113.941 241.296H107.973C108.117 239.648 109.317 238.496 110.949 238.496ZM125.165 241.792C125.165 239.264 123.453 237.52 121.085 237.52C118.717 237.52 116.973 239.296 116.973 241.792C116.973 244.288 118.765 246.08 121.389 246.08C122.717 246.08 123.885 245.6 124.637 244.704L123.997 243.968C123.357 244.704 122.445 245.072 121.421 245.072C119.581 245.072 118.237 243.904 118.109 242.144H125.149C125.149 242.016 125.165 241.888 125.165 241.792ZM121.085 238.496C122.733 238.496 123.933 239.648 124.077 241.296H118.109C118.253 239.648 119.453 238.496 121.085 238.496ZM132.293 237.52C130.901 237.52 129.733 238.128 129.045 239.248V237.584H127.957V249.104H129.093V244.416C129.797 245.504 130.949 246.08 132.293 246.08C134.693 246.08 136.485 244.352 136.485 241.792C136.485 239.248 134.693 237.52 132.293 237.52ZM132.213 245.072C130.421 245.072 129.077 243.76 129.077 241.792C129.077 239.84 130.421 238.512 132.213 238.512C133.989 238.512 135.349 239.84 135.349 241.792C135.349 243.76 133.989 245.072 132.213 245.072ZM139.857 235.744C140.337 235.744 140.689 235.376 140.689 234.912C140.689 234.48 140.321 234.128 139.857 234.128C139.393 234.128 139.025 234.496 139.025 234.928C139.025 235.376 139.393 235.744 139.857 235.744ZM139.281 246H140.417V237.584H139.281V246ZM148.346 237.52C146.89 237.52 145.754 238.112 145.146 239.136V237.584H144.058V246H145.194V241.584C145.194 239.664 146.33 238.544 148.138 238.544C149.738 238.544 150.666 239.456 150.666 241.232V246H151.802V241.12C151.802 238.704 150.394 237.52 148.346 237.52ZM162.101 237.584V239.2C161.397 238.096 160.181 237.52 158.773 237.52C156.373 237.52 154.549 239.168 154.549 241.584C154.549 244 156.373 245.68 158.773 245.68C160.149 245.68 161.349 245.12 162.053 244.048V245.12C162.053 247.2 161.077 248.176 158.949 248.176C157.653 248.176 156.437 247.744 155.637 247.024L155.061 247.888C155.941 248.72 157.445 249.184 158.981 249.184C161.765 249.184 163.189 247.872 163.189 244.976V237.584H162.101ZM158.885 244.672C157.029 244.672 155.701 243.408 155.701 241.584C155.701 239.76 157.029 238.512 158.885 238.512C160.741 238.512 162.085 239.76 162.085 241.584C162.085 243.408 160.741 244.672 158.885 244.672Z" fill="#241714" fill-opacity="0.6"/>
<path fill-rule="evenodd" clip-rule="evenodd" d="M61 241C61 235.48 65.48 231 71 231C76.52 231 81 235.48 81 241C81 246.52 76.52 251 71 251C65.48 251 61 246.52 61 241ZM63 241C63 245.42 66.58 249 71 249C75.42 249 79 245.42 79 241C79 236.58 75.42 233 71 233C66.58 233 63 236.58 63 241Z" fill="#241714" fill-opacity="0.6"/>
</g>
<g clip-path="url(#clip3)">
<path d="M101.192 282H102.44L97.32 270.8H96.152L91.032 282H92.264L93.608 279.008H99.848L101.192 282ZM94.04 278.048L96.728 272.032L99.416 278.048H94.04ZM104.533 282H105.669V270.128H104.533V282ZM109.31 282H110.446V270.128H109.31V282ZM122.194 282.08C124.658 282.08 126.466 280.288 126.466 277.792C126.466 275.296 124.658 273.52 122.194 273.52C119.73 273.52 117.906 275.296 117.906 277.792C117.906 280.288 119.73 282.08 122.194 282.08ZM122.194 281.072C120.402 281.072 119.058 279.76 119.058 277.792C119.058 275.824 120.402 274.512 122.194 274.512C123.986 274.512 125.314 275.824 125.314 277.792C125.314 279.76 123.986 281.072 122.194 281.072ZM132.049 271.008C132.529 271.008 132.977 271.152 133.297 271.424L133.681 270.576C133.265 270.224 132.625 270.048 132.001 270.048C130.353 270.048 129.457 271.04 129.457 272.544V273.584H127.953V274.544H129.457V282H130.593V274.544H133.153V273.584H130.561V272.592C130.561 271.552 131.073 271.008 132.049 271.008ZM143.867 280.672C143.547 280.96 143.083 281.104 142.619 281.104C141.675 281.104 141.163 280.56 141.163 279.568V274.544H143.723V273.584H141.163V271.744H140.027V273.584H138.523V274.544H140.027V279.632C140.027 281.184 140.907 282.08 142.491 282.08C143.147 282.08 143.819 281.888 144.267 281.488L143.867 280.672ZM151.103 273.52C149.679 273.52 148.575 274.08 147.951 275.056V270.128H146.815V282H147.951V277.584C147.951 275.664 149.087 274.544 150.895 274.544C152.495 274.544 153.423 275.456 153.423 277.232V282H154.559V277.12C154.559 274.704 153.151 273.52 151.103 273.52ZM165.498 277.792C165.498 275.264 163.786 273.52 161.418 273.52C159.05 273.52 157.306 275.296 157.306 277.792C157.306 280.288 159.098 282.08 161.722 282.08C163.05 282.08 164.218 281.6 164.97 280.704L164.33 279.968C163.69 280.704 162.778 281.072 161.754 281.072C159.914 281.072 158.57 279.904 158.442 278.144H165.482C165.482 278.016 165.498 277.888 165.498 277.792ZM161.418 274.496C163.066 274.496 164.266 275.648 164.41 277.296H158.442C158.586 275.648 159.786 274.496 161.418 274.496ZM175.902 273.52C174.574 273.52 173.326 273.936 172.478 274.656L172.99 275.504C173.678 274.896 174.702 274.512 175.79 274.512C177.358 274.512 178.174 275.296 178.174 276.736V277.248H175.502C173.086 277.248 172.254 278.336 172.254 279.632C172.254 281.088 173.422 282.08 175.326 282.08C176.718 282.08 177.71 281.552 178.222 280.688V282H179.31V276.784C179.31 274.608 178.078 273.52 175.902 273.52ZM175.502 281.184C174.158 281.184 173.374 280.576 173.374 279.6C173.374 278.736 173.902 278.096 175.534 278.096H178.174V279.472C177.726 280.576 176.782 281.184 175.502 281.184ZM187.211 273.52C185.867 273.52 184.715 274.096 184.011 275.184V270.128H182.875V282H183.963V280.336C184.651 281.472 185.819 282.08 187.211 282.08C189.611 282.08 191.403 280.336 191.403 277.792C191.403 275.248 189.611 273.52 187.211 273.52ZM187.131 281.072C185.339 281.072 183.995 279.76 183.995 277.792C183.995 275.824 185.339 274.512 187.131 274.512C188.907 274.512 190.267 275.824 190.267 277.792C190.267 279.76 188.907 281.072 187.131 281.072ZM197.639 282.08C200.103 282.08 201.911 280.288 201.911 277.792C201.911 275.296 200.103 273.52 197.639 273.52C195.175 273.52 193.351 275.296 193.351 277.792C193.351 280.288 195.175 282.08 197.639 282.08ZM197.639 281.072C195.847 281.072 194.503 279.76 194.503 277.792C194.503 275.824 195.847 274.512 197.639 274.512C199.431 274.512 200.759 275.824 200.759 277.792C200.759 279.76 199.431 281.072 197.639 281.072ZM210.428 273.584L207.244 280.752L204.092 273.584H202.908L206.636 282H207.804L211.548 273.584H210.428ZM220.737 277.792C220.737 275.264 219.025 273.52 216.657 273.52C214.289 273.52 212.545 275.296 212.545 277.792C212.545 280.288 214.337 282.08 216.961 282.08C218.289 282.08 219.457 281.6 220.209 280.704L219.569 279.968C218.929 280.704 218.017 281.072 216.993 281.072C215.153 281.072 213.809 279.904 213.681 278.144H220.721C220.721 278.016 220.737 277.888 220.737 277.792ZM216.657 274.496C218.305 274.496 219.505 275.648 219.649 277.296H213.681C213.825 275.648 215.025 274.496 216.657 274.496Z" fill="#241714" fill-opacity="0.6"/>
<path fill-rule="evenodd" clip-rule="evenodd" d="M61 277C61 271.48 65.48 267 71 267C76.52 267 81 271.48 81 277C81 282.52 76.52 287 71 287C65.48 287 61 282.52 61 277ZM63 277C63 281.42 66.58 285 71 285C75.42 285 79 281.42 79 277C79 272.58 75.42 269 71 269C66.58 269 63 272.58 63 277Z" fill="#241714" fill-opacity="0.6"/>
</g>
<path d="M84 356C84 343.297 94.2975 333 107 333H253C265.703 333 276 343.297 276 356V356C276 368.703 265.703 379 253 379H107C94.2975 379 84 368.703 84 356V356Z" fill="#BD9A65"/>
<path d="M117.04 350.8V357.6L111.472 350.8H109.328V362H111.888V355.2L117.472 362H119.6V350.8H117.04ZM125.306 359.92V357.328H130.506V355.312H125.306V352.88H131.194V350.8H122.73V362H131.402V359.92H125.306ZM143.883 362L139.707 356.208L143.611 350.8H140.811L138.283 354.432L135.707 350.8H132.763L136.699 356.304L132.555 362H135.531L138.187 358.112L140.891 362H143.883ZM147.572 362H150.164V352.912H153.748V350.8H143.988V352.912H147.572V362ZM171.594 361.824C171.066 362.384 170.458 362.656 169.77 362.656C169.21 362.656 168.73 362.448 168.186 361.872C170.57 361.104 172.186 359.024 172.186 356.4C172.186 353.056 169.578 350.608 166.058 350.608C162.522 350.608 159.93 353.072 159.93 356.4C159.93 359.44 162.09 361.76 165.162 362.144C166.89 363.968 168.058 364.576 169.722 364.576C170.954 364.576 172.01 364.096 172.746 363.2L171.594 361.824ZM162.554 356.4C162.554 354.272 164.058 352.816 166.058 352.816C168.058 352.816 169.562 354.272 169.562 356.4C169.562 358.528 168.058 359.984 166.058 359.984C164.058 359.984 162.554 358.528 162.554 356.4ZM179.59 362.192C182.774 362.192 184.662 360.368 184.662 357.072V350.8H182.102V356.976C182.102 359.104 181.19 359.984 179.606 359.984C178.038 359.984 177.11 359.104 177.11 356.976V350.8H174.518V357.072C174.518 360.368 176.406 362.192 179.59 362.192ZM190.28 359.92V357.328H195.48V355.312H190.28V352.88H196.168V350.8H187.704V362H196.376V359.92H190.28ZM202.598 362.192C205.798 362.192 207.35 360.592 207.35 358.72C207.35 354.608 200.838 356.032 200.838 353.968C200.838 353.264 201.43 352.688 202.966 352.688C203.958 352.688 205.03 352.976 206.07 353.568L206.87 351.6C205.83 350.944 204.39 350.608 202.982 350.608C199.798 350.608 198.262 352.192 198.262 354.096C198.262 358.256 204.774 356.816 204.774 358.912C204.774 359.6 204.15 360.112 202.614 360.112C201.27 360.112 199.862 359.632 198.918 358.944L198.038 360.896C199.03 361.664 200.822 362.192 202.598 362.192ZM211.765 362H214.357V352.912H217.941V350.8H208.181V352.912H211.765V362ZM219.816 362H222.408V350.8H219.816V362ZM230.969 362.192C234.489 362.192 237.097 359.744 237.097 356.4C237.097 353.056 234.489 350.608 230.969 350.608C227.433 350.608 224.841 353.072 224.841 356.4C224.841 359.728 227.433 362.192 230.969 362.192ZM230.969 359.984C228.969 359.984 227.465 358.528 227.465 356.4C227.465 354.272 228.969 352.816 230.969 352.816C232.969 352.816 234.473 354.272 234.473 356.4C234.473 358.528 232.969 359.984 230.969 359.984ZM247.237 350.8V357.6L241.669 350.8H239.525V362H242.085V355.2L247.669 362H249.797V350.8H247.237Z" fill="#F8F8F9"/>
<defs>
<clipPath id="clip0">
<rect width="242" height="24" fill="white" transform="translate(59 157)"/>
</clipPath>
<clipPath id="clip1">
<rect width="242" height="24" fill="white" transform="translate(59 193)"/>
</clipPath>
<clipPath id="clip2">
<rect width="242" height="24" fill="white" transform="translate(59 229)"/>
</clipPath>
<clipPath id="clip3">
<rect width="242" height="24" fill="white" transform="translate(59 265)"/>
</clipPath>
</defs>
</svg>
